G04 #@! TF.GenerationSoftware,KiCad,Pcbnew,9.0.6*
G04 #@! TF.CreationDate,2025-12-16T20:08:44+05:30*
G04 #@! TF.ProjectId,rumination,72756d69-6e61-4746-996f-6e2e6b696361,rev?*
G04 #@! TF.SameCoordinates,Original*
G04 #@! TF.FileFunction,Legend,Bot*
G04 #@! TF.FilePolarity,Positive*
%FSLAX46Y46*%
G04 Gerber Fmt 4.6, Leading zero omitted, Abs format (unit mm)*
G04 Created by KiCad (PCBNEW 9.0.6) date 2025-12-16 20:08:44*
%MOMM*%
%LPD*%
G01*
G04 APERTURE LIST*
G04 APERTURE END LIST*
%LPC*%
G36*
X134771256Y-114793754D02*
G01*
X134934257Y-114861271D01*
X135080954Y-114959291D01*
X135205709Y-115084046D01*
X135303729Y-115230743D01*
X135371246Y-115393744D01*
X135405666Y-115566785D01*
X135405666Y-115743215D01*
X135371246Y-115916256D01*
X135303729Y-116079257D01*
X135205709Y-116225954D01*
X135080954Y-116350709D01*
X134934257Y-116448729D01*
X134771256Y-116516246D01*
X134598215Y-116550666D01*
X134421785Y-116550666D01*
X134248744Y-116516246D01*
X134085743Y-116448729D01*
X133939046Y-116350709D01*
X133814291Y-116225954D01*
X133716271Y-116079257D01*
X133648754Y-115916256D01*
X133614334Y-115743215D01*
X133614334Y-115566785D01*
X133648754Y-115393744D01*
X133716271Y-115230743D01*
X133814291Y-115084046D01*
X133939046Y-114959291D01*
X134085743Y-114861271D01*
X134248744Y-114793754D01*
X134421785Y-114759334D01*
X134598215Y-114759334D01*
X134771256Y-114793754D01*
G37*
G36*
X137311256Y-114793754D02*
G01*
X137474257Y-114861271D01*
X137620954Y-114959291D01*
X137745709Y-115084046D01*
X137843729Y-115230743D01*
X137911246Y-115393744D01*
X137945666Y-115566785D01*
X137945666Y-115743215D01*
X137911246Y-115916256D01*
X137843729Y-116079257D01*
X137745709Y-116225954D01*
X137620954Y-116350709D01*
X137474257Y-116448729D01*
X137311256Y-116516246D01*
X137138215Y-116550666D01*
X136961785Y-116550666D01*
X136788744Y-116516246D01*
X136625743Y-116448729D01*
X136479046Y-116350709D01*
X136354291Y-116225954D01*
X136256271Y-116079257D01*
X136188754Y-115916256D01*
X136154334Y-115743215D01*
X136154334Y-115566785D01*
X136188754Y-115393744D01*
X136256271Y-115230743D01*
X136354291Y-115084046D01*
X136479046Y-114959291D01*
X136625743Y-114861271D01*
X136788744Y-114793754D01*
X136961785Y-114759334D01*
X137138215Y-114759334D01*
X137311256Y-114793754D01*
G37*
G36*
X139851256Y-114793754D02*
G01*
X140014257Y-114861271D01*
X140160954Y-114959291D01*
X140285709Y-115084046D01*
X140383729Y-115230743D01*
X140451246Y-115393744D01*
X140485666Y-115566785D01*
X140485666Y-115743215D01*
X140451246Y-115916256D01*
X140383729Y-116079257D01*
X140285709Y-116225954D01*
X140160954Y-116350709D01*
X140014257Y-116448729D01*
X139851256Y-116516246D01*
X139678215Y-116550666D01*
X139501785Y-116550666D01*
X139328744Y-116516246D01*
X139165743Y-116448729D01*
X139019046Y-116350709D01*
X138894291Y-116225954D01*
X138796271Y-116079257D01*
X138728754Y-115916256D01*
X138694334Y-115743215D01*
X138694334Y-115566785D01*
X138728754Y-115393744D01*
X138796271Y-115230743D01*
X138894291Y-115084046D01*
X139019046Y-114959291D01*
X139165743Y-114861271D01*
X139328744Y-114793754D01*
X139501785Y-114759334D01*
X139678215Y-114759334D01*
X139851256Y-114793754D01*
G37*
G36*
X142391256Y-114793754D02*
G01*
X142554257Y-114861271D01*
X142700954Y-114959291D01*
X142825709Y-115084046D01*
X142923729Y-115230743D01*
X142991246Y-115393744D01*
X143025666Y-115566785D01*
X143025666Y-115743215D01*
X142991246Y-115916256D01*
X142923729Y-116079257D01*
X142825709Y-116225954D01*
X142700954Y-116350709D01*
X142554257Y-116448729D01*
X142391256Y-116516246D01*
X142218215Y-116550666D01*
X142041785Y-116550666D01*
X141868744Y-116516246D01*
X141705743Y-116448729D01*
X141559046Y-116350709D01*
X141434291Y-116225954D01*
X141336271Y-116079257D01*
X141268754Y-115916256D01*
X141234334Y-115743215D01*
X141234334Y-115566785D01*
X141268754Y-115393744D01*
X141336271Y-115230743D01*
X141434291Y-115084046D01*
X141559046Y-114959291D01*
X141705743Y-114861271D01*
X141868744Y-114793754D01*
X142041785Y-114759334D01*
X142218215Y-114759334D01*
X142391256Y-114793754D01*
G37*
G36*
X175235000Y-114385000D02*
G01*
X174185000Y-114385000D01*
X174185000Y-112885000D01*
X175235000Y-112885000D01*
X175235000Y-114385000D01*
G37*
G36*
X176180909Y-112924963D02*
G01*
X176299600Y-112993489D01*
X176396511Y-113090400D01*
X176465037Y-113209091D01*
X176500509Y-113341474D01*
X176505000Y-113410000D01*
X176505000Y-113860000D01*
X176500509Y-113928526D01*
X176465037Y-114060909D01*
X176396511Y-114179600D01*
X176299600Y-114276511D01*
X176180909Y-114345037D01*
X176048526Y-114380509D01*
X175911474Y-114380509D01*
X175779091Y-114345037D01*
X175660400Y-114276511D01*
X175563489Y-114179600D01*
X175494963Y-114060909D01*
X175459491Y-113928526D01*
X175455000Y-113860000D01*
X175455000Y-113410000D01*
X175459491Y-113341474D01*
X175494963Y-113209091D01*
X175563489Y-113090400D01*
X175660400Y-112993489D01*
X175779091Y-112924963D01*
X175911474Y-112889491D01*
X176048526Y-112889491D01*
X176180909Y-112924963D01*
G37*
G36*
X177450909Y-112924963D02*
G01*
X177569600Y-112993489D01*
X177666511Y-113090400D01*
X177735037Y-113209091D01*
X177770509Y-113341474D01*
X177775000Y-113410000D01*
X177775000Y-113860000D01*
X177770509Y-113928526D01*
X177735037Y-114060909D01*
X177666511Y-114179600D01*
X177569600Y-114276511D01*
X177450909Y-114345037D01*
X177318526Y-114380509D01*
X177181474Y-114380509D01*
X177049091Y-114345037D01*
X176930400Y-114276511D01*
X176833489Y-114179600D01*
X176764963Y-114060909D01*
X176729491Y-113928526D01*
X176725000Y-113860000D01*
X176725000Y-113410000D01*
X176729491Y-113341474D01*
X176764963Y-113209091D01*
X176833489Y-113090400D01*
X176930400Y-112993489D01*
X177049091Y-112924963D01*
X177181474Y-112889491D01*
X177318526Y-112889491D01*
X177450909Y-112924963D01*
G37*
G36*
X188431256Y-108433754D02*
G01*
X188594257Y-108501271D01*
X188740954Y-108599291D01*
X188865709Y-108724046D01*
X188963729Y-108870743D01*
X189031246Y-109033744D01*
X189065666Y-109206785D01*
X189065666Y-109383215D01*
X189031246Y-109556256D01*
X188963729Y-109719257D01*
X188865709Y-109865954D01*
X188740954Y-109990709D01*
X188594257Y-110088729D01*
X188431256Y-110156246D01*
X188258215Y-110190666D01*
X188081785Y-110190666D01*
X187908744Y-110156246D01*
X187745743Y-110088729D01*
X187599046Y-109990709D01*
X187474291Y-109865954D01*
X187376271Y-109719257D01*
X187308754Y-109556256D01*
X187274334Y-109383215D01*
X187274334Y-109206785D01*
X187308754Y-109033744D01*
X187376271Y-108870743D01*
X187474291Y-108724046D01*
X187599046Y-108599291D01*
X187745743Y-108501271D01*
X187908744Y-108433754D01*
X188081785Y-108399334D01*
X188258215Y-108399334D01*
X188431256Y-108433754D01*
G37*
G36*
X188431256Y-105893754D02*
G01*
X188594257Y-105961271D01*
X188740954Y-106059291D01*
X188865709Y-106184046D01*
X188963729Y-106330743D01*
X189031246Y-106493744D01*
X189065666Y-106666785D01*
X189065666Y-106843215D01*
X189031246Y-107016256D01*
X188963729Y-107179257D01*
X188865709Y-107325954D01*
X188740954Y-107450709D01*
X188594257Y-107548729D01*
X188431256Y-107616246D01*
X188258215Y-107650666D01*
X188081785Y-107650666D01*
X187908744Y-107616246D01*
X187745743Y-107548729D01*
X187599046Y-107450709D01*
X187474291Y-107325954D01*
X187376271Y-107179257D01*
X187308754Y-107016256D01*
X187274334Y-106843215D01*
X187274334Y-106666785D01*
X187308754Y-106493744D01*
X187376271Y-106330743D01*
X187474291Y-106184046D01*
X187599046Y-106059291D01*
X187745743Y-105961271D01*
X187908744Y-105893754D01*
X188081785Y-105859334D01*
X188258215Y-105859334D01*
X188431256Y-105893754D01*
G37*
G36*
X188431256Y-103353754D02*
G01*
X188594257Y-103421271D01*
X188740954Y-103519291D01*
X188865709Y-103644046D01*
X188963729Y-103790743D01*
X189031246Y-103953744D01*
X189065666Y-104126785D01*
X189065666Y-104303215D01*
X189031246Y-104476256D01*
X188963729Y-104639257D01*
X188865709Y-104785954D01*
X188740954Y-104910709D01*
X188594257Y-105008729D01*
X188431256Y-105076246D01*
X188258215Y-105110666D01*
X188081785Y-105110666D01*
X187908744Y-105076246D01*
X187745743Y-105008729D01*
X187599046Y-104910709D01*
X187474291Y-104785954D01*
X187376271Y-104639257D01*
X187308754Y-104476256D01*
X187274334Y-104303215D01*
X187274334Y-104126785D01*
X187308754Y-103953744D01*
X187376271Y-103790743D01*
X187474291Y-103644046D01*
X187599046Y-103519291D01*
X187745743Y-103421271D01*
X187908744Y-103353754D01*
X188081785Y-103319334D01*
X188258215Y-103319334D01*
X188431256Y-103353754D01*
G37*
G36*
X188431256Y-100813754D02*
G01*
X188594257Y-100881271D01*
X188740954Y-100979291D01*
X188865709Y-101104046D01*
X188963729Y-101250743D01*
X189031246Y-101413744D01*
X189065666Y-101586785D01*
X189065666Y-101763215D01*
X189031246Y-101936256D01*
X188963729Y-102099257D01*
X188865709Y-102245954D01*
X188740954Y-102370709D01*
X188594257Y-102468729D01*
X188431256Y-102536246D01*
X188258215Y-102570666D01*
X188081785Y-102570666D01*
X187908744Y-102536246D01*
X187745743Y-102468729D01*
X187599046Y-102370709D01*
X187474291Y-102245954D01*
X187376271Y-102099257D01*
X187308754Y-101936256D01*
X187274334Y-101763215D01*
X187274334Y-101586785D01*
X187308754Y-101413744D01*
X187376271Y-101250743D01*
X187474291Y-101104046D01*
X187599046Y-100979291D01*
X187745743Y-100881271D01*
X187908744Y-100813754D01*
X188081785Y-100779334D01*
X188258215Y-100779334D01*
X188431256Y-100813754D01*
G37*
G36*
X188431256Y-98273754D02*
G01*
X188594257Y-98341271D01*
X188740954Y-98439291D01*
X188865709Y-98564046D01*
X188963729Y-98710743D01*
X189031246Y-98873744D01*
X189065666Y-99046785D01*
X189065666Y-99223215D01*
X189031246Y-99396256D01*
X188963729Y-99559257D01*
X188865709Y-99705954D01*
X188740954Y-99830709D01*
X188594257Y-99928729D01*
X188431256Y-99996246D01*
X188258215Y-100030666D01*
X188081785Y-100030666D01*
X187908744Y-99996246D01*
X187745743Y-99928729D01*
X187599046Y-99830709D01*
X187474291Y-99705954D01*
X187376271Y-99559257D01*
X187308754Y-99396256D01*
X187274334Y-99223215D01*
X187274334Y-99046785D01*
X187308754Y-98873744D01*
X187376271Y-98710743D01*
X187474291Y-98564046D01*
X187599046Y-98439291D01*
X187745743Y-98341271D01*
X187908744Y-98273754D01*
X188081785Y-98239334D01*
X188258215Y-98239334D01*
X188431256Y-98273754D01*
G37*
G36*
X188431256Y-95733754D02*
G01*
X188594257Y-95801271D01*
X188740954Y-95899291D01*
X188865709Y-96024046D01*
X188963729Y-96170743D01*
X189031246Y-96333744D01*
X189065666Y-96506785D01*
X189065666Y-96683215D01*
X189031246Y-96856256D01*
X188963729Y-97019257D01*
X188865709Y-97165954D01*
X188740954Y-97290709D01*
X188594257Y-97388729D01*
X188431256Y-97456246D01*
X188258215Y-97490666D01*
X188081785Y-97490666D01*
X187908744Y-97456246D01*
X187745743Y-97388729D01*
X187599046Y-97290709D01*
X187474291Y-97165954D01*
X187376271Y-97019257D01*
X187308754Y-96856256D01*
X187274334Y-96683215D01*
X187274334Y-96506785D01*
X187308754Y-96333744D01*
X187376271Y-96170743D01*
X187474291Y-96024046D01*
X187599046Y-95899291D01*
X187745743Y-95801271D01*
X187908744Y-95733754D01*
X188081785Y-95699334D01*
X188258215Y-95699334D01*
X188431256Y-95733754D01*
G37*
G36*
X188431256Y-93193754D02*
G01*
X188594257Y-93261271D01*
X188740954Y-93359291D01*
X188865709Y-93484046D01*
X188963729Y-93630743D01*
X189031246Y-93793744D01*
X189065666Y-93966785D01*
X189065666Y-94143215D01*
X189031246Y-94316256D01*
X188963729Y-94479257D01*
X188865709Y-94625954D01*
X188740954Y-94750709D01*
X188594257Y-94848729D01*
X188431256Y-94916246D01*
X188258215Y-94950666D01*
X188081785Y-94950666D01*
X187908744Y-94916246D01*
X187745743Y-94848729D01*
X187599046Y-94750709D01*
X187474291Y-94625954D01*
X187376271Y-94479257D01*
X187308754Y-94316256D01*
X187274334Y-94143215D01*
X187274334Y-93966785D01*
X187308754Y-93793744D01*
X187376271Y-93630743D01*
X187474291Y-93484046D01*
X187599046Y-93359291D01*
X187745743Y-93261271D01*
X187908744Y-93193754D01*
X188081785Y-93159334D01*
X188258215Y-93159334D01*
X188431256Y-93193754D01*
G37*
G36*
X188431256Y-90653754D02*
G01*
X188594257Y-90721271D01*
X188740954Y-90819291D01*
X188865709Y-90944046D01*
X188963729Y-91090743D01*
X189031246Y-91253744D01*
X189065666Y-91426785D01*
X189065666Y-91603215D01*
X189031246Y-91776256D01*
X188963729Y-91939257D01*
X188865709Y-92085954D01*
X188740954Y-92210709D01*
X188594257Y-92308729D01*
X188431256Y-92376246D01*
X188258215Y-92410666D01*
X188081785Y-92410666D01*
X187908744Y-92376246D01*
X187745743Y-92308729D01*
X187599046Y-92210709D01*
X187474291Y-92085954D01*
X187376271Y-91939257D01*
X187308754Y-91776256D01*
X187274334Y-91603215D01*
X187274334Y-91426785D01*
X187308754Y-91253744D01*
X187376271Y-91090743D01*
X187474291Y-90944046D01*
X187599046Y-90819291D01*
X187745743Y-90721271D01*
X187908744Y-90653754D01*
X188081785Y-90619334D01*
X188258215Y-90619334D01*
X188431256Y-90653754D01*
G37*
%LPD*%
M02*
