M48
; DRILL file {KiCad 9.0.6} date 2025-12-16T20:05:36+0530
; FORMAT={-:-/ absolute / metric / decimal}
; #@! TF.CreationDate,2025-12-16T20:05:36+05:30
; #@! TF.GenerationSoftware,Kicad,Pcbnew,9.0.6
; #@! TF.FileFunction,Plated,1,4,PTH
FMAT,2
METRIC
; #@! TA.AperFunction,Plated,PTH,ComponentDrill
T1C0.200
; #@! TA.AperFunction,Plated,PTH,ViaDrill
T2C0.300
; #@! TA.AperFunction,Plated,PTH,ComponentDrill
T3C0.750
; #@! TA.AperFunction,Plated,PTH,ComponentDrill
T4C0.800
; #@! TA.AperFunction,Plated,PTH,ComponentDrill
T5C0.900
%
G90
G05
T1
X171.545Y-96.442
X171.545Y-97.968
X172.308Y-95.68
X172.308Y-97.205
X172.308Y-98.73
X173.07Y-96.442
X173.07Y-97.968
X173.832Y-95.68
X173.832Y-97.205
X173.832Y-98.73
X174.595Y-96.442
X174.595Y-97.968
T2
X162.0Y-116.0
X164.0Y-114.262
X167.0Y-90.0
X184.0Y-95.823
X184.0Y-98.0
X184.995Y-95.823
T3
X174.71Y-113.635
X175.98Y-113.635
X177.25Y-113.635
T4
X188.17Y-91.515
X188.17Y-94.055
X188.17Y-96.595
X188.17Y-99.135
X188.17Y-101.675
X188.17Y-104.215
X188.17Y-106.755
X188.17Y-109.295
T5
X134.51Y-115.655
X137.05Y-115.655
X139.59Y-115.655
X142.13Y-115.655
M30
