G04 #@! TF.GenerationSoftware,KiCad,Pcbnew,9.0.6*
G04 #@! TF.CreationDate,2025-12-16T20:08:44+05:30*
G04 #@! TF.ProjectId,rumination,72756d69-6e61-4746-996f-6e2e6b696361,rev?*
G04 #@! TF.SameCoordinates,Original*
G04 #@! TF.FileFunction,Copper,L1,Top*
G04 #@! TF.FilePolarity,Positive*
%FSLAX46Y46*%
G04 Gerber Fmt 4.6, Leading zero omitted, Abs format (unit mm)*
G04 Created by KiCad (PCBNEW 9.0.6) date 2025-12-16 20:08:44*
%MOMM*%
%LPD*%
G01*
G04 APERTURE LIST*
G04 Aperture macros list*
%AMRoundRect*
0 Rectangle with rounded corners*
0 $1 Rounding radius*
0 $2 $3 $4 $5 $6 $7 $8 $9 X,Y pos of 4 corners*
0 Add a 4 corners polygon primitive as box body*
4,1,4,$2,$3,$4,$5,$6,$7,$8,$9,$2,$3,0*
0 Add four circle primitives for the rounded corners*
1,1,$1+$1,$2,$3*
1,1,$1+$1,$4,$5*
1,1,$1+$1,$6,$7*
1,1,$1+$1,$8,$9*
0 Add four rect primitives between the rounded corners*
20,1,$1+$1,$2,$3,$4,$5,0*
20,1,$1+$1,$4,$5,$6,$7,0*
20,1,$1+$1,$6,$7,$8,$9,0*
20,1,$1+$1,$8,$9,$2,$3,0*%
G04 Aperture macros list end*
G04 #@! TA.AperFunction,SMDPad,CuDef*
%ADD10R,1.050000X1.050000*%
G04 #@! TD*
G04 #@! TA.AperFunction,HeatsinkPad*
%ADD11C,0.600000*%
G04 #@! TD*
G04 #@! TA.AperFunction,HeatsinkPad*
%ADD12R,4.200000X4.200000*%
G04 #@! TD*
G04 #@! TA.AperFunction,SMDPad,CuDef*
%ADD13R,1.500000X0.900000*%
G04 #@! TD*
G04 #@! TA.AperFunction,SMDPad,CuDef*
%ADD14R,0.900000X1.500000*%
G04 #@! TD*
G04 #@! TA.AperFunction,ComponentPad*
%ADD15R,1.050000X1.500000*%
G04 #@! TD*
G04 #@! TA.AperFunction,ComponentPad*
%ADD16O,1.050000X1.500000*%
G04 #@! TD*
G04 #@! TA.AperFunction,SMDPad,CuDef*
%ADD17RoundRect,0.250000X-0.262500X-0.450000X0.262500X-0.450000X0.262500X0.450000X-0.262500X0.450000X0*%
G04 #@! TD*
G04 #@! TA.AperFunction,CastellatedPad*
%ADD18O,1.800000X1.800000*%
G04 #@! TD*
G04 #@! TA.AperFunction,ComponentPad*
%ADD19C,1.800000*%
G04 #@! TD*
G04 #@! TA.AperFunction,ViaPad*
%ADD20C,0.600000*%
G04 #@! TD*
G04 #@! TA.AperFunction,Conductor*
%ADD21C,0.200000*%
G04 #@! TD*
G04 #@! TA.AperFunction,Conductor*
%ADD22C,0.400000*%
G04 #@! TD*
G04 APERTURE END LIST*
D10*
X174595000Y-98730000D03*
D11*
X174595000Y-97967500D03*
D10*
X174595000Y-97205000D03*
D11*
X174595000Y-96442500D03*
D10*
X174595000Y-95680000D03*
D11*
X173832500Y-98730000D03*
X173832500Y-97205000D03*
X173832500Y-95680000D03*
D10*
X173070000Y-98730000D03*
D11*
X173070000Y-97967500D03*
D12*
X173070000Y-97205000D03*
D10*
X173070000Y-97205000D03*
D11*
X173070000Y-96442500D03*
D10*
X173070000Y-95680000D03*
D11*
X172307500Y-98730000D03*
X172307500Y-97205000D03*
X172307500Y-95680000D03*
D10*
X171545000Y-98730000D03*
D11*
X171545000Y-97967500D03*
D10*
X171545000Y-97205000D03*
D11*
X171545000Y-96442500D03*
D10*
X171545000Y-95680000D03*
D13*
X182500000Y-89865000D03*
X182500000Y-91135000D03*
X182500000Y-92405000D03*
X182500000Y-93675000D03*
X182500000Y-94945000D03*
X182500000Y-96215000D03*
X182500000Y-97485000D03*
X182500000Y-98755000D03*
X182500000Y-100025000D03*
X182500000Y-101295000D03*
X182500000Y-102565000D03*
X182500000Y-103835000D03*
X182500000Y-105105000D03*
X182500000Y-106375000D03*
D14*
X179470000Y-107625000D03*
X178200000Y-107625000D03*
X176930000Y-107625000D03*
X175660000Y-107625000D03*
X174390000Y-107625000D03*
X173120000Y-107625000D03*
X171850000Y-107625000D03*
X170580000Y-107625000D03*
X169310000Y-107625000D03*
X168040000Y-107625000D03*
D13*
X165000000Y-106375000D03*
X165000000Y-105105000D03*
X165000000Y-103835000D03*
X165000000Y-102565000D03*
X165000000Y-101295000D03*
X165000000Y-100025000D03*
X165000000Y-98755000D03*
X165000000Y-97485000D03*
X165000000Y-96215000D03*
X165000000Y-94945000D03*
X165000000Y-93675000D03*
X165000000Y-92405000D03*
X165000000Y-91135000D03*
X165000000Y-89865000D03*
D15*
X174710000Y-113635000D03*
D16*
X175980000Y-113635000D03*
X177250000Y-113635000D03*
D17*
X165750000Y-113635000D03*
X167575000Y-113635000D03*
D18*
X134510000Y-115655000D03*
X137050000Y-115655000D03*
X139590000Y-115655000D03*
X142130000Y-115655000D03*
D19*
X188170000Y-91515000D03*
X188170000Y-94055000D03*
X188170000Y-96595000D03*
X188170000Y-99135000D03*
X188170000Y-101675000D03*
X188170000Y-104215000D03*
X188170000Y-106755000D03*
X188170000Y-109295000D03*
D20*
X167000000Y-90000000D03*
X164000000Y-114262000D03*
X162000000Y-116000000D03*
X184000000Y-98000000D03*
X184000000Y-95823000D03*
X184995051Y-95823000D03*
D21*
X168040000Y-102235000D02*
X168040000Y-107625000D01*
X171545000Y-98730000D02*
X168040000Y-102235000D01*
X181935000Y-89865000D02*
X176120000Y-95680000D01*
X182500000Y-89865000D02*
X181935000Y-89865000D01*
X176120000Y-95680000D02*
X174595000Y-95680000D01*
X166865000Y-89865000D02*
X167000000Y-90000000D01*
X165000000Y-89865000D02*
X166865000Y-89865000D01*
X183980000Y-89865000D02*
X182500000Y-89865000D01*
X188170000Y-94055000D02*
X183980000Y-89865000D01*
X173664000Y-113635000D02*
X168040000Y-108011000D01*
X168040000Y-108011000D02*
X168040000Y-107625000D01*
X174710000Y-113635000D02*
X173664000Y-113635000D01*
X143523000Y-114262000D02*
X164000000Y-114262000D01*
X142130000Y-115655000D02*
X143523000Y-114262000D01*
D22*
X166895000Y-91135000D02*
X165000000Y-91135000D01*
X168943000Y-89087000D02*
X166895000Y-91135000D01*
X185742000Y-89087000D02*
X168943000Y-89087000D01*
X188170000Y-91515000D02*
X185742000Y-89087000D01*
X159000000Y-92000000D02*
X159865000Y-91135000D01*
X159057500Y-92057500D02*
X159000000Y-92000000D01*
X159057500Y-106942500D02*
X159057500Y-92057500D01*
X159057500Y-106942500D02*
X159000000Y-106885000D01*
X159865000Y-91135000D02*
X165000000Y-91135000D01*
X175170283Y-116000000D02*
X162000000Y-116000000D01*
X177250000Y-113920283D02*
X175170283Y-116000000D01*
X177250000Y-113635000D02*
X177250000Y-113920283D01*
X165750000Y-113635000D02*
X159057500Y-106942500D01*
X136530000Y-113635000D02*
X165750000Y-113635000D01*
X134510000Y-115655000D02*
X136530000Y-113635000D01*
D21*
X137050000Y-116950000D02*
X137050000Y-115655000D01*
X137000000Y-117000000D02*
X137050000Y-116950000D01*
X183601000Y-117000000D02*
X137000000Y-117000000D01*
X184000000Y-98000000D02*
X184000000Y-116601000D01*
X184000000Y-116601000D02*
X183601000Y-117000000D01*
X183122000Y-94945000D02*
X184000000Y-95823000D01*
X182500000Y-94945000D02*
X183122000Y-94945000D01*
X182923000Y-94945000D02*
X182500000Y-94945000D01*
X185000000Y-95818051D02*
X184995051Y-95823000D01*
X183675000Y-93675000D02*
X185000000Y-95000000D01*
X185000000Y-95000000D02*
X185000000Y-95818051D01*
X182500000Y-93675000D02*
X183675000Y-93675000D01*
X185385000Y-96350000D02*
X188170000Y-99135000D01*
X182500000Y-96350000D02*
X185385000Y-96350000D01*
X175980000Y-113635000D02*
X175980000Y-113410000D01*
X175980000Y-113410000D02*
X179470000Y-109920000D01*
X168553000Y-114613000D02*
X167575000Y-113635000D01*
X175980000Y-113635000D02*
X175980000Y-114585000D01*
X179470000Y-109920000D02*
X179470000Y-107760000D01*
X175980000Y-114585000D02*
X175952000Y-114613000D01*
X175952000Y-114613000D02*
X168553000Y-114613000D01*
X182500000Y-92540000D02*
X184115000Y-92540000D01*
X184115000Y-92540000D02*
X188170000Y-96595000D01*
X182200000Y-95080000D02*
X182500000Y-95080000D01*
G04 #@! TA.AperFunction,Conductor*
G36*
X164758631Y-114355185D02*
G01*
X164797136Y-114399271D01*
X164798895Y-114398187D01*
X164802685Y-114404332D01*
X164802686Y-114404334D01*
X164894788Y-114553656D01*
X165018844Y-114677712D01*
X165168166Y-114769814D01*
X165334703Y-114824999D01*
X165437491Y-114835500D01*
X166062508Y-114835499D01*
X166062516Y-114835498D01*
X166062519Y-114835498D01*
X166118802Y-114829748D01*
X166165297Y-114824999D01*
X166331834Y-114769814D01*
X166481156Y-114677712D01*
X166574819Y-114584049D01*
X166636142Y-114550564D01*
X166705834Y-114555548D01*
X166750181Y-114584049D01*
X166843844Y-114677712D01*
X166993166Y-114769814D01*
X167159703Y-114824999D01*
X167262491Y-114835500D01*
X167874902Y-114835499D01*
X167904348Y-114844145D01*
X167934329Y-114850667D01*
X167939342Y-114854419D01*
X167941941Y-114855183D01*
X167962583Y-114871818D01*
X168068139Y-114977374D01*
X168068149Y-114977385D01*
X168072479Y-114981715D01*
X168072480Y-114981716D01*
X168178584Y-115087820D01*
X168212068Y-115149141D01*
X168207084Y-115218833D01*
X168165213Y-115274767D01*
X168099749Y-115299184D01*
X168090902Y-115299500D01*
X162425316Y-115299500D01*
X162377864Y-115290061D01*
X162233501Y-115230264D01*
X162233489Y-115230261D01*
X162078845Y-115199500D01*
X162078842Y-115199500D01*
X161921158Y-115199500D01*
X161921155Y-115199500D01*
X161766510Y-115230261D01*
X161766498Y-115230264D01*
X161620827Y-115290602D01*
X161620814Y-115290609D01*
X161489711Y-115378210D01*
X161489707Y-115378213D01*
X161378213Y-115489707D01*
X161378210Y-115489711D01*
X161290609Y-115620814D01*
X161290602Y-115620827D01*
X161230264Y-115766498D01*
X161230261Y-115766510D01*
X161199500Y-115921153D01*
X161199500Y-116078846D01*
X161230261Y-116233489D01*
X161232031Y-116239324D01*
X161229279Y-116240158D01*
X161235503Y-116297359D01*
X161204309Y-116359878D01*
X161144266Y-116395608D01*
X161113445Y-116399500D01*
X143524265Y-116399500D01*
X143457226Y-116379815D01*
X143411471Y-116327011D01*
X143401527Y-116257853D01*
X143413780Y-116219205D01*
X143427432Y-116192410D01*
X143495526Y-115982838D01*
X143495526Y-115982835D01*
X143507855Y-115905000D01*
X142505278Y-115905000D01*
X142549333Y-115828694D01*
X142580000Y-115714244D01*
X142580000Y-115595756D01*
X142549333Y-115481306D01*
X142505278Y-115405000D01*
X143507855Y-115405000D01*
X143495526Y-115327164D01*
X143495526Y-115327161D01*
X143427432Y-115117589D01*
X143327386Y-114921239D01*
X143197857Y-114742958D01*
X143042041Y-114587142D01*
X143004433Y-114559818D01*
X142961768Y-114504488D01*
X142955789Y-114434874D01*
X142988395Y-114373079D01*
X143049234Y-114338722D01*
X143077319Y-114335500D01*
X164691592Y-114335500D01*
X164758631Y-114355185D01*
G37*
G04 #@! TD.AperFunction*
G04 #@! TA.AperFunction,Conductor*
G36*
X185467520Y-89807185D02*
G01*
X185488162Y-89823819D01*
X186765791Y-91101448D01*
X186799276Y-91162771D01*
X186800583Y-91208527D01*
X186769500Y-91404778D01*
X186769500Y-91625222D01*
X186776305Y-91668189D01*
X186803985Y-91842952D01*
X186872103Y-92052603D01*
X186872104Y-92052606D01*
X186972187Y-92249025D01*
X187101752Y-92427358D01*
X187101756Y-92427363D01*
X187257640Y-92583247D01*
X187397679Y-92684990D01*
X187440345Y-92740319D01*
X187446324Y-92809933D01*
X187413719Y-92871728D01*
X187397679Y-92885626D01*
X187372485Y-92903930D01*
X187372485Y-92903932D01*
X188123553Y-93655000D01*
X188117339Y-93655000D01*
X188015606Y-93682259D01*
X187924394Y-93734920D01*
X187849920Y-93809394D01*
X187797259Y-93900606D01*
X187770000Y-94002339D01*
X187770000Y-94008553D01*
X187018932Y-93257485D01*
X187018931Y-93257485D01*
X186972616Y-93321233D01*
X186872567Y-93517589D01*
X186804473Y-93727164D01*
X186770000Y-93944818D01*
X186770000Y-94046403D01*
X186750315Y-94113442D01*
X186697511Y-94159197D01*
X186628353Y-94169141D01*
X186564797Y-94140116D01*
X186558319Y-94134084D01*
X184602590Y-92178355D01*
X184602588Y-92178352D01*
X184483717Y-92059481D01*
X184483716Y-92059480D01*
X184396904Y-92009360D01*
X184396904Y-92009359D01*
X184396900Y-92009358D01*
X184346785Y-91980423D01*
X184194057Y-91939499D01*
X184035943Y-91939499D01*
X184028347Y-91939499D01*
X184028331Y-91939500D01*
X183863941Y-91939500D01*
X183796902Y-91919815D01*
X183751147Y-91867011D01*
X183746937Y-91854735D01*
X183746802Y-91854786D01*
X183744091Y-91847517D01*
X183731340Y-91813332D01*
X183726357Y-91743642D01*
X183731340Y-91726669D01*
X183744091Y-91692483D01*
X183750500Y-91632873D01*
X183750499Y-90637128D01*
X183744091Y-90577517D01*
X183731073Y-90542616D01*
X183726090Y-90472926D01*
X183731075Y-90455949D01*
X183743597Y-90422375D01*
X183743598Y-90422372D01*
X183749999Y-90362844D01*
X183750000Y-90362827D01*
X183750000Y-90115000D01*
X181250000Y-90115000D01*
X181250000Y-90362844D01*
X181256401Y-90422372D01*
X181256403Y-90422379D01*
X181268925Y-90455952D01*
X181273909Y-90525643D01*
X181268925Y-90542617D01*
X181255909Y-90577514D01*
X181255908Y-90577516D01*
X181249501Y-90637116D01*
X181249501Y-90637123D01*
X181249500Y-90637135D01*
X181249500Y-91632870D01*
X181249501Y-91632876D01*
X181255908Y-91692481D01*
X181268659Y-91726669D01*
X181273642Y-91796361D01*
X181268659Y-91813331D01*
X181255908Y-91847518D01*
X181249501Y-91907116D01*
X181249500Y-91907135D01*
X181249500Y-92902870D01*
X181249501Y-92902876D01*
X181255908Y-92962481D01*
X181268659Y-92996669D01*
X181273642Y-93066361D01*
X181268659Y-93083331D01*
X181255908Y-93117518D01*
X181249501Y-93177116D01*
X181249501Y-93177123D01*
X181249500Y-93177135D01*
X181249500Y-94172870D01*
X181249501Y-94172876D01*
X181255908Y-94232481D01*
X181268659Y-94266669D01*
X181273642Y-94336361D01*
X181268659Y-94353331D01*
X181255908Y-94387518D01*
X181251584Y-94427741D01*
X181249501Y-94447123D01*
X181249500Y-94447135D01*
X181249500Y-95442870D01*
X181249501Y-95442876D01*
X181255908Y-95502481D01*
X181268659Y-95536669D01*
X181273642Y-95606361D01*
X181268659Y-95623331D01*
X181255908Y-95657518D01*
X181249501Y-95717116D01*
X181249501Y-95717123D01*
X181249500Y-95717135D01*
X181249500Y-96712870D01*
X181249501Y-96712876D01*
X181255908Y-96772481D01*
X181268659Y-96806669D01*
X181273642Y-96876361D01*
X181268659Y-96893331D01*
X181255908Y-96927518D01*
X181249533Y-96986819D01*
X181249501Y-96987123D01*
X181249500Y-96987135D01*
X181249500Y-97982870D01*
X181249501Y-97982876D01*
X181255908Y-98042481D01*
X181268659Y-98076669D01*
X181273642Y-98146361D01*
X181268659Y-98163331D01*
X181255908Y-98197518D01*
X181252040Y-98233501D01*
X181249501Y-98257123D01*
X181249500Y-98257135D01*
X181249500Y-99252870D01*
X181249501Y-99252876D01*
X181255908Y-99312481D01*
X181268659Y-99346669D01*
X181273642Y-99416361D01*
X181268659Y-99433331D01*
X181255908Y-99467518D01*
X181252729Y-99497093D01*
X181249501Y-99527123D01*
X181249500Y-99527135D01*
X181249500Y-100522870D01*
X181249501Y-100522876D01*
X181255908Y-100582481D01*
X181268659Y-100616669D01*
X181273642Y-100686361D01*
X181268659Y-100703331D01*
X181255908Y-100737518D01*
X181249501Y-100797116D01*
X181249501Y-100797123D01*
X181249500Y-100797135D01*
X181249500Y-101792870D01*
X181249501Y-101792876D01*
X181255908Y-101852481D01*
X181268659Y-101886669D01*
X181273642Y-101956361D01*
X181268659Y-101973331D01*
X181255908Y-102007518D01*
X181249501Y-102067116D01*
X181249501Y-102067123D01*
X181249500Y-102067135D01*
X181249500Y-103062870D01*
X181249501Y-103062876D01*
X181255908Y-103122481D01*
X181268659Y-103156669D01*
X181273642Y-103226361D01*
X181268659Y-103243331D01*
X181255908Y-103277518D01*
X181249501Y-103337116D01*
X181249501Y-103337123D01*
X181249500Y-103337135D01*
X181249500Y-104332870D01*
X181249501Y-104332876D01*
X181255908Y-104392481D01*
X181268659Y-104426669D01*
X181273642Y-104496361D01*
X181268659Y-104513331D01*
X181255908Y-104547518D01*
X181249501Y-104607116D01*
X181249501Y-104607123D01*
X181249500Y-104607135D01*
X181249500Y-105602870D01*
X181249501Y-105602876D01*
X181255908Y-105662481D01*
X181268659Y-105696669D01*
X181273642Y-105766361D01*
X181268659Y-105783331D01*
X181255908Y-105817518D01*
X181249501Y-105877116D01*
X181249501Y-105877123D01*
X181249500Y-105877135D01*
X181249500Y-106872870D01*
X181249501Y-106872876D01*
X181255908Y-106932483D01*
X181306202Y-107067328D01*
X181306206Y-107067335D01*
X181392452Y-107182544D01*
X181392455Y-107182547D01*
X181507664Y-107268793D01*
X181507671Y-107268797D01*
X181642517Y-107319091D01*
X181642516Y-107319091D01*
X181649444Y-107319835D01*
X181702127Y-107325500D01*
X183275500Y-107325499D01*
X183342539Y-107345184D01*
X183388294Y-107397987D01*
X183399500Y-107449499D01*
X183399500Y-116275500D01*
X183379815Y-116342539D01*
X183327011Y-116388294D01*
X183275500Y-116399500D01*
X176060802Y-116399500D01*
X175993763Y-116379815D01*
X175948008Y-116327011D01*
X175938064Y-116257853D01*
X175967089Y-116194297D01*
X175973121Y-116187819D01*
X177239121Y-114921819D01*
X177300444Y-114888334D01*
X177326802Y-114885500D01*
X177351004Y-114885500D01*
X177351005Y-114885499D01*
X177549127Y-114846091D01*
X177735756Y-114768786D01*
X177903718Y-114656558D01*
X178046558Y-114513718D01*
X178158786Y-114345756D01*
X178236091Y-114159127D01*
X178275500Y-113961003D01*
X178275500Y-113308997D01*
X178236091Y-113110873D01*
X178158786Y-112924244D01*
X178158784Y-112924241D01*
X178158782Y-112924237D01*
X178046558Y-112756281D01*
X177903721Y-112613444D01*
X177903717Y-112613441D01*
X177862743Y-112586063D01*
X177817938Y-112532451D01*
X177809231Y-112463126D01*
X177839385Y-112400098D01*
X177843934Y-112395299D01*
X179828506Y-110410728D01*
X179828511Y-110410724D01*
X179838714Y-110400520D01*
X179838716Y-110400520D01*
X179950520Y-110288716D01*
X180029577Y-110151784D01*
X180070500Y-109999057D01*
X180070500Y-108939141D01*
X180090185Y-108872102D01*
X180142989Y-108826347D01*
X180151149Y-108822966D01*
X180162331Y-108818796D01*
X180162922Y-108818354D01*
X180200447Y-108790261D01*
X180277546Y-108732546D01*
X180363796Y-108617331D01*
X180414091Y-108482483D01*
X180420500Y-108422873D01*
X180420499Y-106827128D01*
X180414091Y-106767517D01*
X180381701Y-106680676D01*
X180363797Y-106632671D01*
X180363793Y-106632664D01*
X180277547Y-106517455D01*
X180277544Y-106517452D01*
X180162335Y-106431206D01*
X180162328Y-106431202D01*
X180027482Y-106380908D01*
X180027483Y-106380908D01*
X179967883Y-106374501D01*
X179967881Y-106374500D01*
X179967873Y-106374500D01*
X179967864Y-106374500D01*
X178972129Y-106374500D01*
X178972123Y-106374501D01*
X178912518Y-106380908D01*
X178878331Y-106393659D01*
X178808639Y-106398642D01*
X178791669Y-106393659D01*
X178774140Y-106387121D01*
X178757483Y-106380909D01*
X178757482Y-106380908D01*
X178697883Y-106374501D01*
X178697881Y-106374500D01*
X178697873Y-106374500D01*
X178697864Y-106374500D01*
X177702129Y-106374500D01*
X177702123Y-106374501D01*
X177642518Y-106380908D01*
X177608331Y-106393659D01*
X177538639Y-106398642D01*
X177521669Y-106393659D01*
X177504140Y-106387121D01*
X177487483Y-106380909D01*
X177487482Y-106380908D01*
X177427883Y-106374501D01*
X177427881Y-106374500D01*
X177427873Y-106374500D01*
X177427864Y-106374500D01*
X176432129Y-106374500D01*
X176432123Y-106374501D01*
X176372518Y-106380908D01*
X176338331Y-106393659D01*
X176268639Y-106398642D01*
X176251669Y-106393659D01*
X176234140Y-106387121D01*
X176217483Y-106380909D01*
X176217482Y-106380908D01*
X176157883Y-106374501D01*
X176157881Y-106374500D01*
X176157873Y-106374500D01*
X176157864Y-106374500D01*
X175162129Y-106374500D01*
X175162123Y-106374501D01*
X175102518Y-106380908D01*
X175068331Y-106393659D01*
X174998639Y-106398642D01*
X174981669Y-106393659D01*
X174964140Y-106387121D01*
X174947483Y-106380909D01*
X174947482Y-106380908D01*
X174887883Y-106374501D01*
X174887881Y-106374500D01*
X174887873Y-106374500D01*
X174887864Y-106374500D01*
X173892129Y-106374500D01*
X173892123Y-106374501D01*
X173832518Y-106380908D01*
X173798331Y-106393659D01*
X173728639Y-106398642D01*
X173711669Y-106393659D01*
X173694140Y-106387121D01*
X173677483Y-106380909D01*
X173677482Y-106380908D01*
X173617883Y-106374501D01*
X173617881Y-106374500D01*
X173617873Y-106374500D01*
X173617864Y-106374500D01*
X172622129Y-106374500D01*
X172622123Y-106374501D01*
X172562518Y-106380908D01*
X172528331Y-106393659D01*
X172458639Y-106398642D01*
X172441669Y-106393659D01*
X172424140Y-106387121D01*
X172407483Y-106380909D01*
X172407482Y-106380908D01*
X172347883Y-106374501D01*
X172347881Y-106374500D01*
X172347873Y-106374500D01*
X172347864Y-106374500D01*
X171352129Y-106374500D01*
X171352123Y-106374501D01*
X171292518Y-106380908D01*
X171258331Y-106393659D01*
X171188639Y-106398642D01*
X171171669Y-106393659D01*
X171154140Y-106387121D01*
X171137483Y-106380909D01*
X171137482Y-106380908D01*
X171077883Y-106374501D01*
X171077881Y-106374500D01*
X171077873Y-106374500D01*
X171077864Y-106374500D01*
X170082129Y-106374500D01*
X170082123Y-106374501D01*
X170022518Y-106380908D01*
X169988331Y-106393659D01*
X169918639Y-106398642D01*
X169901669Y-106393659D01*
X169884140Y-106387121D01*
X169867483Y-106380909D01*
X169867482Y-106380908D01*
X169807883Y-106374501D01*
X169807881Y-106374500D01*
X169807873Y-106374500D01*
X169807864Y-106374500D01*
X168812129Y-106374500D01*
X168812123Y-106374501D01*
X168752520Y-106380908D01*
X168752517Y-106380908D01*
X168752517Y-106380909D01*
X168717620Y-106393925D01*
X168717617Y-106393926D01*
X168647925Y-106398909D01*
X168630952Y-106393925D01*
X168597379Y-106381403D01*
X168597372Y-106381401D01*
X168537844Y-106375000D01*
X168290000Y-106375000D01*
X168290000Y-108875000D01*
X168537828Y-108875000D01*
X168537844Y-108874999D01*
X168597372Y-108868598D01*
X168597375Y-108868597D01*
X168630949Y-108856075D01*
X168700640Y-108851089D01*
X168717619Y-108856075D01*
X168752511Y-108869089D01*
X168752512Y-108869089D01*
X168752517Y-108869091D01*
X168812127Y-108875500D01*
X169807872Y-108875499D01*
X169867483Y-108869091D01*
X169901667Y-108856340D01*
X169971358Y-108851357D01*
X169988327Y-108856338D01*
X170022517Y-108869091D01*
X170082127Y-108875500D01*
X171077872Y-108875499D01*
X171137483Y-108869091D01*
X171171667Y-108856340D01*
X171241358Y-108851357D01*
X171258327Y-108856338D01*
X171292517Y-108869091D01*
X171352127Y-108875500D01*
X172347872Y-108875499D01*
X172407483Y-108869091D01*
X172441667Y-108856340D01*
X172511358Y-108851357D01*
X172528327Y-108856338D01*
X172562517Y-108869091D01*
X172622127Y-108875500D01*
X173617872Y-108875499D01*
X173677483Y-108869091D01*
X173711667Y-108856340D01*
X173781358Y-108851357D01*
X173798327Y-108856338D01*
X173832517Y-108869091D01*
X173892127Y-108875500D01*
X174887872Y-108875499D01*
X174947483Y-108869091D01*
X174981667Y-108856340D01*
X175051358Y-108851357D01*
X175068327Y-108856338D01*
X175102517Y-108869091D01*
X175162127Y-108875500D01*
X176157872Y-108875499D01*
X176217483Y-108869091D01*
X176251667Y-108856340D01*
X176321358Y-108851357D01*
X176338327Y-108856338D01*
X176372517Y-108869091D01*
X176432127Y-108875500D01*
X177427872Y-108875499D01*
X177487483Y-108869091D01*
X177521667Y-108856340D01*
X177591358Y-108851357D01*
X177608327Y-108856338D01*
X177642517Y-108869091D01*
X177702127Y-108875500D01*
X178697872Y-108875499D01*
X178697874Y-108875498D01*
X178697887Y-108875498D01*
X178726803Y-108872388D01*
X178732244Y-108871804D01*
X178801003Y-108884208D01*
X178852141Y-108931818D01*
X178869500Y-108995093D01*
X178869500Y-109619902D01*
X178849815Y-109686941D01*
X178833181Y-109707583D01*
X176190644Y-112350119D01*
X176129321Y-112383604D01*
X176087174Y-112383985D01*
X176087065Y-112385097D01*
X176081003Y-112384500D01*
X175878997Y-112384500D01*
X175878992Y-112384500D01*
X175680880Y-112423907D01*
X175680868Y-112423910D01*
X175599661Y-112457547D01*
X175530191Y-112465016D01*
X175485140Y-112445405D01*
X175484872Y-112445897D01*
X175479374Y-112442894D01*
X175477895Y-112442251D01*
X175477086Y-112441645D01*
X175342379Y-112391403D01*
X175342372Y-112391401D01*
X175282844Y-112385000D01*
X174960000Y-112385000D01*
X174960000Y-113269134D01*
X174959968Y-113271953D01*
X174959722Y-113282740D01*
X174954500Y-113308997D01*
X174954500Y-113349170D01*
X174940255Y-113334925D01*
X174854745Y-113285556D01*
X174759370Y-113260000D01*
X174660630Y-113260000D01*
X174565255Y-113285556D01*
X174479745Y-113334925D01*
X174460000Y-113354670D01*
X174460000Y-112385000D01*
X174137155Y-112385000D01*
X174077627Y-112391401D01*
X174077620Y-112391403D01*
X173942913Y-112441645D01*
X173942906Y-112441649D01*
X173827812Y-112527809D01*
X173827809Y-112527812D01*
X173741649Y-112642906D01*
X173741645Y-112642913D01*
X173691403Y-112777620D01*
X173691401Y-112777627D01*
X173685000Y-112837155D01*
X173685000Y-113385000D01*
X174429670Y-113385000D01*
X174409925Y-113404745D01*
X174360556Y-113490255D01*
X174335000Y-113585630D01*
X174335000Y-113684370D01*
X174360556Y-113779745D01*
X174409925Y-113865255D01*
X174429670Y-113885000D01*
X173685000Y-113885000D01*
X173685000Y-113888500D01*
X173665315Y-113955539D01*
X173612511Y-114001294D01*
X173561000Y-114012500D01*
X168853097Y-114012500D01*
X168823656Y-114003855D01*
X168793670Y-113997332D01*
X168788654Y-113993577D01*
X168786058Y-113992815D01*
X168765416Y-113976181D01*
X168624318Y-113835083D01*
X168590833Y-113773760D01*
X168587999Y-113747402D01*
X168587999Y-113134998D01*
X168587998Y-113134981D01*
X168577499Y-113032203D01*
X168577498Y-113032200D01*
X168541725Y-112924244D01*
X168522314Y-112865666D01*
X168430212Y-112716344D01*
X168306156Y-112592288D01*
X168201618Y-112527809D01*
X168156836Y-112500187D01*
X168156831Y-112500185D01*
X168155362Y-112499698D01*
X167990297Y-112445001D01*
X167990295Y-112445000D01*
X167887510Y-112434500D01*
X167262498Y-112434500D01*
X167262480Y-112434501D01*
X167159703Y-112445000D01*
X167159700Y-112445001D01*
X166993168Y-112500185D01*
X166993163Y-112500187D01*
X166843842Y-112592289D01*
X166750181Y-112685951D01*
X166688858Y-112719436D01*
X166619166Y-112714452D01*
X166574819Y-112685951D01*
X166481157Y-112592289D01*
X166481156Y-112592288D01*
X166376618Y-112527809D01*
X166331836Y-112500187D01*
X166331831Y-112500185D01*
X166330362Y-112499698D01*
X166165297Y-112445001D01*
X166165295Y-112445000D01*
X166062516Y-112434500D01*
X166062509Y-112434500D01*
X165591519Y-112434500D01*
X165524480Y-112414815D01*
X165503838Y-112398181D01*
X161528501Y-108422844D01*
X167090000Y-108422844D01*
X167096401Y-108482372D01*
X167096403Y-108482379D01*
X167146645Y-108617086D01*
X167146649Y-108617093D01*
X167232809Y-108732187D01*
X167232812Y-108732190D01*
X167347906Y-108818350D01*
X167347913Y-108818354D01*
X167482620Y-108868596D01*
X167482627Y-108868598D01*
X167542155Y-108874999D01*
X167542172Y-108875000D01*
X167790000Y-108875000D01*
X167790000Y-107875000D01*
X167090000Y-107875000D01*
X167090000Y-108422844D01*
X161528501Y-108422844D01*
X159794319Y-106688662D01*
X159760834Y-106627339D01*
X159758000Y-106600981D01*
X159758000Y-92284019D01*
X159777685Y-92216980D01*
X159794319Y-92196338D01*
X160118838Y-91871819D01*
X160180161Y-91838334D01*
X160206519Y-91835500D01*
X163625500Y-91835500D01*
X163692539Y-91855185D01*
X163738294Y-91907989D01*
X163749500Y-91959500D01*
X163749500Y-92902870D01*
X163749501Y-92902876D01*
X163755908Y-92962481D01*
X163768659Y-92996669D01*
X163773642Y-93066361D01*
X163768659Y-93083331D01*
X163755908Y-93117518D01*
X163749501Y-93177116D01*
X163749501Y-93177123D01*
X163749500Y-93177135D01*
X163749500Y-94172870D01*
X163749501Y-94172876D01*
X163755908Y-94232481D01*
X163768659Y-94266669D01*
X163773642Y-94336361D01*
X163768659Y-94353331D01*
X163755908Y-94387518D01*
X163751584Y-94427741D01*
X163749501Y-94447123D01*
X163749500Y-94447135D01*
X163749500Y-95442870D01*
X163749501Y-95442876D01*
X163755908Y-95502481D01*
X163768659Y-95536669D01*
X163773642Y-95606361D01*
X163768659Y-95623331D01*
X163755908Y-95657518D01*
X163749501Y-95717116D01*
X163749501Y-95717123D01*
X163749500Y-95717135D01*
X163749500Y-96712870D01*
X163749501Y-96712876D01*
X163755908Y-96772481D01*
X163768659Y-96806669D01*
X163773642Y-96876361D01*
X163768659Y-96893331D01*
X163755908Y-96927518D01*
X163749533Y-96986819D01*
X163749501Y-96987123D01*
X163749500Y-96987135D01*
X163749500Y-97982870D01*
X163749501Y-97982876D01*
X163755908Y-98042481D01*
X163768659Y-98076669D01*
X163773642Y-98146361D01*
X163768659Y-98163331D01*
X163755908Y-98197518D01*
X163752040Y-98233501D01*
X163749501Y-98257123D01*
X163749500Y-98257135D01*
X163749500Y-99252870D01*
X163749501Y-99252876D01*
X163755908Y-99312481D01*
X163768659Y-99346669D01*
X163773642Y-99416361D01*
X163768659Y-99433331D01*
X163755908Y-99467518D01*
X163752729Y-99497093D01*
X163749501Y-99527123D01*
X163749500Y-99527135D01*
X163749500Y-100522870D01*
X163749501Y-100522876D01*
X163755908Y-100582481D01*
X163768659Y-100616669D01*
X163773642Y-100686361D01*
X163768659Y-100703331D01*
X163755908Y-100737518D01*
X163749501Y-100797116D01*
X163749501Y-100797123D01*
X163749500Y-100797135D01*
X163749500Y-101792870D01*
X163749501Y-101792876D01*
X163755908Y-101852481D01*
X163768659Y-101886669D01*
X163773642Y-101956361D01*
X163768659Y-101973331D01*
X163755908Y-102007518D01*
X163749501Y-102067116D01*
X163749501Y-102067123D01*
X163749500Y-102067135D01*
X163749500Y-103062870D01*
X163749501Y-103062876D01*
X163755908Y-103122481D01*
X163768659Y-103156669D01*
X163773642Y-103226361D01*
X163768659Y-103243331D01*
X163755908Y-103277518D01*
X163749501Y-103337116D01*
X163749501Y-103337123D01*
X163749500Y-103337135D01*
X163749500Y-104332870D01*
X163749501Y-104332876D01*
X163755908Y-104392481D01*
X163768659Y-104426669D01*
X163773642Y-104496361D01*
X163768659Y-104513331D01*
X163755908Y-104547518D01*
X163749501Y-104607116D01*
X163749501Y-104607123D01*
X163749500Y-104607135D01*
X163749500Y-105602870D01*
X163749501Y-105602876D01*
X163755908Y-105662481D01*
X163768659Y-105696669D01*
X163773642Y-105766361D01*
X163768659Y-105783331D01*
X163755908Y-105817518D01*
X163749501Y-105877116D01*
X163749501Y-105877123D01*
X163749500Y-105877135D01*
X163749500Y-106872870D01*
X163749501Y-106872876D01*
X163755908Y-106932483D01*
X163806202Y-107067328D01*
X163806206Y-107067335D01*
X163892452Y-107182544D01*
X163892455Y-107182547D01*
X164007664Y-107268793D01*
X164007671Y-107268797D01*
X164142517Y-107319091D01*
X164142516Y-107319091D01*
X164149444Y-107319835D01*
X164202127Y-107325500D01*
X165797872Y-107325499D01*
X165857483Y-107319091D01*
X165992331Y-107268796D01*
X166107546Y-107182546D01*
X166193796Y-107067331D01*
X166244091Y-106932483D01*
X166250500Y-106872873D01*
X166250500Y-106827155D01*
X167090000Y-106827155D01*
X167090000Y-107375000D01*
X167790000Y-107375000D01*
X167790000Y-106375000D01*
X167542155Y-106375000D01*
X167482627Y-106381401D01*
X167482620Y-106381403D01*
X167347913Y-106431645D01*
X167347906Y-106431649D01*
X167232812Y-106517809D01*
X167232809Y-106517812D01*
X167146649Y-106632906D01*
X167146645Y-106632913D01*
X167096403Y-106767620D01*
X167096401Y-106767627D01*
X167090000Y-106827155D01*
X166250500Y-106827155D01*
X166250499Y-106375000D01*
X166250499Y-105877129D01*
X166250498Y-105877123D01*
X166250497Y-105877116D01*
X166244091Y-105817517D01*
X166231340Y-105783332D01*
X166226357Y-105713642D01*
X166231340Y-105696669D01*
X166244091Y-105662483D01*
X166250500Y-105602873D01*
X166250499Y-104607128D01*
X166244091Y-104547517D01*
X166231340Y-104513332D01*
X166226357Y-104443642D01*
X166231340Y-104426669D01*
X166244091Y-104392483D01*
X166250500Y-104332873D01*
X166250499Y-103337128D01*
X166244091Y-103277517D01*
X166231340Y-103243332D01*
X166226357Y-103173642D01*
X166231340Y-103156669D01*
X166244091Y-103122483D01*
X166250500Y-103062873D01*
X166250499Y-102067128D01*
X166244091Y-102007517D01*
X166231340Y-101973332D01*
X166226357Y-101903642D01*
X166231340Y-101886669D01*
X166244091Y-101852483D01*
X166250500Y-101792873D01*
X166250499Y-100797128D01*
X166244091Y-100737517D01*
X166231340Y-100703332D01*
X166226357Y-100633642D01*
X166231340Y-100616669D01*
X166244091Y-100582483D01*
X166250500Y-100522873D01*
X166250499Y-99527128D01*
X166244091Y-99467517D01*
X166231340Y-99433332D01*
X166226357Y-99363642D01*
X166231340Y-99346669D01*
X166244091Y-99312483D01*
X166245127Y-99302844D01*
X170520000Y-99302844D01*
X170526401Y-99362372D01*
X170526403Y-99362379D01*
X170576645Y-99497086D01*
X170576649Y-99497093D01*
X170662809Y-99612187D01*
X170662812Y-99612190D01*
X170777906Y-99698350D01*
X170777913Y-99698354D01*
X170912620Y-99748596D01*
X170912627Y-99748598D01*
X170972155Y-99754999D01*
X170972172Y-99755000D01*
X171295000Y-99755000D01*
X171795000Y-99755000D01*
X172117828Y-99755000D01*
X172117844Y-99754999D01*
X172177377Y-99748597D01*
X172177379Y-99748597D01*
X172264165Y-99716227D01*
X172333857Y-99711241D01*
X172350835Y-99716227D01*
X172437621Y-99748597D01*
X172497155Y-99754999D01*
X172497172Y-99755000D01*
X172820000Y-99755000D01*
X173320000Y-99755000D01*
X173642828Y-99755000D01*
X173642844Y-99754999D01*
X173702377Y-99748597D01*
X173702379Y-99748597D01*
X173789165Y-99716227D01*
X173858857Y-99711241D01*
X173875835Y-99716227D01*
X173962621Y-99748597D01*
X174022155Y-99754999D01*
X174022172Y-99755000D01*
X174345000Y-99755000D01*
X174845000Y-99755000D01*
X175167828Y-99755000D01*
X175167844Y-99754999D01*
X175227372Y-99748598D01*
X175227379Y-99748596D01*
X175362086Y-99698354D01*
X175362093Y-99698350D01*
X175477187Y-99612190D01*
X175477190Y-99612187D01*
X175563350Y-99497093D01*
X175563354Y-99497086D01*
X175613596Y-99362379D01*
X175613598Y-99362372D01*
X175619999Y-99302844D01*
X175620000Y-99302827D01*
X175620000Y-98980000D01*
X174845000Y-98980000D01*
X174845000Y-99755000D01*
X174345000Y-99755000D01*
X174345000Y-98980000D01*
X173320000Y-98980000D01*
X173320000Y-99755000D01*
X172820000Y-99755000D01*
X172820000Y-98980000D01*
X171795000Y-98980000D01*
X171795000Y-99755000D01*
X171295000Y-99755000D01*
X171295000Y-98980000D01*
X170520000Y-98980000D01*
X170520000Y-99302844D01*
X166245127Y-99302844D01*
X166250500Y-99252873D01*
X166250499Y-98736794D01*
X166250499Y-98257129D01*
X166250498Y-98257123D01*
X166250497Y-98257116D01*
X166244091Y-98197517D01*
X166231340Y-98163332D01*
X166226357Y-98093642D01*
X166231340Y-98076669D01*
X166244091Y-98042483D01*
X166250500Y-97982873D01*
X166250500Y-97777844D01*
X170520000Y-97777844D01*
X170526401Y-97837372D01*
X170526403Y-97837383D01*
X170558772Y-97924168D01*
X170563756Y-97993859D01*
X170558772Y-98010832D01*
X170526403Y-98097616D01*
X170526401Y-98097627D01*
X170520000Y-98157155D01*
X170520000Y-98480000D01*
X171295000Y-98480000D01*
X171795000Y-98480000D01*
X172820000Y-98480000D01*
X173320000Y-98480000D01*
X174345000Y-98480000D01*
X174845000Y-98480000D01*
X175620000Y-98480000D01*
X175620000Y-98157172D01*
X175619999Y-98157155D01*
X175613597Y-98097622D01*
X175613597Y-98097620D01*
X175581227Y-98010835D01*
X175576241Y-97941143D01*
X175581227Y-97924165D01*
X175613597Y-97837379D01*
X175613597Y-97837377D01*
X175619999Y-97777844D01*
X175620000Y-97777827D01*
X175620000Y-97455000D01*
X174845000Y-97455000D01*
X174845000Y-98480000D01*
X174345000Y-98480000D01*
X174345000Y-97455000D01*
X173320000Y-97455000D01*
X173320000Y-98480000D01*
X172820000Y-98480000D01*
X172820000Y-97455000D01*
X171795000Y-97455000D01*
X171795000Y-98480000D01*
X171295000Y-98480000D01*
X171295000Y-97455000D01*
X170520000Y-97455000D01*
X170520000Y-97777844D01*
X166250500Y-97777844D01*
X166250499Y-96987128D01*
X166244091Y-96927517D01*
X166231340Y-96893332D01*
X166226357Y-96823642D01*
X166231340Y-96806669D01*
X166244091Y-96772483D01*
X166250500Y-96712873D01*
X166250500Y-96252844D01*
X170520000Y-96252844D01*
X170526401Y-96312372D01*
X170526403Y-96312383D01*
X170558772Y-96399168D01*
X170563756Y-96468859D01*
X170558772Y-96485832D01*
X170526403Y-96572616D01*
X170526401Y-96572627D01*
X170520000Y-96632155D01*
X170520000Y-96955000D01*
X171295000Y-96955000D01*
X171795000Y-96955000D01*
X172820000Y-96955000D01*
X173320000Y-96955000D01*
X174345000Y-96955000D01*
X174845000Y-96955000D01*
X175620000Y-96955000D01*
X175620000Y-96632172D01*
X175619999Y-96632155D01*
X175613597Y-96572622D01*
X175613597Y-96572620D01*
X175581227Y-96485835D01*
X175576241Y-96416143D01*
X175581227Y-96399165D01*
X175613597Y-96312379D01*
X175613597Y-96312377D01*
X175619999Y-96252844D01*
X175620000Y-96252827D01*
X175620000Y-95930000D01*
X174845000Y-95930000D01*
X174845000Y-96955000D01*
X174345000Y-96955000D01*
X174345000Y-95930000D01*
X173320000Y-95930000D01*
X173320000Y-96955000D01*
X172820000Y-96955000D01*
X172820000Y-95930000D01*
X171795000Y-95930000D01*
X171795000Y-96955000D01*
X171295000Y-96955000D01*
X171295000Y-95930000D01*
X170520000Y-95930000D01*
X170520000Y-96252844D01*
X166250500Y-96252844D01*
X166250499Y-95717128D01*
X166244091Y-95657517D01*
X166231340Y-95623332D01*
X166226357Y-95553642D01*
X166231340Y-95536669D01*
X166244091Y-95502483D01*
X166250500Y-95442873D01*
X166250499Y-95107155D01*
X170520000Y-95107155D01*
X170520000Y-95430000D01*
X171295000Y-95430000D01*
X171795000Y-95430000D01*
X172820000Y-95430000D01*
X173320000Y-95430000D01*
X174345000Y-95430000D01*
X174845000Y-95430000D01*
X175620000Y-95430000D01*
X175620000Y-95107172D01*
X175619999Y-95107155D01*
X175613598Y-95047627D01*
X175613596Y-95047620D01*
X175563354Y-94912913D01*
X175563350Y-94912906D01*
X175477190Y-94797812D01*
X175477187Y-94797809D01*
X175362093Y-94711649D01*
X175362086Y-94711645D01*
X175227379Y-94661403D01*
X175227372Y-94661401D01*
X175167844Y-94655000D01*
X174845000Y-94655000D01*
X174845000Y-95430000D01*
X174345000Y-95430000D01*
X174345000Y-94655000D01*
X174022155Y-94655000D01*
X173962627Y-94661401D01*
X173962616Y-94661403D01*
X173875832Y-94693772D01*
X173806141Y-94698756D01*
X173789168Y-94693772D01*
X173702383Y-94661403D01*
X173702372Y-94661401D01*
X173642844Y-94655000D01*
X173320000Y-94655000D01*
X173320000Y-95430000D01*
X172820000Y-95430000D01*
X172820000Y-94655000D01*
X172497155Y-94655000D01*
X172437627Y-94661401D01*
X172437616Y-94661403D01*
X172350832Y-94693772D01*
X172281141Y-94698756D01*
X172264168Y-94693772D01*
X172177383Y-94661403D01*
X172177372Y-94661401D01*
X172117844Y-94655000D01*
X171795000Y-94655000D01*
X171795000Y-95430000D01*
X171295000Y-95430000D01*
X171295000Y-94655000D01*
X170972155Y-94655000D01*
X170912627Y-94661401D01*
X170912620Y-94661403D01*
X170777913Y-94711645D01*
X170777906Y-94711649D01*
X170662812Y-94797809D01*
X170662809Y-94797812D01*
X170576649Y-94912906D01*
X170576645Y-94912913D01*
X170526403Y-95047620D01*
X170526401Y-95047627D01*
X170520000Y-95107155D01*
X166250499Y-95107155D01*
X166250499Y-94920943D01*
X166250499Y-94447129D01*
X166250498Y-94447123D01*
X166250497Y-94447116D01*
X166244091Y-94387517D01*
X166231340Y-94353332D01*
X166226357Y-94283642D01*
X166231340Y-94266669D01*
X166244091Y-94232483D01*
X166250500Y-94172873D01*
X166250499Y-93177128D01*
X166244091Y-93117517D01*
X166231340Y-93083332D01*
X166226357Y-93013642D01*
X166231340Y-92996669D01*
X166244091Y-92962483D01*
X166250500Y-92902873D01*
X166250499Y-91959499D01*
X166270183Y-91892461D01*
X166322987Y-91846706D01*
X166374499Y-91835500D01*
X166963996Y-91835500D01*
X167075443Y-91813331D01*
X167099328Y-91808580D01*
X167192469Y-91770000D01*
X167226807Y-91755777D01*
X167226808Y-91755776D01*
X167226811Y-91755775D01*
X167341543Y-91679114D01*
X169196837Y-89823818D01*
X169258160Y-89790334D01*
X169284518Y-89787500D01*
X185400481Y-89787500D01*
X185467520Y-89807185D01*
G37*
G04 #@! TD.AperFunction*
G04 #@! TA.AperFunction,Conductor*
G36*
X204442539Y-65520185D02*
G01*
X204488294Y-65572989D01*
X204499500Y-65624500D01*
X204499500Y-119375500D01*
X204479815Y-119442539D01*
X204427011Y-119488294D01*
X204375500Y-119499500D01*
X120624500Y-119499500D01*
X120557461Y-119479815D01*
X120511706Y-119427011D01*
X120500500Y-119375500D01*
X120500500Y-115544778D01*
X133109500Y-115544778D01*
X133109500Y-115765221D01*
X133143985Y-115982952D01*
X133212103Y-116192603D01*
X133212104Y-116192606D01*
X133245350Y-116257853D01*
X133311814Y-116388294D01*
X133312187Y-116389025D01*
X133441752Y-116567358D01*
X133441756Y-116567363D01*
X133597636Y-116723243D01*
X133597641Y-116723247D01*
X133748409Y-116832785D01*
X133775978Y-116852815D01*
X133885942Y-116908845D01*
X133972393Y-116952895D01*
X133972396Y-116952896D01*
X134029218Y-116971358D01*
X134182049Y-117021015D01*
X134399778Y-117055500D01*
X134399779Y-117055500D01*
X134620221Y-117055500D01*
X134620222Y-117055500D01*
X134837951Y-117021015D01*
X135047606Y-116952895D01*
X135244022Y-116852815D01*
X135422365Y-116723242D01*
X135578242Y-116567365D01*
X135611243Y-116521943D01*
X135679682Y-116427745D01*
X135735011Y-116385079D01*
X135804625Y-116379100D01*
X135866420Y-116411705D01*
X135880318Y-116427745D01*
X135981752Y-116567358D01*
X135981756Y-116567363D01*
X136137636Y-116723243D01*
X136137641Y-116723247D01*
X136315973Y-116852812D01*
X136315975Y-116852813D01*
X136315978Y-116852815D01*
X136331793Y-116860873D01*
X136382589Y-116908845D01*
X136399499Y-116971358D01*
X136399499Y-117079054D01*
X136399498Y-117079054D01*
X136440423Y-117231785D01*
X136469358Y-117281900D01*
X136469359Y-117281904D01*
X136469360Y-117281904D01*
X136519480Y-117368716D01*
X136631284Y-117480520D01*
X136631286Y-117480521D01*
X136631290Y-117480524D01*
X136681610Y-117509576D01*
X136681615Y-117509578D01*
X136768209Y-117559574D01*
X136768210Y-117559575D01*
X136768212Y-117559575D01*
X136768215Y-117559577D01*
X136920943Y-117600501D01*
X136920946Y-117600501D01*
X137086653Y-117600501D01*
X137086669Y-117600500D01*
X183514331Y-117600500D01*
X183514347Y-117600501D01*
X183521943Y-117600501D01*
X183680054Y-117600501D01*
X183680057Y-117600501D01*
X183832785Y-117559577D01*
X183919387Y-117509577D01*
X183969716Y-117480520D01*
X184081520Y-117368716D01*
X184081520Y-117368714D01*
X184091724Y-117358511D01*
X184091728Y-117358506D01*
X184358506Y-117091728D01*
X184358511Y-117091724D01*
X184368714Y-117081520D01*
X184368716Y-117081520D01*
X184480520Y-116969716D01*
X184537547Y-116870942D01*
X184548015Y-116852812D01*
X184559574Y-116832790D01*
X184559573Y-116832790D01*
X184559577Y-116832785D01*
X184600500Y-116680058D01*
X184600500Y-116521943D01*
X184600500Y-98579765D01*
X184620185Y-98512726D01*
X184621398Y-98510874D01*
X184709390Y-98379185D01*
X184709390Y-98379184D01*
X184709394Y-98379179D01*
X184769737Y-98233497D01*
X184800500Y-98078842D01*
X184800500Y-97921158D01*
X184800500Y-97921155D01*
X184800499Y-97921153D01*
X184783834Y-97837372D01*
X184769737Y-97766503D01*
X184768983Y-97764682D01*
X184709397Y-97620827D01*
X184709390Y-97620814D01*
X184621789Y-97489711D01*
X184621786Y-97489707D01*
X184510292Y-97378213D01*
X184510288Y-97378210D01*
X184379185Y-97290609D01*
X184379172Y-97290602D01*
X184233501Y-97230264D01*
X184233489Y-97230261D01*
X184078845Y-97199500D01*
X184078842Y-97199500D01*
X183921158Y-97199500D01*
X183921157Y-97199500D01*
X183898688Y-97203969D01*
X183829097Y-97197740D01*
X183773920Y-97154876D01*
X183750677Y-97088986D01*
X183750499Y-97082351D01*
X183750499Y-97074500D01*
X183770184Y-97007461D01*
X183822988Y-96961706D01*
X183874499Y-96950500D01*
X185084903Y-96950500D01*
X185151942Y-96970185D01*
X185172584Y-96986819D01*
X186796561Y-98610796D01*
X186830046Y-98672119D01*
X186826811Y-98736794D01*
X186803985Y-98807045D01*
X186784727Y-98928638D01*
X186769500Y-99024778D01*
X186769500Y-99245222D01*
X186780153Y-99312481D01*
X186803985Y-99462952D01*
X186872103Y-99672603D01*
X186872104Y-99672606D01*
X186972187Y-99869025D01*
X187101752Y-100047358D01*
X187101756Y-100047363D01*
X187257636Y-100203243D01*
X187257641Y-100203247D01*
X187397254Y-100304682D01*
X187439920Y-100360012D01*
X187445899Y-100429625D01*
X187413293Y-100491420D01*
X187397254Y-100505318D01*
X187257641Y-100606752D01*
X187257636Y-100606756D01*
X187101756Y-100762636D01*
X187101752Y-100762641D01*
X186972187Y-100940974D01*
X186872104Y-101137393D01*
X186872103Y-101137396D01*
X186803985Y-101347047D01*
X186803985Y-101347049D01*
X186769500Y-101564778D01*
X186769500Y-101785222D01*
X186780153Y-101852481D01*
X186803985Y-102002952D01*
X186872103Y-102212603D01*
X186872104Y-102212606D01*
X186972187Y-102409025D01*
X187101752Y-102587358D01*
X187101756Y-102587363D01*
X187257636Y-102743243D01*
X187257641Y-102743247D01*
X187397254Y-102844682D01*
X187439920Y-102900012D01*
X187445899Y-102969625D01*
X187413293Y-103031420D01*
X187397254Y-103045318D01*
X187257641Y-103146752D01*
X187257636Y-103146756D01*
X187101756Y-103302636D01*
X187101752Y-103302641D01*
X186972187Y-103480974D01*
X186872104Y-103677393D01*
X186872103Y-103677396D01*
X186803985Y-103887047D01*
X186803985Y-103887049D01*
X186769500Y-104104778D01*
X186769500Y-104325222D01*
X186780153Y-104392481D01*
X186803985Y-104542952D01*
X186872103Y-104752603D01*
X186872104Y-104752606D01*
X186972187Y-104949025D01*
X187101752Y-105127358D01*
X187101756Y-105127363D01*
X187257636Y-105283243D01*
X187257641Y-105283247D01*
X187397254Y-105384682D01*
X187439920Y-105440012D01*
X187445899Y-105509625D01*
X187413293Y-105571420D01*
X187397254Y-105585318D01*
X187257641Y-105686752D01*
X187257636Y-105686756D01*
X187101756Y-105842636D01*
X187101752Y-105842641D01*
X186972187Y-106020974D01*
X186872104Y-106217393D01*
X186872103Y-106217396D01*
X186803985Y-106427047D01*
X186779415Y-106582179D01*
X186769500Y-106644778D01*
X186769500Y-106865222D01*
X186780153Y-106932482D01*
X186803985Y-107082952D01*
X186872103Y-107292603D01*
X186872104Y-107292606D01*
X186972187Y-107489025D01*
X187101752Y-107667358D01*
X187101756Y-107667363D01*
X187257636Y-107823243D01*
X187257641Y-107823247D01*
X187397254Y-107924682D01*
X187439920Y-107980012D01*
X187445899Y-108049625D01*
X187413293Y-108111420D01*
X187397254Y-108125318D01*
X187257641Y-108226752D01*
X187257636Y-108226756D01*
X187101756Y-108382636D01*
X187101752Y-108382641D01*
X186972187Y-108560974D01*
X186872104Y-108757393D01*
X186872103Y-108757396D01*
X186803985Y-108967047D01*
X186769500Y-109184778D01*
X186769500Y-109405221D01*
X186803985Y-109622952D01*
X186872103Y-109832603D01*
X186872104Y-109832606D01*
X186940122Y-109966096D01*
X186956916Y-109999056D01*
X186972187Y-110029025D01*
X187101752Y-110207358D01*
X187101756Y-110207363D01*
X187257636Y-110363243D01*
X187257641Y-110363247D01*
X187413192Y-110476260D01*
X187435978Y-110492815D01*
X187564375Y-110558237D01*
X187632393Y-110592895D01*
X187632396Y-110592896D01*
X187737221Y-110626955D01*
X187842049Y-110661015D01*
X188059778Y-110695500D01*
X188059779Y-110695500D01*
X188280221Y-110695500D01*
X188280222Y-110695500D01*
X188497951Y-110661015D01*
X188707606Y-110592895D01*
X188904022Y-110492815D01*
X189082365Y-110363242D01*
X189238242Y-110207365D01*
X189367815Y-110029022D01*
X189467895Y-109832606D01*
X189536015Y-109622951D01*
X189570500Y-109405222D01*
X189570500Y-109184778D01*
X189536015Y-108967049D01*
X189490299Y-108826347D01*
X189467896Y-108757396D01*
X189467895Y-108757393D01*
X189433237Y-108689375D01*
X189367815Y-108560978D01*
X189351260Y-108538192D01*
X189238247Y-108382641D01*
X189238243Y-108382636D01*
X189082363Y-108226756D01*
X189082358Y-108226752D01*
X188942745Y-108125318D01*
X188900079Y-108069989D01*
X188894100Y-108000375D01*
X188926705Y-107938580D01*
X188942745Y-107924682D01*
X189082358Y-107823247D01*
X189082356Y-107823247D01*
X189082365Y-107823242D01*
X189238242Y-107667365D01*
X189367815Y-107489022D01*
X189467895Y-107292606D01*
X189536015Y-107082951D01*
X189570500Y-106865222D01*
X189570500Y-106644778D01*
X189536015Y-106427049D01*
X189467895Y-106217394D01*
X189467895Y-106217393D01*
X189433237Y-106149375D01*
X189367815Y-106020978D01*
X189263308Y-105877135D01*
X189238247Y-105842641D01*
X189238243Y-105842636D01*
X189082363Y-105686756D01*
X189082358Y-105686752D01*
X188942745Y-105585318D01*
X188900079Y-105529989D01*
X188894100Y-105460375D01*
X188926705Y-105398580D01*
X188942745Y-105384682D01*
X189082358Y-105283247D01*
X189082356Y-105283247D01*
X189082365Y-105283242D01*
X189238242Y-105127365D01*
X189367815Y-104949022D01*
X189467895Y-104752606D01*
X189536015Y-104542951D01*
X189570500Y-104325222D01*
X189570500Y-104104778D01*
X189536015Y-103887049D01*
X189467895Y-103677394D01*
X189467895Y-103677393D01*
X189433237Y-103609375D01*
X189367815Y-103480978D01*
X189263308Y-103337135D01*
X189238247Y-103302641D01*
X189238243Y-103302636D01*
X189082363Y-103146756D01*
X189082358Y-103146752D01*
X188942745Y-103045318D01*
X188900079Y-102989989D01*
X188894100Y-102920375D01*
X188926705Y-102858580D01*
X188942745Y-102844682D01*
X189082358Y-102743247D01*
X189082356Y-102743247D01*
X189082365Y-102743242D01*
X189238242Y-102587365D01*
X189367815Y-102409022D01*
X189467895Y-102212606D01*
X189536015Y-102002951D01*
X189570500Y-101785222D01*
X189570500Y-101564778D01*
X189536015Y-101347049D01*
X189467895Y-101137394D01*
X189467895Y-101137393D01*
X189433237Y-101069375D01*
X189367815Y-100940978D01*
X189263308Y-100797135D01*
X189238247Y-100762641D01*
X189238243Y-100762636D01*
X189082363Y-100606756D01*
X189082358Y-100606752D01*
X188942745Y-100505318D01*
X188900079Y-100449989D01*
X188894100Y-100380375D01*
X188926705Y-100318580D01*
X188942745Y-100304682D01*
X189082358Y-100203247D01*
X189082356Y-100203247D01*
X189082365Y-100203242D01*
X189238242Y-100047365D01*
X189367815Y-99869022D01*
X189467895Y-99672606D01*
X189536015Y-99462951D01*
X189570500Y-99245222D01*
X189570500Y-99024778D01*
X189536015Y-98807049D01*
X189467895Y-98597394D01*
X189467895Y-98597393D01*
X189408079Y-98480000D01*
X189367815Y-98400978D01*
X189263308Y-98257135D01*
X189238247Y-98222641D01*
X189238243Y-98222636D01*
X189082363Y-98066756D01*
X189082358Y-98066752D01*
X188942745Y-97965318D01*
X188900079Y-97909989D01*
X188894100Y-97840375D01*
X188926705Y-97778580D01*
X188942745Y-97764682D01*
X189082358Y-97663247D01*
X189082356Y-97663247D01*
X189082365Y-97663242D01*
X189238242Y-97507365D01*
X189367815Y-97329022D01*
X189467895Y-97132606D01*
X189536015Y-96922951D01*
X189570500Y-96705222D01*
X189570500Y-96484778D01*
X189536015Y-96267049D01*
X189467895Y-96057394D01*
X189467895Y-96057393D01*
X189411968Y-95947633D01*
X189367815Y-95860978D01*
X189282939Y-95744155D01*
X189238247Y-95682641D01*
X189238243Y-95682636D01*
X189082363Y-95526756D01*
X189082358Y-95526752D01*
X188942319Y-95425008D01*
X188899653Y-95369678D01*
X188893674Y-95300065D01*
X188926279Y-95238270D01*
X188942319Y-95224372D01*
X188967513Y-95206066D01*
X188967514Y-95206066D01*
X188216446Y-94455000D01*
X188222661Y-94455000D01*
X188324394Y-94427741D01*
X188415606Y-94375080D01*
X188490080Y-94300606D01*
X188542741Y-94209394D01*
X188570000Y-94107661D01*
X188570000Y-94101448D01*
X189321066Y-94852514D01*
X189321066Y-94852513D01*
X189367386Y-94788760D01*
X189467432Y-94592410D01*
X189535526Y-94382835D01*
X189570000Y-94165181D01*
X189570000Y-93944818D01*
X189535526Y-93727164D01*
X189467432Y-93517589D01*
X189367388Y-93321243D01*
X189321066Y-93257485D01*
X189321065Y-93257485D01*
X188570000Y-94008551D01*
X188570000Y-94002339D01*
X188542741Y-93900606D01*
X188490080Y-93809394D01*
X188415606Y-93734920D01*
X188324394Y-93682259D01*
X188222661Y-93655000D01*
X188216445Y-93655000D01*
X188967513Y-92903932D01*
X188942319Y-92885628D01*
X188899653Y-92830298D01*
X188893674Y-92760685D01*
X188926279Y-92698889D01*
X188942313Y-92684994D01*
X189082365Y-92583242D01*
X189238242Y-92427365D01*
X189367815Y-92249022D01*
X189467895Y-92052606D01*
X189536015Y-91842951D01*
X189570500Y-91625222D01*
X189570500Y-91404778D01*
X189536015Y-91187049D01*
X189467895Y-90977394D01*
X189467895Y-90977393D01*
X189433237Y-90909375D01*
X189367815Y-90780978D01*
X189263308Y-90637135D01*
X189238247Y-90602641D01*
X189238243Y-90602636D01*
X189082363Y-90446756D01*
X189082358Y-90446752D01*
X188904025Y-90317187D01*
X188904024Y-90317186D01*
X188904022Y-90317185D01*
X188841096Y-90285122D01*
X188707606Y-90217104D01*
X188707603Y-90217103D01*
X188497952Y-90148985D01*
X188389086Y-90131742D01*
X188280222Y-90114500D01*
X188059778Y-90114500D01*
X187974877Y-90127946D01*
X187863527Y-90145583D01*
X187794233Y-90136628D01*
X187756448Y-90110791D01*
X186188546Y-88542888D01*
X186188545Y-88542887D01*
X186187371Y-88542103D01*
X186186894Y-88541532D01*
X186183835Y-88539022D01*
X186184311Y-88538441D01*
X186142566Y-88488491D01*
X186133857Y-88419166D01*
X186164011Y-88356139D01*
X186223454Y-88319419D01*
X186256261Y-88315000D01*
X197750000Y-88315000D01*
X197750000Y-67375000D01*
X149750000Y-67375000D01*
X149750000Y-88315000D01*
X168428740Y-88315000D01*
X168495779Y-88334685D01*
X168541534Y-88387489D01*
X168551478Y-88456647D01*
X168522453Y-88520203D01*
X168501146Y-88539000D01*
X168501165Y-88539023D01*
X168500530Y-88539543D01*
X168497633Y-88542100D01*
X168496462Y-88542882D01*
X168496453Y-88542889D01*
X166641162Y-90398181D01*
X166614234Y-90412884D01*
X166588416Y-90429477D01*
X166582215Y-90430368D01*
X166579839Y-90431666D01*
X166553481Y-90434500D01*
X166374000Y-90434500D01*
X166306961Y-90414815D01*
X166261206Y-90362011D01*
X166250000Y-90310500D01*
X166250000Y-90115000D01*
X163750000Y-90115000D01*
X163750000Y-90310500D01*
X163730315Y-90377539D01*
X163677511Y-90423294D01*
X163626000Y-90434500D01*
X159796004Y-90434500D01*
X159660677Y-90461418D01*
X159660667Y-90461421D01*
X159533192Y-90514222D01*
X159418454Y-90590887D01*
X159418453Y-90590888D01*
X158604565Y-91404778D01*
X158553457Y-91455886D01*
X158455886Y-91553457D01*
X158379222Y-91668192D01*
X158326421Y-91795667D01*
X158326418Y-91795677D01*
X158299500Y-91931003D01*
X158299500Y-91931006D01*
X158299500Y-92068994D01*
X158299500Y-92068996D01*
X158299499Y-92068996D01*
X158326418Y-92204322D01*
X158326420Y-92204328D01*
X158347561Y-92255366D01*
X158357000Y-92302819D01*
X158357000Y-106582179D01*
X158347562Y-106629629D01*
X158326420Y-106680672D01*
X158326419Y-106680675D01*
X158326419Y-106680676D01*
X158326418Y-106680677D01*
X158299500Y-106816003D01*
X158299500Y-106816006D01*
X158299500Y-106953994D01*
X158299500Y-106953996D01*
X158299499Y-106953996D01*
X158326418Y-107089322D01*
X158326421Y-107089332D01*
X158379222Y-107216807D01*
X158451847Y-107325499D01*
X158455886Y-107331543D01*
X158513385Y-107389042D01*
X163847162Y-112722819D01*
X163880647Y-112784142D01*
X163875663Y-112853834D01*
X163833791Y-112909767D01*
X163768327Y-112934184D01*
X163759481Y-112934500D01*
X136461004Y-112934500D01*
X136358175Y-112954953D01*
X136358176Y-112954954D01*
X136325675Y-112961418D01*
X136325660Y-112961423D01*
X136272865Y-112983292D01*
X136198191Y-113014223D01*
X136157693Y-113041284D01*
X136157692Y-113041284D01*
X136083461Y-113090883D01*
X136083453Y-113090889D01*
X134923550Y-114250791D01*
X134862227Y-114284276D01*
X134816471Y-114285582D01*
X134620222Y-114254500D01*
X134399778Y-114254500D01*
X134327201Y-114265995D01*
X134182047Y-114288985D01*
X133972396Y-114357103D01*
X133972393Y-114357104D01*
X133775974Y-114457187D01*
X133597641Y-114586752D01*
X133597636Y-114586756D01*
X133441756Y-114742636D01*
X133441752Y-114742641D01*
X133312187Y-114920974D01*
X133212104Y-115117393D01*
X133212103Y-115117396D01*
X133143985Y-115327047D01*
X133109500Y-115544778D01*
X120500500Y-115544778D01*
X120500500Y-89367155D01*
X163750000Y-89367155D01*
X163750000Y-89615000D01*
X164750000Y-89615000D01*
X165250000Y-89615000D01*
X166250000Y-89615000D01*
X166250000Y-89367172D01*
X166249999Y-89367155D01*
X166243598Y-89307627D01*
X166243596Y-89307620D01*
X166193354Y-89172913D01*
X166193350Y-89172906D01*
X166107190Y-89057812D01*
X166107187Y-89057809D01*
X165992093Y-88971649D01*
X165992086Y-88971645D01*
X165857379Y-88921403D01*
X165857372Y-88921401D01*
X165797844Y-88915000D01*
X165250000Y-88915000D01*
X165250000Y-89615000D01*
X164750000Y-89615000D01*
X164750000Y-88915000D01*
X164202155Y-88915000D01*
X164142627Y-88921401D01*
X164142620Y-88921403D01*
X164007913Y-88971645D01*
X164007906Y-88971649D01*
X163892812Y-89057809D01*
X163892809Y-89057812D01*
X163806649Y-89172906D01*
X163806645Y-89172913D01*
X163756403Y-89307620D01*
X163756401Y-89307627D01*
X163750000Y-89367155D01*
X120500500Y-89367155D01*
X120500500Y-65624500D01*
X120520185Y-65557461D01*
X120572989Y-65511706D01*
X120624500Y-65500500D01*
X204375500Y-65500500D01*
X204442539Y-65520185D01*
G37*
G04 #@! TD.AperFunction*
M02*
