G04 #@! TF.GenerationSoftware,KiCad,Pcbnew,9.0.6*
G04 #@! TF.CreationDate,2025-12-16T20:08:44+05:30*
G04 #@! TF.ProjectId,rumination,72756d69-6e61-4746-996f-6e2e6b696361,rev?*
G04 #@! TF.SameCoordinates,Original*
G04 #@! TF.FileFunction,Legend,Top*
G04 #@! TF.FilePolarity,Positive*
%FSLAX46Y46*%
G04 Gerber Fmt 4.6, Leading zero omitted, Abs format (unit mm)*
G04 Created by KiCad (PCBNEW 9.0.6) date 2025-12-16 20:08:44*
%MOMM*%
%LPD*%
G01*
G04 APERTURE LIST*
%ADD10C,0.152400*%
%ADD11C,0.150000*%
%ADD12C,0.100000*%
%ADD13C,0.120000*%
G04 APERTURE END LIST*
D10*
X187177672Y-66079803D02*
X187448605Y-66892603D01*
X187448605Y-66892603D02*
X187719539Y-66079803D01*
X187990472Y-66466851D02*
X188261406Y-66466851D01*
X188377520Y-66892603D02*
X187990472Y-66892603D01*
X187990472Y-66892603D02*
X187990472Y-66079803D01*
X187990472Y-66079803D02*
X188377520Y-66079803D01*
X189190319Y-66892603D02*
X188919386Y-66505556D01*
X188725862Y-66892603D02*
X188725862Y-66079803D01*
X188725862Y-66079803D02*
X189035500Y-66079803D01*
X189035500Y-66079803D02*
X189112910Y-66118508D01*
X189112910Y-66118508D02*
X189151615Y-66157213D01*
X189151615Y-66157213D02*
X189190319Y-66234622D01*
X189190319Y-66234622D02*
X189190319Y-66350737D01*
X189190319Y-66350737D02*
X189151615Y-66428146D01*
X189151615Y-66428146D02*
X189112910Y-66466851D01*
X189112910Y-66466851D02*
X189035500Y-66505556D01*
X189035500Y-66505556D02*
X188725862Y-66505556D01*
X189499958Y-66853899D02*
X189616072Y-66892603D01*
X189616072Y-66892603D02*
X189809596Y-66892603D01*
X189809596Y-66892603D02*
X189887005Y-66853899D01*
X189887005Y-66853899D02*
X189925710Y-66815194D01*
X189925710Y-66815194D02*
X189964415Y-66737784D01*
X189964415Y-66737784D02*
X189964415Y-66660375D01*
X189964415Y-66660375D02*
X189925710Y-66582965D01*
X189925710Y-66582965D02*
X189887005Y-66544260D01*
X189887005Y-66544260D02*
X189809596Y-66505556D01*
X189809596Y-66505556D02*
X189654777Y-66466851D01*
X189654777Y-66466851D02*
X189577367Y-66428146D01*
X189577367Y-66428146D02*
X189538662Y-66389441D01*
X189538662Y-66389441D02*
X189499958Y-66312032D01*
X189499958Y-66312032D02*
X189499958Y-66234622D01*
X189499958Y-66234622D02*
X189538662Y-66157213D01*
X189538662Y-66157213D02*
X189577367Y-66118508D01*
X189577367Y-66118508D02*
X189654777Y-66079803D01*
X189654777Y-66079803D02*
X189848300Y-66079803D01*
X189848300Y-66079803D02*
X189964415Y-66118508D01*
X190312757Y-66892603D02*
X190312757Y-66079803D01*
X190854624Y-66079803D02*
X191009443Y-66079803D01*
X191009443Y-66079803D02*
X191086853Y-66118508D01*
X191086853Y-66118508D02*
X191164262Y-66195918D01*
X191164262Y-66195918D02*
X191202967Y-66350737D01*
X191202967Y-66350737D02*
X191202967Y-66621670D01*
X191202967Y-66621670D02*
X191164262Y-66776489D01*
X191164262Y-66776489D02*
X191086853Y-66853899D01*
X191086853Y-66853899D02*
X191009443Y-66892603D01*
X191009443Y-66892603D02*
X190854624Y-66892603D01*
X190854624Y-66892603D02*
X190777215Y-66853899D01*
X190777215Y-66853899D02*
X190699805Y-66776489D01*
X190699805Y-66776489D02*
X190661101Y-66621670D01*
X190661101Y-66621670D02*
X190661101Y-66350737D01*
X190661101Y-66350737D02*
X190699805Y-66195918D01*
X190699805Y-66195918D02*
X190777215Y-66118508D01*
X190777215Y-66118508D02*
X190854624Y-66079803D01*
X191551310Y-66892603D02*
X191551310Y-66079803D01*
X191551310Y-66079803D02*
X192015767Y-66892603D01*
X192015767Y-66892603D02*
X192015767Y-66079803D01*
X193447844Y-66892603D02*
X192983387Y-66892603D01*
X193215615Y-66892603D02*
X193215615Y-66079803D01*
X193215615Y-66079803D02*
X193138206Y-66195918D01*
X193138206Y-66195918D02*
X193060796Y-66273327D01*
X193060796Y-66273327D02*
X192983387Y-66312032D01*
X193796186Y-66815194D02*
X193834891Y-66853899D01*
X193834891Y-66853899D02*
X193796186Y-66892603D01*
X193796186Y-66892603D02*
X193757482Y-66853899D01*
X193757482Y-66853899D02*
X193796186Y-66815194D01*
X193796186Y-66815194D02*
X193796186Y-66892603D01*
X194338053Y-66079803D02*
X194415463Y-66079803D01*
X194415463Y-66079803D02*
X194492872Y-66118508D01*
X194492872Y-66118508D02*
X194531577Y-66157213D01*
X194531577Y-66157213D02*
X194570282Y-66234622D01*
X194570282Y-66234622D02*
X194608987Y-66389441D01*
X194608987Y-66389441D02*
X194608987Y-66582965D01*
X194608987Y-66582965D02*
X194570282Y-66737784D01*
X194570282Y-66737784D02*
X194531577Y-66815194D01*
X194531577Y-66815194D02*
X194492872Y-66853899D01*
X194492872Y-66853899D02*
X194415463Y-66892603D01*
X194415463Y-66892603D02*
X194338053Y-66892603D01*
X194338053Y-66892603D02*
X194260644Y-66853899D01*
X194260644Y-66853899D02*
X194221939Y-66815194D01*
X194221939Y-66815194D02*
X194183234Y-66737784D01*
X194183234Y-66737784D02*
X194144530Y-66582965D01*
X194144530Y-66582965D02*
X194144530Y-66389441D01*
X194144530Y-66389441D02*
X194183234Y-66234622D01*
X194183234Y-66234622D02*
X194221939Y-66157213D01*
X194221939Y-66157213D02*
X194260644Y-66118508D01*
X194260644Y-66118508D02*
X194338053Y-66079803D01*
X149758243Y-66815194D02*
X149719539Y-66853899D01*
X149719539Y-66853899D02*
X149603424Y-66892603D01*
X149603424Y-66892603D02*
X149526015Y-66892603D01*
X149526015Y-66892603D02*
X149409901Y-66853899D01*
X149409901Y-66853899D02*
X149332491Y-66776489D01*
X149332491Y-66776489D02*
X149293786Y-66699079D01*
X149293786Y-66699079D02*
X149255082Y-66544260D01*
X149255082Y-66544260D02*
X149255082Y-66428146D01*
X149255082Y-66428146D02*
X149293786Y-66273327D01*
X149293786Y-66273327D02*
X149332491Y-66195918D01*
X149332491Y-66195918D02*
X149409901Y-66118508D01*
X149409901Y-66118508D02*
X149526015Y-66079803D01*
X149526015Y-66079803D02*
X149603424Y-66079803D01*
X149603424Y-66079803D02*
X149719539Y-66118508D01*
X149719539Y-66118508D02*
X149758243Y-66157213D01*
X150067882Y-66660375D02*
X150454929Y-66660375D01*
X149990472Y-66892603D02*
X150261405Y-66079803D01*
X150261405Y-66079803D02*
X150532339Y-66892603D01*
X150687158Y-66079803D02*
X151151615Y-66079803D01*
X150919387Y-66892603D02*
X150919387Y-66079803D01*
X151306434Y-66079803D02*
X151770891Y-66079803D01*
X151538663Y-66892603D02*
X151538663Y-66079803D01*
X152428872Y-66892603D02*
X152041824Y-66892603D01*
X152041824Y-66892603D02*
X152041824Y-66079803D01*
X152699805Y-66466851D02*
X152970739Y-66466851D01*
X153086853Y-66892603D02*
X152699805Y-66892603D01*
X152699805Y-66892603D02*
X152699805Y-66079803D01*
X152699805Y-66079803D02*
X153086853Y-66079803D01*
X153241672Y-66970013D02*
X153860948Y-66970013D01*
X154054471Y-66892603D02*
X154054471Y-66079803D01*
X154054471Y-66079803D02*
X154325405Y-66660375D01*
X154325405Y-66660375D02*
X154596338Y-66079803D01*
X154596338Y-66079803D02*
X154596338Y-66892603D01*
X155138204Y-66079803D02*
X155293023Y-66079803D01*
X155293023Y-66079803D02*
X155370433Y-66118508D01*
X155370433Y-66118508D02*
X155447842Y-66195918D01*
X155447842Y-66195918D02*
X155486547Y-66350737D01*
X155486547Y-66350737D02*
X155486547Y-66621670D01*
X155486547Y-66621670D02*
X155447842Y-66776489D01*
X155447842Y-66776489D02*
X155370433Y-66853899D01*
X155370433Y-66853899D02*
X155293023Y-66892603D01*
X155293023Y-66892603D02*
X155138204Y-66892603D01*
X155138204Y-66892603D02*
X155060795Y-66853899D01*
X155060795Y-66853899D02*
X154983385Y-66776489D01*
X154983385Y-66776489D02*
X154944681Y-66621670D01*
X154944681Y-66621670D02*
X154944681Y-66350737D01*
X154944681Y-66350737D02*
X154983385Y-66195918D01*
X154983385Y-66195918D02*
X155060795Y-66118508D01*
X155060795Y-66118508D02*
X155138204Y-66079803D01*
X155834890Y-66892603D02*
X155834890Y-66079803D01*
X155834890Y-66079803D02*
X156299347Y-66892603D01*
X156299347Y-66892603D02*
X156299347Y-66079803D01*
X156686395Y-66892603D02*
X156686395Y-66079803D01*
X156957329Y-66079803D02*
X157421786Y-66079803D01*
X157189558Y-66892603D02*
X157189558Y-66079803D01*
X157847538Y-66079803D02*
X158002357Y-66079803D01*
X158002357Y-66079803D02*
X158079767Y-66118508D01*
X158079767Y-66118508D02*
X158157176Y-66195918D01*
X158157176Y-66195918D02*
X158195881Y-66350737D01*
X158195881Y-66350737D02*
X158195881Y-66621670D01*
X158195881Y-66621670D02*
X158157176Y-66776489D01*
X158157176Y-66776489D02*
X158079767Y-66853899D01*
X158079767Y-66853899D02*
X158002357Y-66892603D01*
X158002357Y-66892603D02*
X157847538Y-66892603D01*
X157847538Y-66892603D02*
X157770129Y-66853899D01*
X157770129Y-66853899D02*
X157692719Y-66776489D01*
X157692719Y-66776489D02*
X157654015Y-66621670D01*
X157654015Y-66621670D02*
X157654015Y-66350737D01*
X157654015Y-66350737D02*
X157692719Y-66195918D01*
X157692719Y-66195918D02*
X157770129Y-66118508D01*
X157770129Y-66118508D02*
X157847538Y-66079803D01*
X159008681Y-66892603D02*
X158737748Y-66505556D01*
X158544224Y-66892603D02*
X158544224Y-66079803D01*
X158544224Y-66079803D02*
X158853862Y-66079803D01*
X158853862Y-66079803D02*
X158931272Y-66118508D01*
X158931272Y-66118508D02*
X158969977Y-66157213D01*
X158969977Y-66157213D02*
X159008681Y-66234622D01*
X159008681Y-66234622D02*
X159008681Y-66350737D01*
X159008681Y-66350737D02*
X158969977Y-66428146D01*
X158969977Y-66428146D02*
X158931272Y-66466851D01*
X158931272Y-66466851D02*
X158853862Y-66505556D01*
X158853862Y-66505556D02*
X158544224Y-66505556D01*
X159357024Y-66892603D02*
X159357024Y-66079803D01*
X159744072Y-66892603D02*
X159744072Y-66079803D01*
X159744072Y-66079803D02*
X160208529Y-66892603D01*
X160208529Y-66892603D02*
X160208529Y-66079803D01*
X161021330Y-66118508D02*
X160943920Y-66079803D01*
X160943920Y-66079803D02*
X160827806Y-66079803D01*
X160827806Y-66079803D02*
X160711692Y-66118508D01*
X160711692Y-66118508D02*
X160634282Y-66195918D01*
X160634282Y-66195918D02*
X160595577Y-66273327D01*
X160595577Y-66273327D02*
X160556873Y-66428146D01*
X160556873Y-66428146D02*
X160556873Y-66544260D01*
X160556873Y-66544260D02*
X160595577Y-66699079D01*
X160595577Y-66699079D02*
X160634282Y-66776489D01*
X160634282Y-66776489D02*
X160711692Y-66853899D01*
X160711692Y-66853899D02*
X160827806Y-66892603D01*
X160827806Y-66892603D02*
X160905215Y-66892603D01*
X160905215Y-66892603D02*
X161021330Y-66853899D01*
X161021330Y-66853899D02*
X161060034Y-66815194D01*
X161060034Y-66815194D02*
X161060034Y-66544260D01*
X161060034Y-66544260D02*
X160905215Y-66544260D01*
X161214854Y-66970013D02*
X161834130Y-66970013D01*
X161988949Y-66853899D02*
X162105063Y-66892603D01*
X162105063Y-66892603D02*
X162298587Y-66892603D01*
X162298587Y-66892603D02*
X162375996Y-66853899D01*
X162375996Y-66853899D02*
X162414701Y-66815194D01*
X162414701Y-66815194D02*
X162453406Y-66737784D01*
X162453406Y-66737784D02*
X162453406Y-66660375D01*
X162453406Y-66660375D02*
X162414701Y-66582965D01*
X162414701Y-66582965D02*
X162375996Y-66544260D01*
X162375996Y-66544260D02*
X162298587Y-66505556D01*
X162298587Y-66505556D02*
X162143768Y-66466851D01*
X162143768Y-66466851D02*
X162066358Y-66428146D01*
X162066358Y-66428146D02*
X162027653Y-66389441D01*
X162027653Y-66389441D02*
X161988949Y-66312032D01*
X161988949Y-66312032D02*
X161988949Y-66234622D01*
X161988949Y-66234622D02*
X162027653Y-66157213D01*
X162027653Y-66157213D02*
X162066358Y-66118508D01*
X162066358Y-66118508D02*
X162143768Y-66079803D01*
X162143768Y-66079803D02*
X162337291Y-66079803D01*
X162337291Y-66079803D02*
X162453406Y-66118508D01*
X162956567Y-66505556D02*
X162956567Y-66892603D01*
X162685634Y-66079803D02*
X162956567Y-66505556D01*
X162956567Y-66505556D02*
X163227501Y-66079803D01*
X163459730Y-66853899D02*
X163575844Y-66892603D01*
X163575844Y-66892603D02*
X163769368Y-66892603D01*
X163769368Y-66892603D02*
X163846777Y-66853899D01*
X163846777Y-66853899D02*
X163885482Y-66815194D01*
X163885482Y-66815194D02*
X163924187Y-66737784D01*
X163924187Y-66737784D02*
X163924187Y-66660375D01*
X163924187Y-66660375D02*
X163885482Y-66582965D01*
X163885482Y-66582965D02*
X163846777Y-66544260D01*
X163846777Y-66544260D02*
X163769368Y-66505556D01*
X163769368Y-66505556D02*
X163614549Y-66466851D01*
X163614549Y-66466851D02*
X163537139Y-66428146D01*
X163537139Y-66428146D02*
X163498434Y-66389441D01*
X163498434Y-66389441D02*
X163459730Y-66312032D01*
X163459730Y-66312032D02*
X163459730Y-66234622D01*
X163459730Y-66234622D02*
X163498434Y-66157213D01*
X163498434Y-66157213D02*
X163537139Y-66118508D01*
X163537139Y-66118508D02*
X163614549Y-66079803D01*
X163614549Y-66079803D02*
X163808072Y-66079803D01*
X163808072Y-66079803D02*
X163924187Y-66118508D01*
X164504758Y-67202241D02*
X164466053Y-67163537D01*
X164466053Y-67163537D02*
X164388644Y-67047422D01*
X164388644Y-67047422D02*
X164349939Y-66970013D01*
X164349939Y-66970013D02*
X164311234Y-66853899D01*
X164311234Y-66853899D02*
X164272529Y-66660375D01*
X164272529Y-66660375D02*
X164272529Y-66505556D01*
X164272529Y-66505556D02*
X164311234Y-66312032D01*
X164311234Y-66312032D02*
X164349939Y-66195918D01*
X164349939Y-66195918D02*
X164388644Y-66118508D01*
X164388644Y-66118508D02*
X164466053Y-66002394D01*
X164466053Y-66002394D02*
X164504758Y-65963689D01*
X165278853Y-66892603D02*
X165007920Y-66505556D01*
X164814396Y-66892603D02*
X164814396Y-66079803D01*
X164814396Y-66079803D02*
X165124034Y-66079803D01*
X165124034Y-66079803D02*
X165201444Y-66118508D01*
X165201444Y-66118508D02*
X165240149Y-66157213D01*
X165240149Y-66157213D02*
X165278853Y-66234622D01*
X165278853Y-66234622D02*
X165278853Y-66350737D01*
X165278853Y-66350737D02*
X165240149Y-66428146D01*
X165240149Y-66428146D02*
X165201444Y-66466851D01*
X165201444Y-66466851D02*
X165124034Y-66505556D01*
X165124034Y-66505556D02*
X164814396Y-66505556D01*
X165627196Y-66079803D02*
X165627196Y-66737784D01*
X165627196Y-66737784D02*
X165665901Y-66815194D01*
X165665901Y-66815194D02*
X165704606Y-66853899D01*
X165704606Y-66853899D02*
X165782015Y-66892603D01*
X165782015Y-66892603D02*
X165936834Y-66892603D01*
X165936834Y-66892603D02*
X166014244Y-66853899D01*
X166014244Y-66853899D02*
X166052949Y-66815194D01*
X166052949Y-66815194D02*
X166091653Y-66737784D01*
X166091653Y-66737784D02*
X166091653Y-66079803D01*
X166478701Y-66892603D02*
X166478701Y-66079803D01*
X166478701Y-66079803D02*
X166749635Y-66660375D01*
X166749635Y-66660375D02*
X167020568Y-66079803D01*
X167020568Y-66079803D02*
X167020568Y-66892603D01*
X167407615Y-66892603D02*
X167407615Y-66079803D01*
X167794663Y-66892603D02*
X167794663Y-66079803D01*
X167794663Y-66079803D02*
X168259120Y-66892603D01*
X168259120Y-66892603D02*
X168259120Y-66079803D01*
X168607464Y-66660375D02*
X168994511Y-66660375D01*
X168530054Y-66892603D02*
X168800987Y-66079803D01*
X168800987Y-66079803D02*
X169071921Y-66892603D01*
X169226740Y-66079803D02*
X169691197Y-66079803D01*
X169458969Y-66892603D02*
X169458969Y-66079803D01*
X169962130Y-66892603D02*
X169962130Y-66079803D01*
X170503997Y-66079803D02*
X170658816Y-66079803D01*
X170658816Y-66079803D02*
X170736226Y-66118508D01*
X170736226Y-66118508D02*
X170813635Y-66195918D01*
X170813635Y-66195918D02*
X170852340Y-66350737D01*
X170852340Y-66350737D02*
X170852340Y-66621670D01*
X170852340Y-66621670D02*
X170813635Y-66776489D01*
X170813635Y-66776489D02*
X170736226Y-66853899D01*
X170736226Y-66853899D02*
X170658816Y-66892603D01*
X170658816Y-66892603D02*
X170503997Y-66892603D01*
X170503997Y-66892603D02*
X170426588Y-66853899D01*
X170426588Y-66853899D02*
X170349178Y-66776489D01*
X170349178Y-66776489D02*
X170310474Y-66621670D01*
X170310474Y-66621670D02*
X170310474Y-66350737D01*
X170310474Y-66350737D02*
X170349178Y-66195918D01*
X170349178Y-66195918D02*
X170426588Y-66118508D01*
X170426588Y-66118508D02*
X170503997Y-66079803D01*
X171200683Y-66892603D02*
X171200683Y-66079803D01*
X171200683Y-66079803D02*
X171665140Y-66892603D01*
X171665140Y-66892603D02*
X171665140Y-66079803D01*
X173135921Y-66815194D02*
X173097217Y-66853899D01*
X173097217Y-66853899D02*
X172981102Y-66892603D01*
X172981102Y-66892603D02*
X172903693Y-66892603D01*
X172903693Y-66892603D02*
X172787579Y-66853899D01*
X172787579Y-66853899D02*
X172710169Y-66776489D01*
X172710169Y-66776489D02*
X172671464Y-66699079D01*
X172671464Y-66699079D02*
X172632760Y-66544260D01*
X172632760Y-66544260D02*
X172632760Y-66428146D01*
X172632760Y-66428146D02*
X172671464Y-66273327D01*
X172671464Y-66273327D02*
X172710169Y-66195918D01*
X172710169Y-66195918D02*
X172787579Y-66118508D01*
X172787579Y-66118508D02*
X172903693Y-66079803D01*
X172903693Y-66079803D02*
X172981102Y-66079803D01*
X172981102Y-66079803D02*
X173097217Y-66118508D01*
X173097217Y-66118508D02*
X173135921Y-66157213D01*
X173639083Y-66079803D02*
X173793902Y-66079803D01*
X173793902Y-66079803D02*
X173871312Y-66118508D01*
X173871312Y-66118508D02*
X173948721Y-66195918D01*
X173948721Y-66195918D02*
X173987426Y-66350737D01*
X173987426Y-66350737D02*
X173987426Y-66621670D01*
X173987426Y-66621670D02*
X173948721Y-66776489D01*
X173948721Y-66776489D02*
X173871312Y-66853899D01*
X173871312Y-66853899D02*
X173793902Y-66892603D01*
X173793902Y-66892603D02*
X173639083Y-66892603D01*
X173639083Y-66892603D02*
X173561674Y-66853899D01*
X173561674Y-66853899D02*
X173484264Y-66776489D01*
X173484264Y-66776489D02*
X173445560Y-66621670D01*
X173445560Y-66621670D02*
X173445560Y-66350737D01*
X173445560Y-66350737D02*
X173484264Y-66195918D01*
X173484264Y-66195918D02*
X173561674Y-66118508D01*
X173561674Y-66118508D02*
X173639083Y-66079803D01*
X174335769Y-66079803D02*
X174335769Y-66737784D01*
X174335769Y-66737784D02*
X174374474Y-66815194D01*
X174374474Y-66815194D02*
X174413179Y-66853899D01*
X174413179Y-66853899D02*
X174490588Y-66892603D01*
X174490588Y-66892603D02*
X174645407Y-66892603D01*
X174645407Y-66892603D02*
X174722817Y-66853899D01*
X174722817Y-66853899D02*
X174761522Y-66815194D01*
X174761522Y-66815194D02*
X174800226Y-66737784D01*
X174800226Y-66737784D02*
X174800226Y-66079803D01*
X175187274Y-66892603D02*
X175187274Y-66079803D01*
X175187274Y-66079803D02*
X175651731Y-66892603D01*
X175651731Y-66892603D02*
X175651731Y-66079803D01*
X175922665Y-66079803D02*
X176387122Y-66079803D01*
X176154894Y-66892603D02*
X176154894Y-66079803D01*
X176658055Y-66466851D02*
X176928989Y-66466851D01*
X177045103Y-66892603D02*
X176658055Y-66892603D01*
X176658055Y-66892603D02*
X176658055Y-66079803D01*
X176658055Y-66079803D02*
X177045103Y-66079803D01*
X177857902Y-66892603D02*
X177586969Y-66505556D01*
X177393445Y-66892603D02*
X177393445Y-66079803D01*
X177393445Y-66079803D02*
X177703083Y-66079803D01*
X177703083Y-66079803D02*
X177780493Y-66118508D01*
X177780493Y-66118508D02*
X177819198Y-66157213D01*
X177819198Y-66157213D02*
X177857902Y-66234622D01*
X177857902Y-66234622D02*
X177857902Y-66350737D01*
X177857902Y-66350737D02*
X177819198Y-66428146D01*
X177819198Y-66428146D02*
X177780493Y-66466851D01*
X177780493Y-66466851D02*
X177703083Y-66505556D01*
X177703083Y-66505556D02*
X177393445Y-66505556D01*
X178206245Y-66582965D02*
X178825522Y-66582965D01*
X178515883Y-66892603D02*
X178515883Y-66273327D01*
X179638322Y-66118508D02*
X179560912Y-66079803D01*
X179560912Y-66079803D02*
X179444798Y-66079803D01*
X179444798Y-66079803D02*
X179328684Y-66118508D01*
X179328684Y-66118508D02*
X179251274Y-66195918D01*
X179251274Y-66195918D02*
X179212569Y-66273327D01*
X179212569Y-66273327D02*
X179173865Y-66428146D01*
X179173865Y-66428146D02*
X179173865Y-66544260D01*
X179173865Y-66544260D02*
X179212569Y-66699079D01*
X179212569Y-66699079D02*
X179251274Y-66776489D01*
X179251274Y-66776489D02*
X179328684Y-66853899D01*
X179328684Y-66853899D02*
X179444798Y-66892603D01*
X179444798Y-66892603D02*
X179522207Y-66892603D01*
X179522207Y-66892603D02*
X179638322Y-66853899D01*
X179638322Y-66853899D02*
X179677026Y-66815194D01*
X179677026Y-66815194D02*
X179677026Y-66544260D01*
X179677026Y-66544260D02*
X179522207Y-66544260D01*
X180025369Y-66892603D02*
X180025369Y-66079803D01*
X180025369Y-66079803D02*
X180335007Y-66079803D01*
X180335007Y-66079803D02*
X180412417Y-66118508D01*
X180412417Y-66118508D02*
X180451122Y-66157213D01*
X180451122Y-66157213D02*
X180489826Y-66234622D01*
X180489826Y-66234622D02*
X180489826Y-66350737D01*
X180489826Y-66350737D02*
X180451122Y-66428146D01*
X180451122Y-66428146D02*
X180412417Y-66466851D01*
X180412417Y-66466851D02*
X180335007Y-66505556D01*
X180335007Y-66505556D02*
X180025369Y-66505556D01*
X180799465Y-66853899D02*
X180915579Y-66892603D01*
X180915579Y-66892603D02*
X181109103Y-66892603D01*
X181109103Y-66892603D02*
X181186512Y-66853899D01*
X181186512Y-66853899D02*
X181225217Y-66815194D01*
X181225217Y-66815194D02*
X181263922Y-66737784D01*
X181263922Y-66737784D02*
X181263922Y-66660375D01*
X181263922Y-66660375D02*
X181225217Y-66582965D01*
X181225217Y-66582965D02*
X181186512Y-66544260D01*
X181186512Y-66544260D02*
X181109103Y-66505556D01*
X181109103Y-66505556D02*
X180954284Y-66466851D01*
X180954284Y-66466851D02*
X180876874Y-66428146D01*
X180876874Y-66428146D02*
X180838169Y-66389441D01*
X180838169Y-66389441D02*
X180799465Y-66312032D01*
X180799465Y-66312032D02*
X180799465Y-66234622D01*
X180799465Y-66234622D02*
X180838169Y-66157213D01*
X180838169Y-66157213D02*
X180876874Y-66118508D01*
X180876874Y-66118508D02*
X180954284Y-66079803D01*
X180954284Y-66079803D02*
X181147807Y-66079803D01*
X181147807Y-66079803D02*
X181263922Y-66118508D01*
X181612264Y-66582965D02*
X182231541Y-66582965D01*
X181921902Y-66892603D02*
X181921902Y-66273327D01*
X182502474Y-66079803D02*
X182966931Y-66079803D01*
X182734703Y-66892603D02*
X182734703Y-66079803D01*
X183237864Y-66466851D02*
X183508798Y-66466851D01*
X183624912Y-66892603D02*
X183237864Y-66892603D01*
X183237864Y-66892603D02*
X183237864Y-66079803D01*
X183237864Y-66079803D02*
X183624912Y-66079803D01*
X183973254Y-66892603D02*
X183973254Y-66079803D01*
X183973254Y-66079803D02*
X184244188Y-66660375D01*
X184244188Y-66660375D02*
X184515121Y-66079803D01*
X184515121Y-66079803D02*
X184515121Y-66892603D01*
X184902168Y-66892603D02*
X184902168Y-66079803D01*
X184902168Y-66079803D02*
X185211806Y-66079803D01*
X185211806Y-66079803D02*
X185289216Y-66118508D01*
X185289216Y-66118508D02*
X185327921Y-66157213D01*
X185327921Y-66157213D02*
X185366625Y-66234622D01*
X185366625Y-66234622D02*
X185366625Y-66350737D01*
X185366625Y-66350737D02*
X185327921Y-66428146D01*
X185327921Y-66428146D02*
X185289216Y-66466851D01*
X185289216Y-66466851D02*
X185211806Y-66505556D01*
X185211806Y-66505556D02*
X184902168Y-66505556D01*
X185637559Y-67202241D02*
X185676264Y-67163537D01*
X185676264Y-67163537D02*
X185753673Y-67047422D01*
X185753673Y-67047422D02*
X185792378Y-66970013D01*
X185792378Y-66970013D02*
X185831083Y-66853899D01*
X185831083Y-66853899D02*
X185869787Y-66660375D01*
X185869787Y-66660375D02*
X185869787Y-66505556D01*
X185869787Y-66505556D02*
X185831083Y-66312032D01*
X185831083Y-66312032D02*
X185792378Y-66195918D01*
X185792378Y-66195918D02*
X185753673Y-66118508D01*
X185753673Y-66118508D02*
X185676264Y-66002394D01*
X185676264Y-66002394D02*
X185637559Y-65963689D01*
D11*
X163071009Y-108687856D02*
X163071009Y-108354523D01*
X163594819Y-108211666D02*
X163594819Y-108687856D01*
X163594819Y-108687856D02*
X162594819Y-108687856D01*
X162594819Y-108687856D02*
X162594819Y-108211666D01*
X163547200Y-107830713D02*
X163594819Y-107687856D01*
X163594819Y-107687856D02*
X163594819Y-107449761D01*
X163594819Y-107449761D02*
X163547200Y-107354523D01*
X163547200Y-107354523D02*
X163499580Y-107306904D01*
X163499580Y-107306904D02*
X163404342Y-107259285D01*
X163404342Y-107259285D02*
X163309104Y-107259285D01*
X163309104Y-107259285D02*
X163213866Y-107306904D01*
X163213866Y-107306904D02*
X163166247Y-107354523D01*
X163166247Y-107354523D02*
X163118628Y-107449761D01*
X163118628Y-107449761D02*
X163071009Y-107640237D01*
X163071009Y-107640237D02*
X163023390Y-107735475D01*
X163023390Y-107735475D02*
X162975771Y-107783094D01*
X162975771Y-107783094D02*
X162880533Y-107830713D01*
X162880533Y-107830713D02*
X162785295Y-107830713D01*
X162785295Y-107830713D02*
X162690057Y-107783094D01*
X162690057Y-107783094D02*
X162642438Y-107735475D01*
X162642438Y-107735475D02*
X162594819Y-107640237D01*
X162594819Y-107640237D02*
X162594819Y-107402142D01*
X162594819Y-107402142D02*
X162642438Y-107259285D01*
X163594819Y-106830713D02*
X162594819Y-106830713D01*
X162594819Y-106830713D02*
X162594819Y-106449761D01*
X162594819Y-106449761D02*
X162642438Y-106354523D01*
X162642438Y-106354523D02*
X162690057Y-106306904D01*
X162690057Y-106306904D02*
X162785295Y-106259285D01*
X162785295Y-106259285D02*
X162928152Y-106259285D01*
X162928152Y-106259285D02*
X163023390Y-106306904D01*
X163023390Y-106306904D02*
X163071009Y-106354523D01*
X163071009Y-106354523D02*
X163118628Y-106449761D01*
X163118628Y-106449761D02*
X163118628Y-106830713D01*
X162594819Y-105925951D02*
X162594819Y-105306904D01*
X162594819Y-105306904D02*
X162975771Y-105640237D01*
X162975771Y-105640237D02*
X162975771Y-105497380D01*
X162975771Y-105497380D02*
X163023390Y-105402142D01*
X163023390Y-105402142D02*
X163071009Y-105354523D01*
X163071009Y-105354523D02*
X163166247Y-105306904D01*
X163166247Y-105306904D02*
X163404342Y-105306904D01*
X163404342Y-105306904D02*
X163499580Y-105354523D01*
X163499580Y-105354523D02*
X163547200Y-105402142D01*
X163547200Y-105402142D02*
X163594819Y-105497380D01*
X163594819Y-105497380D02*
X163594819Y-105783094D01*
X163594819Y-105783094D02*
X163547200Y-105878332D01*
X163547200Y-105878332D02*
X163499580Y-105925951D01*
X162690057Y-104925951D02*
X162642438Y-104878332D01*
X162642438Y-104878332D02*
X162594819Y-104783094D01*
X162594819Y-104783094D02*
X162594819Y-104544999D01*
X162594819Y-104544999D02*
X162642438Y-104449761D01*
X162642438Y-104449761D02*
X162690057Y-104402142D01*
X162690057Y-104402142D02*
X162785295Y-104354523D01*
X162785295Y-104354523D02*
X162880533Y-104354523D01*
X162880533Y-104354523D02*
X163023390Y-104402142D01*
X163023390Y-104402142D02*
X163594819Y-104973570D01*
X163594819Y-104973570D02*
X163594819Y-104354523D01*
X167599047Y-109529819D02*
X168170475Y-109529819D01*
X167884761Y-110529819D02*
X167884761Y-109529819D01*
X168503809Y-110006009D02*
X168837142Y-110006009D01*
X168979999Y-110529819D02*
X168503809Y-110529819D01*
X168503809Y-110529819D02*
X168503809Y-109529819D01*
X168503809Y-109529819D02*
X168979999Y-109529819D01*
X169408571Y-110529819D02*
X169408571Y-109529819D01*
X169408571Y-109529819D02*
X169741904Y-110244104D01*
X169741904Y-110244104D02*
X170075237Y-109529819D01*
X170075237Y-109529819D02*
X170075237Y-110529819D01*
X170551428Y-110529819D02*
X170551428Y-109529819D01*
X170551428Y-109529819D02*
X170932380Y-109529819D01*
X170932380Y-109529819D02*
X171027618Y-109577438D01*
X171027618Y-109577438D02*
X171075237Y-109625057D01*
X171075237Y-109625057D02*
X171122856Y-109720295D01*
X171122856Y-109720295D02*
X171122856Y-109863152D01*
X171122856Y-109863152D02*
X171075237Y-109958390D01*
X171075237Y-109958390D02*
X171027618Y-110006009D01*
X171027618Y-110006009D02*
X170932380Y-110053628D01*
X170932380Y-110053628D02*
X170551428Y-110053628D01*
X171551428Y-110006009D02*
X171884761Y-110006009D01*
X172027618Y-110529819D02*
X171551428Y-110529819D01*
X171551428Y-110529819D02*
X171551428Y-109529819D01*
X171551428Y-109529819D02*
X172027618Y-109529819D01*
X173027618Y-110529819D02*
X172694285Y-110053628D01*
X172456190Y-110529819D02*
X172456190Y-109529819D01*
X172456190Y-109529819D02*
X172837142Y-109529819D01*
X172837142Y-109529819D02*
X172932380Y-109577438D01*
X172932380Y-109577438D02*
X172979999Y-109625057D01*
X172979999Y-109625057D02*
X173027618Y-109720295D01*
X173027618Y-109720295D02*
X173027618Y-109863152D01*
X173027618Y-109863152D02*
X172979999Y-109958390D01*
X172979999Y-109958390D02*
X172932380Y-110006009D01*
X172932380Y-110006009D02*
X172837142Y-110053628D01*
X172837142Y-110053628D02*
X172456190Y-110053628D01*
X173408571Y-110244104D02*
X173884761Y-110244104D01*
X173313333Y-110529819D02*
X173646666Y-109529819D01*
X173646666Y-109529819D02*
X173979999Y-110529819D01*
X174170476Y-109529819D02*
X174741904Y-109529819D01*
X174456190Y-110529819D02*
X174456190Y-109529819D01*
X175075238Y-109529819D02*
X175075238Y-110339342D01*
X175075238Y-110339342D02*
X175122857Y-110434580D01*
X175122857Y-110434580D02*
X175170476Y-110482200D01*
X175170476Y-110482200D02*
X175265714Y-110529819D01*
X175265714Y-110529819D02*
X175456190Y-110529819D01*
X175456190Y-110529819D02*
X175551428Y-110482200D01*
X175551428Y-110482200D02*
X175599047Y-110434580D01*
X175599047Y-110434580D02*
X175646666Y-110339342D01*
X175646666Y-110339342D02*
X175646666Y-109529819D01*
X176694285Y-110529819D02*
X176360952Y-110053628D01*
X176122857Y-110529819D02*
X176122857Y-109529819D01*
X176122857Y-109529819D02*
X176503809Y-109529819D01*
X176503809Y-109529819D02*
X176599047Y-109577438D01*
X176599047Y-109577438D02*
X176646666Y-109625057D01*
X176646666Y-109625057D02*
X176694285Y-109720295D01*
X176694285Y-109720295D02*
X176694285Y-109863152D01*
X176694285Y-109863152D02*
X176646666Y-109958390D01*
X176646666Y-109958390D02*
X176599047Y-110006009D01*
X176599047Y-110006009D02*
X176503809Y-110053628D01*
X176503809Y-110053628D02*
X176122857Y-110053628D01*
X177122857Y-110006009D02*
X177456190Y-110006009D01*
X177599047Y-110529819D02*
X177122857Y-110529819D01*
X177122857Y-110529819D02*
X177122857Y-109529819D01*
X177122857Y-109529819D02*
X177599047Y-109529819D01*
X177789524Y-110625057D02*
X178551428Y-110625057D01*
X178741905Y-110482200D02*
X178884762Y-110529819D01*
X178884762Y-110529819D02*
X179122857Y-110529819D01*
X179122857Y-110529819D02*
X179218095Y-110482200D01*
X179218095Y-110482200D02*
X179265714Y-110434580D01*
X179265714Y-110434580D02*
X179313333Y-110339342D01*
X179313333Y-110339342D02*
X179313333Y-110244104D01*
X179313333Y-110244104D02*
X179265714Y-110148866D01*
X179265714Y-110148866D02*
X179218095Y-110101247D01*
X179218095Y-110101247D02*
X179122857Y-110053628D01*
X179122857Y-110053628D02*
X178932381Y-110006009D01*
X178932381Y-110006009D02*
X178837143Y-109958390D01*
X178837143Y-109958390D02*
X178789524Y-109910771D01*
X178789524Y-109910771D02*
X178741905Y-109815533D01*
X178741905Y-109815533D02*
X178741905Y-109720295D01*
X178741905Y-109720295D02*
X178789524Y-109625057D01*
X178789524Y-109625057D02*
X178837143Y-109577438D01*
X178837143Y-109577438D02*
X178932381Y-109529819D01*
X178932381Y-109529819D02*
X179170476Y-109529819D01*
X179170476Y-109529819D02*
X179313333Y-109577438D01*
X179741905Y-110006009D02*
X180075238Y-110006009D01*
X180218095Y-110529819D02*
X179741905Y-110529819D01*
X179741905Y-110529819D02*
X179741905Y-109529819D01*
X179741905Y-109529819D02*
X180218095Y-109529819D01*
X180646667Y-110529819D02*
X180646667Y-109529819D01*
X180646667Y-109529819D02*
X181218095Y-110529819D01*
X181218095Y-110529819D02*
X181218095Y-109529819D01*
X181646667Y-110482200D02*
X181789524Y-110529819D01*
X181789524Y-110529819D02*
X182027619Y-110529819D01*
X182027619Y-110529819D02*
X182122857Y-110482200D01*
X182122857Y-110482200D02*
X182170476Y-110434580D01*
X182170476Y-110434580D02*
X182218095Y-110339342D01*
X182218095Y-110339342D02*
X182218095Y-110244104D01*
X182218095Y-110244104D02*
X182170476Y-110148866D01*
X182170476Y-110148866D02*
X182122857Y-110101247D01*
X182122857Y-110101247D02*
X182027619Y-110053628D01*
X182027619Y-110053628D02*
X181837143Y-110006009D01*
X181837143Y-110006009D02*
X181741905Y-109958390D01*
X181741905Y-109958390D02*
X181694286Y-109910771D01*
X181694286Y-109910771D02*
X181646667Y-109815533D01*
X181646667Y-109815533D02*
X181646667Y-109720295D01*
X181646667Y-109720295D02*
X181694286Y-109625057D01*
X181694286Y-109625057D02*
X181741905Y-109577438D01*
X181741905Y-109577438D02*
X181837143Y-109529819D01*
X181837143Y-109529819D02*
X182075238Y-109529819D01*
X182075238Y-109529819D02*
X182218095Y-109577438D01*
X182837143Y-109529819D02*
X183027619Y-109529819D01*
X183027619Y-109529819D02*
X183122857Y-109577438D01*
X183122857Y-109577438D02*
X183218095Y-109672676D01*
X183218095Y-109672676D02*
X183265714Y-109863152D01*
X183265714Y-109863152D02*
X183265714Y-110196485D01*
X183265714Y-110196485D02*
X183218095Y-110386961D01*
X183218095Y-110386961D02*
X183122857Y-110482200D01*
X183122857Y-110482200D02*
X183027619Y-110529819D01*
X183027619Y-110529819D02*
X182837143Y-110529819D01*
X182837143Y-110529819D02*
X182741905Y-110482200D01*
X182741905Y-110482200D02*
X182646667Y-110386961D01*
X182646667Y-110386961D02*
X182599048Y-110196485D01*
X182599048Y-110196485D02*
X182599048Y-109863152D01*
X182599048Y-109863152D02*
X182646667Y-109672676D01*
X182646667Y-109672676D02*
X182741905Y-109577438D01*
X182741905Y-109577438D02*
X182837143Y-109529819D01*
X184265714Y-110529819D02*
X183932381Y-110053628D01*
X183694286Y-110529819D02*
X183694286Y-109529819D01*
X183694286Y-109529819D02*
X184075238Y-109529819D01*
X184075238Y-109529819D02*
X184170476Y-109577438D01*
X184170476Y-109577438D02*
X184218095Y-109625057D01*
X184218095Y-109625057D02*
X184265714Y-109720295D01*
X184265714Y-109720295D02*
X184265714Y-109863152D01*
X184265714Y-109863152D02*
X184218095Y-109958390D01*
X184218095Y-109958390D02*
X184170476Y-110006009D01*
X184170476Y-110006009D02*
X184075238Y-110053628D01*
X184075238Y-110053628D02*
X183694286Y-110053628D01*
X165733928Y-111773152D02*
X165733928Y-112439819D01*
X165495833Y-111392200D02*
X165257738Y-112106485D01*
X165257738Y-112106485D02*
X165876785Y-112106485D01*
X166257738Y-112344580D02*
X166305357Y-112392200D01*
X166305357Y-112392200D02*
X166257738Y-112439819D01*
X166257738Y-112439819D02*
X166210119Y-112392200D01*
X166210119Y-112392200D02*
X166257738Y-112344580D01*
X166257738Y-112344580D02*
X166257738Y-112439819D01*
X166638690Y-111439819D02*
X167305356Y-111439819D01*
X167305356Y-111439819D02*
X166876785Y-112439819D01*
X167686309Y-112439819D02*
X167686309Y-111439819D01*
X167781547Y-112058866D02*
X168067261Y-112439819D01*
X168067261Y-111773152D02*
X167686309Y-112154104D01*
D12*
X132833333Y-76457419D02*
X132833333Y-75457419D01*
X132833333Y-75457419D02*
X133404761Y-76457419D01*
X133404761Y-76457419D02*
X133404761Y-75457419D01*
X133880952Y-75933609D02*
X134214285Y-75933609D01*
X134357142Y-76457419D02*
X133880952Y-76457419D01*
X133880952Y-76457419D02*
X133880952Y-75457419D01*
X133880952Y-75457419D02*
X134357142Y-75457419D01*
X134976190Y-75457419D02*
X135166666Y-75457419D01*
X135166666Y-75457419D02*
X135261904Y-75505038D01*
X135261904Y-75505038D02*
X135357142Y-75600276D01*
X135357142Y-75600276D02*
X135404761Y-75790752D01*
X135404761Y-75790752D02*
X135404761Y-76124085D01*
X135404761Y-76124085D02*
X135357142Y-76314561D01*
X135357142Y-76314561D02*
X135261904Y-76409800D01*
X135261904Y-76409800D02*
X135166666Y-76457419D01*
X135166666Y-76457419D02*
X134976190Y-76457419D01*
X134976190Y-76457419D02*
X134880952Y-76409800D01*
X134880952Y-76409800D02*
X134785714Y-76314561D01*
X134785714Y-76314561D02*
X134738095Y-76124085D01*
X134738095Y-76124085D02*
X134738095Y-75790752D01*
X134738095Y-75790752D02*
X134785714Y-75600276D01*
X134785714Y-75600276D02*
X134880952Y-75505038D01*
X134880952Y-75505038D02*
X134976190Y-75457419D01*
X136261904Y-75457419D02*
X136071428Y-75457419D01*
X136071428Y-75457419D02*
X135976190Y-75505038D01*
X135976190Y-75505038D02*
X135928571Y-75552657D01*
X135928571Y-75552657D02*
X135833333Y-75695514D01*
X135833333Y-75695514D02*
X135785714Y-75885990D01*
X135785714Y-75885990D02*
X135785714Y-76266942D01*
X135785714Y-76266942D02*
X135833333Y-76362180D01*
X135833333Y-76362180D02*
X135880952Y-76409800D01*
X135880952Y-76409800D02*
X135976190Y-76457419D01*
X135976190Y-76457419D02*
X136166666Y-76457419D01*
X136166666Y-76457419D02*
X136261904Y-76409800D01*
X136261904Y-76409800D02*
X136309523Y-76362180D01*
X136309523Y-76362180D02*
X136357142Y-76266942D01*
X136357142Y-76266942D02*
X136357142Y-76028847D01*
X136357142Y-76028847D02*
X136309523Y-75933609D01*
X136309523Y-75933609D02*
X136261904Y-75885990D01*
X136261904Y-75885990D02*
X136166666Y-75838371D01*
X136166666Y-75838371D02*
X135976190Y-75838371D01*
X135976190Y-75838371D02*
X135880952Y-75885990D01*
X135880952Y-75885990D02*
X135833333Y-75933609D01*
X135833333Y-75933609D02*
X135785714Y-76028847D01*
X136785714Y-76457419D02*
X136785714Y-75457419D01*
X136785714Y-75457419D02*
X137119047Y-76171704D01*
X137119047Y-76171704D02*
X137452380Y-75457419D01*
X137452380Y-75457419D02*
X137452380Y-76457419D01*
X137690476Y-76552657D02*
X138452380Y-76552657D01*
X139214285Y-75505038D02*
X139119047Y-75457419D01*
X139119047Y-75457419D02*
X138976190Y-75457419D01*
X138976190Y-75457419D02*
X138833333Y-75505038D01*
X138833333Y-75505038D02*
X138738095Y-75600276D01*
X138738095Y-75600276D02*
X138690476Y-75695514D01*
X138690476Y-75695514D02*
X138642857Y-75885990D01*
X138642857Y-75885990D02*
X138642857Y-76028847D01*
X138642857Y-76028847D02*
X138690476Y-76219323D01*
X138690476Y-76219323D02*
X138738095Y-76314561D01*
X138738095Y-76314561D02*
X138833333Y-76409800D01*
X138833333Y-76409800D02*
X138976190Y-76457419D01*
X138976190Y-76457419D02*
X139071428Y-76457419D01*
X139071428Y-76457419D02*
X139214285Y-76409800D01*
X139214285Y-76409800D02*
X139261904Y-76362180D01*
X139261904Y-76362180D02*
X139261904Y-76028847D01*
X139261904Y-76028847D02*
X139071428Y-76028847D01*
X139690476Y-76457419D02*
X139690476Y-75457419D01*
X139690476Y-75457419D02*
X140071428Y-75457419D01*
X140071428Y-75457419D02*
X140166666Y-75505038D01*
X140166666Y-75505038D02*
X140214285Y-75552657D01*
X140214285Y-75552657D02*
X140261904Y-75647895D01*
X140261904Y-75647895D02*
X140261904Y-75790752D01*
X140261904Y-75790752D02*
X140214285Y-75885990D01*
X140214285Y-75885990D02*
X140166666Y-75933609D01*
X140166666Y-75933609D02*
X140071428Y-75981228D01*
X140071428Y-75981228D02*
X139690476Y-75981228D01*
X140642857Y-76409800D02*
X140785714Y-76457419D01*
X140785714Y-76457419D02*
X141023809Y-76457419D01*
X141023809Y-76457419D02*
X141119047Y-76409800D01*
X141119047Y-76409800D02*
X141166666Y-76362180D01*
X141166666Y-76362180D02*
X141214285Y-76266942D01*
X141214285Y-76266942D02*
X141214285Y-76171704D01*
X141214285Y-76171704D02*
X141166666Y-76076466D01*
X141166666Y-76076466D02*
X141119047Y-76028847D01*
X141119047Y-76028847D02*
X141023809Y-75981228D01*
X141023809Y-75981228D02*
X140833333Y-75933609D01*
X140833333Y-75933609D02*
X140738095Y-75885990D01*
X140738095Y-75885990D02*
X140690476Y-75838371D01*
X140690476Y-75838371D02*
X140642857Y-75743133D01*
X140642857Y-75743133D02*
X140642857Y-75647895D01*
X140642857Y-75647895D02*
X140690476Y-75552657D01*
X140690476Y-75552657D02*
X140738095Y-75505038D01*
X140738095Y-75505038D02*
X140833333Y-75457419D01*
X140833333Y-75457419D02*
X141071428Y-75457419D01*
X141071428Y-75457419D02*
X141214285Y-75505038D01*
X136982455Y-113556371D02*
X136749122Y-113270657D01*
X136582455Y-113556371D02*
X136582455Y-112956371D01*
X136582455Y-112956371D02*
X136849122Y-112956371D01*
X136849122Y-112956371D02*
X136915789Y-112984942D01*
X136915789Y-112984942D02*
X136949122Y-113013514D01*
X136949122Y-113013514D02*
X136982455Y-113070657D01*
X136982455Y-113070657D02*
X136982455Y-113156371D01*
X136982455Y-113156371D02*
X136949122Y-113213514D01*
X136949122Y-113213514D02*
X136915789Y-113242085D01*
X136915789Y-113242085D02*
X136849122Y-113270657D01*
X136849122Y-113270657D02*
X136582455Y-113270657D01*
X137215789Y-113556371D02*
X137582455Y-113156371D01*
X137215789Y-113156371D02*
X137582455Y-113556371D01*
X141949122Y-112877466D02*
X141882455Y-112844133D01*
X141882455Y-112844133D02*
X141782455Y-112844133D01*
X141782455Y-112844133D02*
X141682455Y-112877466D01*
X141682455Y-112877466D02*
X141615789Y-112944133D01*
X141615789Y-112944133D02*
X141582455Y-113010800D01*
X141582455Y-113010800D02*
X141549122Y-113144133D01*
X141549122Y-113144133D02*
X141549122Y-113244133D01*
X141549122Y-113244133D02*
X141582455Y-113377466D01*
X141582455Y-113377466D02*
X141615789Y-113444133D01*
X141615789Y-113444133D02*
X141682455Y-113510800D01*
X141682455Y-113510800D02*
X141782455Y-113544133D01*
X141782455Y-113544133D02*
X141849122Y-113544133D01*
X141849122Y-113544133D02*
X141949122Y-113510800D01*
X141949122Y-113510800D02*
X141982455Y-113477466D01*
X141982455Y-113477466D02*
X141982455Y-113244133D01*
X141982455Y-113244133D02*
X141849122Y-113244133D01*
X142282455Y-113544133D02*
X142282455Y-112844133D01*
X142282455Y-112844133D02*
X142682455Y-113544133D01*
X142682455Y-113544133D02*
X142682455Y-112844133D01*
X143015788Y-113544133D02*
X143015788Y-112844133D01*
X143015788Y-112844133D02*
X143182455Y-112844133D01*
X143182455Y-112844133D02*
X143282455Y-112877466D01*
X143282455Y-112877466D02*
X143349122Y-112944133D01*
X143349122Y-112944133D02*
X143382455Y-113010800D01*
X143382455Y-113010800D02*
X143415788Y-113144133D01*
X143415788Y-113144133D02*
X143415788Y-113244133D01*
X143415788Y-113244133D02*
X143382455Y-113377466D01*
X143382455Y-113377466D02*
X143349122Y-113444133D01*
X143349122Y-113444133D02*
X143282455Y-113510800D01*
X143282455Y-113510800D02*
X143182455Y-113544133D01*
X143182455Y-113544133D02*
X143015788Y-113544133D01*
X133472931Y-112956371D02*
X133672931Y-113556371D01*
X133672931Y-113556371D02*
X133872931Y-112956371D01*
X134415789Y-113499228D02*
X134387217Y-113527800D01*
X134387217Y-113527800D02*
X134301503Y-113556371D01*
X134301503Y-113556371D02*
X134244360Y-113556371D01*
X134244360Y-113556371D02*
X134158646Y-113527800D01*
X134158646Y-113527800D02*
X134101503Y-113470657D01*
X134101503Y-113470657D02*
X134072932Y-113413514D01*
X134072932Y-113413514D02*
X134044360Y-113299228D01*
X134044360Y-113299228D02*
X134044360Y-113213514D01*
X134044360Y-113213514D02*
X134072932Y-113099228D01*
X134072932Y-113099228D02*
X134101503Y-113042085D01*
X134101503Y-113042085D02*
X134158646Y-112984942D01*
X134158646Y-112984942D02*
X134244360Y-112956371D01*
X134244360Y-112956371D02*
X134301503Y-112956371D01*
X134301503Y-112956371D02*
X134387217Y-112984942D01*
X134387217Y-112984942D02*
X134415789Y-113013514D01*
X135015789Y-113499228D02*
X134987217Y-113527800D01*
X134987217Y-113527800D02*
X134901503Y-113556371D01*
X134901503Y-113556371D02*
X134844360Y-113556371D01*
X134844360Y-113556371D02*
X134758646Y-113527800D01*
X134758646Y-113527800D02*
X134701503Y-113470657D01*
X134701503Y-113470657D02*
X134672932Y-113413514D01*
X134672932Y-113413514D02*
X134644360Y-113299228D01*
X134644360Y-113299228D02*
X134644360Y-113213514D01*
X134644360Y-113213514D02*
X134672932Y-113099228D01*
X134672932Y-113099228D02*
X134701503Y-113042085D01*
X134701503Y-113042085D02*
X134758646Y-112984942D01*
X134758646Y-112984942D02*
X134844360Y-112956371D01*
X134844360Y-112956371D02*
X134901503Y-112956371D01*
X134901503Y-112956371D02*
X134987217Y-112984942D01*
X134987217Y-112984942D02*
X135015789Y-113013514D01*
X139482455Y-112956371D02*
X139882455Y-112956371D01*
X139682455Y-113556371D02*
X139682455Y-112956371D01*
X140049122Y-113556371D02*
X140415788Y-113156371D01*
X140049122Y-113156371D02*
X140415788Y-113556371D01*
X188380952Y-113457419D02*
X188380952Y-112457419D01*
X188380952Y-112457419D02*
X188714285Y-113171704D01*
X188714285Y-113171704D02*
X189047618Y-112457419D01*
X189047618Y-112457419D02*
X189047618Y-113457419D01*
X189523809Y-113457419D02*
X189523809Y-112457419D01*
X189523809Y-112457419D02*
X189904761Y-112457419D01*
X189904761Y-112457419D02*
X189999999Y-112505038D01*
X189999999Y-112505038D02*
X190047618Y-112552657D01*
X190047618Y-112552657D02*
X190095237Y-112647895D01*
X190095237Y-112647895D02*
X190095237Y-112790752D01*
X190095237Y-112790752D02*
X190047618Y-112885990D01*
X190047618Y-112885990D02*
X189999999Y-112933609D01*
X189999999Y-112933609D02*
X189904761Y-112981228D01*
X189904761Y-112981228D02*
X189523809Y-112981228D01*
X190523809Y-112457419D02*
X190523809Y-113266942D01*
X190523809Y-113266942D02*
X190571428Y-113362180D01*
X190571428Y-113362180D02*
X190619047Y-113409800D01*
X190619047Y-113409800D02*
X190714285Y-113457419D01*
X190714285Y-113457419D02*
X190904761Y-113457419D01*
X190904761Y-113457419D02*
X190999999Y-113409800D01*
X190999999Y-113409800D02*
X191047618Y-113362180D01*
X191047618Y-113362180D02*
X191095237Y-113266942D01*
X191095237Y-113266942D02*
X191095237Y-112457419D01*
X191999999Y-112457419D02*
X191809523Y-112457419D01*
X191809523Y-112457419D02*
X191714285Y-112505038D01*
X191714285Y-112505038D02*
X191666666Y-112552657D01*
X191666666Y-112552657D02*
X191571428Y-112695514D01*
X191571428Y-112695514D02*
X191523809Y-112885990D01*
X191523809Y-112885990D02*
X191523809Y-113266942D01*
X191523809Y-113266942D02*
X191571428Y-113362180D01*
X191571428Y-113362180D02*
X191619047Y-113409800D01*
X191619047Y-113409800D02*
X191714285Y-113457419D01*
X191714285Y-113457419D02*
X191904761Y-113457419D01*
X191904761Y-113457419D02*
X191999999Y-113409800D01*
X191999999Y-113409800D02*
X192047618Y-113362180D01*
X192047618Y-113362180D02*
X192095237Y-113266942D01*
X192095237Y-113266942D02*
X192095237Y-113028847D01*
X192095237Y-113028847D02*
X192047618Y-112933609D01*
X192047618Y-112933609D02*
X191999999Y-112885990D01*
X191999999Y-112885990D02*
X191904761Y-112838371D01*
X191904761Y-112838371D02*
X191714285Y-112838371D01*
X191714285Y-112838371D02*
X191619047Y-112885990D01*
X191619047Y-112885990D02*
X191571428Y-112933609D01*
X191571428Y-112933609D02*
X191523809Y-113028847D01*
X192714285Y-112457419D02*
X192809523Y-112457419D01*
X192809523Y-112457419D02*
X192904761Y-112505038D01*
X192904761Y-112505038D02*
X192952380Y-112552657D01*
X192952380Y-112552657D02*
X192999999Y-112647895D01*
X192999999Y-112647895D02*
X193047618Y-112838371D01*
X193047618Y-112838371D02*
X193047618Y-113076466D01*
X193047618Y-113076466D02*
X192999999Y-113266942D01*
X192999999Y-113266942D02*
X192952380Y-113362180D01*
X192952380Y-113362180D02*
X192904761Y-113409800D01*
X192904761Y-113409800D02*
X192809523Y-113457419D01*
X192809523Y-113457419D02*
X192714285Y-113457419D01*
X192714285Y-113457419D02*
X192619047Y-113409800D01*
X192619047Y-113409800D02*
X192571428Y-113362180D01*
X192571428Y-113362180D02*
X192523809Y-113266942D01*
X192523809Y-113266942D02*
X192476190Y-113076466D01*
X192476190Y-113076466D02*
X192476190Y-112838371D01*
X192476190Y-112838371D02*
X192523809Y-112647895D01*
X192523809Y-112647895D02*
X192571428Y-112552657D01*
X192571428Y-112552657D02*
X192619047Y-112505038D01*
X192619047Y-112505038D02*
X192714285Y-112457419D01*
X193952380Y-112457419D02*
X193476190Y-112457419D01*
X193476190Y-112457419D02*
X193428571Y-112933609D01*
X193428571Y-112933609D02*
X193476190Y-112885990D01*
X193476190Y-112885990D02*
X193571428Y-112838371D01*
X193571428Y-112838371D02*
X193809523Y-112838371D01*
X193809523Y-112838371D02*
X193904761Y-112885990D01*
X193904761Y-112885990D02*
X193952380Y-112933609D01*
X193952380Y-112933609D02*
X193999999Y-113028847D01*
X193999999Y-113028847D02*
X193999999Y-113266942D01*
X193999999Y-113266942D02*
X193952380Y-113362180D01*
X193952380Y-113362180D02*
X193904761Y-113409800D01*
X193904761Y-113409800D02*
X193809523Y-113457419D01*
X193809523Y-113457419D02*
X193571428Y-113457419D01*
X193571428Y-113457419D02*
X193476190Y-113409800D01*
X193476190Y-113409800D02*
X193428571Y-113362180D01*
X194619047Y-112457419D02*
X194714285Y-112457419D01*
X194714285Y-112457419D02*
X194809523Y-112505038D01*
X194809523Y-112505038D02*
X194857142Y-112552657D01*
X194857142Y-112552657D02*
X194904761Y-112647895D01*
X194904761Y-112647895D02*
X194952380Y-112838371D01*
X194952380Y-112838371D02*
X194952380Y-113076466D01*
X194952380Y-113076466D02*
X194904761Y-113266942D01*
X194904761Y-113266942D02*
X194857142Y-113362180D01*
X194857142Y-113362180D02*
X194809523Y-113409800D01*
X194809523Y-113409800D02*
X194714285Y-113457419D01*
X194714285Y-113457419D02*
X194619047Y-113457419D01*
X194619047Y-113457419D02*
X194523809Y-113409800D01*
X194523809Y-113409800D02*
X194476190Y-113362180D01*
X194476190Y-113362180D02*
X194428571Y-113266942D01*
X194428571Y-113266942D02*
X194380952Y-113076466D01*
X194380952Y-113076466D02*
X194380952Y-112838371D01*
X194380952Y-112838371D02*
X194428571Y-112647895D01*
X194428571Y-112647895D02*
X194476190Y-112552657D01*
X194476190Y-112552657D02*
X194523809Y-112505038D01*
X194523809Y-112505038D02*
X194619047Y-112457419D01*
X195142857Y-113552657D02*
X195904761Y-113552657D01*
X196047619Y-112457419D02*
X196666666Y-112457419D01*
X196666666Y-112457419D02*
X196333333Y-112838371D01*
X196333333Y-112838371D02*
X196476190Y-112838371D01*
X196476190Y-112838371D02*
X196571428Y-112885990D01*
X196571428Y-112885990D02*
X196619047Y-112933609D01*
X196619047Y-112933609D02*
X196666666Y-113028847D01*
X196666666Y-113028847D02*
X196666666Y-113266942D01*
X196666666Y-113266942D02*
X196619047Y-113362180D01*
X196619047Y-113362180D02*
X196571428Y-113409800D01*
X196571428Y-113409800D02*
X196476190Y-113457419D01*
X196476190Y-113457419D02*
X196190476Y-113457419D01*
X196190476Y-113457419D02*
X196095238Y-113409800D01*
X196095238Y-113409800D02*
X196047619Y-113362180D01*
X197523809Y-113457419D02*
X197523809Y-112933609D01*
X197523809Y-112933609D02*
X197476190Y-112838371D01*
X197476190Y-112838371D02*
X197380952Y-112790752D01*
X197380952Y-112790752D02*
X197190476Y-112790752D01*
X197190476Y-112790752D02*
X197095238Y-112838371D01*
X197523809Y-113409800D02*
X197428571Y-113457419D01*
X197428571Y-113457419D02*
X197190476Y-113457419D01*
X197190476Y-113457419D02*
X197095238Y-113409800D01*
X197095238Y-113409800D02*
X197047619Y-113314561D01*
X197047619Y-113314561D02*
X197047619Y-113219323D01*
X197047619Y-113219323D02*
X197095238Y-113124085D01*
X197095238Y-113124085D02*
X197190476Y-113076466D01*
X197190476Y-113076466D02*
X197428571Y-113076466D01*
X197428571Y-113076466D02*
X197523809Y-113028847D01*
X197904762Y-113457419D02*
X198428571Y-112790752D01*
X197904762Y-112790752D02*
X198428571Y-113457419D01*
X198809524Y-113457419D02*
X198809524Y-112790752D01*
X198809524Y-112457419D02*
X198761905Y-112505038D01*
X198761905Y-112505038D02*
X198809524Y-112552657D01*
X198809524Y-112552657D02*
X198857143Y-112505038D01*
X198857143Y-112505038D02*
X198809524Y-112457419D01*
X198809524Y-112457419D02*
X198809524Y-112552657D01*
X199238095Y-113409800D02*
X199333333Y-113457419D01*
X199333333Y-113457419D02*
X199523809Y-113457419D01*
X199523809Y-113457419D02*
X199619047Y-113409800D01*
X199619047Y-113409800D02*
X199666666Y-113314561D01*
X199666666Y-113314561D02*
X199666666Y-113266942D01*
X199666666Y-113266942D02*
X199619047Y-113171704D01*
X199619047Y-113171704D02*
X199523809Y-113124085D01*
X199523809Y-113124085D02*
X199380952Y-113124085D01*
X199380952Y-113124085D02*
X199285714Y-113076466D01*
X199285714Y-113076466D02*
X199238095Y-112981228D01*
X199238095Y-112981228D02*
X199238095Y-112933609D01*
X199238095Y-112933609D02*
X199285714Y-112838371D01*
X199285714Y-112838371D02*
X199380952Y-112790752D01*
X199380952Y-112790752D02*
X199523809Y-112790752D01*
X199523809Y-112790752D02*
X199619047Y-112838371D01*
X190204274Y-106951304D02*
X190489989Y-106951304D01*
X190147131Y-107237019D02*
X190347131Y-106237019D01*
X190347131Y-106237019D02*
X190547131Y-107237019D01*
X190747132Y-107237019D02*
X190747132Y-106237019D01*
X190747132Y-106237019D02*
X190889989Y-106237019D01*
X190889989Y-106237019D02*
X190975703Y-106284638D01*
X190975703Y-106284638D02*
X191032846Y-106379876D01*
X191032846Y-106379876D02*
X191061417Y-106475114D01*
X191061417Y-106475114D02*
X191089989Y-106665590D01*
X191089989Y-106665590D02*
X191089989Y-106808447D01*
X191089989Y-106808447D02*
X191061417Y-106998923D01*
X191061417Y-106998923D02*
X191032846Y-107094161D01*
X191032846Y-107094161D02*
X190975703Y-107189400D01*
X190975703Y-107189400D02*
X190889989Y-107237019D01*
X190889989Y-107237019D02*
X190747132Y-107237019D01*
X191461417Y-106237019D02*
X191518560Y-106237019D01*
X191518560Y-106237019D02*
X191575703Y-106284638D01*
X191575703Y-106284638D02*
X191604275Y-106332257D01*
X191604275Y-106332257D02*
X191632846Y-106427495D01*
X191632846Y-106427495D02*
X191661417Y-106617971D01*
X191661417Y-106617971D02*
X191661417Y-106856066D01*
X191661417Y-106856066D02*
X191632846Y-107046542D01*
X191632846Y-107046542D02*
X191604275Y-107141780D01*
X191604275Y-107141780D02*
X191575703Y-107189400D01*
X191575703Y-107189400D02*
X191518560Y-107237019D01*
X191518560Y-107237019D02*
X191461417Y-107237019D01*
X191461417Y-107237019D02*
X191404275Y-107189400D01*
X191404275Y-107189400D02*
X191375703Y-107141780D01*
X191375703Y-107141780D02*
X191347132Y-107046542D01*
X191347132Y-107046542D02*
X191318560Y-106856066D01*
X191318560Y-106856066D02*
X191318560Y-106617971D01*
X191318560Y-106617971D02*
X191347132Y-106427495D01*
X191347132Y-106427495D02*
X191375703Y-106332257D01*
X191375703Y-106332257D02*
X191404275Y-106284638D01*
X191404275Y-106284638D02*
X191461417Y-106237019D01*
X190099503Y-101207819D02*
X190499503Y-102207819D01*
X190499503Y-101207819D02*
X190099503Y-102207819D01*
X190728075Y-102207819D02*
X190728075Y-101207819D01*
X190728075Y-101207819D02*
X190870932Y-101207819D01*
X190870932Y-101207819D02*
X190956646Y-101255438D01*
X190956646Y-101255438D02*
X191013789Y-101350676D01*
X191013789Y-101350676D02*
X191042360Y-101445914D01*
X191042360Y-101445914D02*
X191070932Y-101636390D01*
X191070932Y-101636390D02*
X191070932Y-101779247D01*
X191070932Y-101779247D02*
X191042360Y-101969723D01*
X191042360Y-101969723D02*
X191013789Y-102064961D01*
X191013789Y-102064961D02*
X190956646Y-102160200D01*
X190956646Y-102160200D02*
X190870932Y-102207819D01*
X190870932Y-102207819D02*
X190728075Y-102207819D01*
X191299503Y-101922104D02*
X191585218Y-101922104D01*
X191242360Y-102207819D02*
X191442360Y-101207819D01*
X191442360Y-101207819D02*
X191642360Y-102207819D01*
X190102674Y-99467800D02*
X190188389Y-99515419D01*
X190188389Y-99515419D02*
X190331246Y-99515419D01*
X190331246Y-99515419D02*
X190388389Y-99467800D01*
X190388389Y-99467800D02*
X190416960Y-99420180D01*
X190416960Y-99420180D02*
X190445531Y-99324942D01*
X190445531Y-99324942D02*
X190445531Y-99229704D01*
X190445531Y-99229704D02*
X190416960Y-99134466D01*
X190416960Y-99134466D02*
X190388389Y-99086847D01*
X190388389Y-99086847D02*
X190331246Y-99039228D01*
X190331246Y-99039228D02*
X190216960Y-98991609D01*
X190216960Y-98991609D02*
X190159817Y-98943990D01*
X190159817Y-98943990D02*
X190131246Y-98896371D01*
X190131246Y-98896371D02*
X190102674Y-98801133D01*
X190102674Y-98801133D02*
X190102674Y-98705895D01*
X190102674Y-98705895D02*
X190131246Y-98610657D01*
X190131246Y-98610657D02*
X190159817Y-98563038D01*
X190159817Y-98563038D02*
X190216960Y-98515419D01*
X190216960Y-98515419D02*
X190359817Y-98515419D01*
X190359817Y-98515419D02*
X190445531Y-98563038D01*
X190702675Y-99515419D02*
X190702675Y-98515419D01*
X190702675Y-98515419D02*
X190845532Y-98515419D01*
X190845532Y-98515419D02*
X190931246Y-98563038D01*
X190931246Y-98563038D02*
X190988389Y-98658276D01*
X190988389Y-98658276D02*
X191016960Y-98753514D01*
X191016960Y-98753514D02*
X191045532Y-98943990D01*
X191045532Y-98943990D02*
X191045532Y-99086847D01*
X191045532Y-99086847D02*
X191016960Y-99277323D01*
X191016960Y-99277323D02*
X190988389Y-99372561D01*
X190988389Y-99372561D02*
X190931246Y-99467800D01*
X190931246Y-99467800D02*
X190845532Y-99515419D01*
X190845532Y-99515419D02*
X190702675Y-99515419D01*
X191274103Y-99229704D02*
X191559818Y-99229704D01*
X191216960Y-99515419D02*
X191416960Y-98515419D01*
X191416960Y-98515419D02*
X191616960Y-99515419D01*
X189740731Y-90997019D02*
X189940731Y-91997019D01*
X189940731Y-91997019D02*
X190140731Y-90997019D01*
X190683589Y-91901780D02*
X190655017Y-91949400D01*
X190655017Y-91949400D02*
X190569303Y-91997019D01*
X190569303Y-91997019D02*
X190512160Y-91997019D01*
X190512160Y-91997019D02*
X190426446Y-91949400D01*
X190426446Y-91949400D02*
X190369303Y-91854161D01*
X190369303Y-91854161D02*
X190340732Y-91758923D01*
X190340732Y-91758923D02*
X190312160Y-91568447D01*
X190312160Y-91568447D02*
X190312160Y-91425590D01*
X190312160Y-91425590D02*
X190340732Y-91235114D01*
X190340732Y-91235114D02*
X190369303Y-91139876D01*
X190369303Y-91139876D02*
X190426446Y-91044638D01*
X190426446Y-91044638D02*
X190512160Y-90997019D01*
X190512160Y-90997019D02*
X190569303Y-90997019D01*
X190569303Y-90997019D02*
X190655017Y-91044638D01*
X190655017Y-91044638D02*
X190683589Y-91092257D01*
X191283589Y-91901780D02*
X191255017Y-91949400D01*
X191255017Y-91949400D02*
X191169303Y-91997019D01*
X191169303Y-91997019D02*
X191112160Y-91997019D01*
X191112160Y-91997019D02*
X191026446Y-91949400D01*
X191026446Y-91949400D02*
X190969303Y-91854161D01*
X190969303Y-91854161D02*
X190940732Y-91758923D01*
X190940732Y-91758923D02*
X190912160Y-91568447D01*
X190912160Y-91568447D02*
X190912160Y-91425590D01*
X190912160Y-91425590D02*
X190940732Y-91235114D01*
X190940732Y-91235114D02*
X190969303Y-91139876D01*
X190969303Y-91139876D02*
X191026446Y-91044638D01*
X191026446Y-91044638D02*
X191112160Y-90997019D01*
X191112160Y-90997019D02*
X191169303Y-90997019D01*
X191169303Y-90997019D02*
X191255017Y-91044638D01*
X191255017Y-91044638D02*
X191283589Y-91092257D01*
X190089931Y-93635438D02*
X190032789Y-93587819D01*
X190032789Y-93587819D02*
X189947074Y-93587819D01*
X189947074Y-93587819D02*
X189861360Y-93635438D01*
X189861360Y-93635438D02*
X189804217Y-93730676D01*
X189804217Y-93730676D02*
X189775646Y-93825914D01*
X189775646Y-93825914D02*
X189747074Y-94016390D01*
X189747074Y-94016390D02*
X189747074Y-94159247D01*
X189747074Y-94159247D02*
X189775646Y-94349723D01*
X189775646Y-94349723D02*
X189804217Y-94444961D01*
X189804217Y-94444961D02*
X189861360Y-94540200D01*
X189861360Y-94540200D02*
X189947074Y-94587819D01*
X189947074Y-94587819D02*
X190004217Y-94587819D01*
X190004217Y-94587819D02*
X190089931Y-94540200D01*
X190089931Y-94540200D02*
X190118503Y-94492580D01*
X190118503Y-94492580D02*
X190118503Y-94159247D01*
X190118503Y-94159247D02*
X190004217Y-94159247D01*
X190375646Y-94587819D02*
X190375646Y-93587819D01*
X190375646Y-93587819D02*
X190718503Y-94587819D01*
X190718503Y-94587819D02*
X190718503Y-93587819D01*
X191004217Y-94587819D02*
X191004217Y-93587819D01*
X191004217Y-93587819D02*
X191147074Y-93587819D01*
X191147074Y-93587819D02*
X191232788Y-93635438D01*
X191232788Y-93635438D02*
X191289931Y-93730676D01*
X191289931Y-93730676D02*
X191318502Y-93825914D01*
X191318502Y-93825914D02*
X191347074Y-94016390D01*
X191347074Y-94016390D02*
X191347074Y-94159247D01*
X191347074Y-94159247D02*
X191318502Y-94349723D01*
X191318502Y-94349723D02*
X191289931Y-94444961D01*
X191289931Y-94444961D02*
X191232788Y-94540200D01*
X191232788Y-94540200D02*
X191147074Y-94587819D01*
X191147074Y-94587819D02*
X191004217Y-94587819D01*
X189924874Y-97004000D02*
X190010589Y-97051619D01*
X190010589Y-97051619D02*
X190153446Y-97051619D01*
X190153446Y-97051619D02*
X190210589Y-97004000D01*
X190210589Y-97004000D02*
X190239160Y-96956380D01*
X190239160Y-96956380D02*
X190267731Y-96861142D01*
X190267731Y-96861142D02*
X190267731Y-96765904D01*
X190267731Y-96765904D02*
X190239160Y-96670666D01*
X190239160Y-96670666D02*
X190210589Y-96623047D01*
X190210589Y-96623047D02*
X190153446Y-96575428D01*
X190153446Y-96575428D02*
X190039160Y-96527809D01*
X190039160Y-96527809D02*
X189982017Y-96480190D01*
X189982017Y-96480190D02*
X189953446Y-96432571D01*
X189953446Y-96432571D02*
X189924874Y-96337333D01*
X189924874Y-96337333D02*
X189924874Y-96242095D01*
X189924874Y-96242095D02*
X189953446Y-96146857D01*
X189953446Y-96146857D02*
X189982017Y-96099238D01*
X189982017Y-96099238D02*
X190039160Y-96051619D01*
X190039160Y-96051619D02*
X190182017Y-96051619D01*
X190182017Y-96051619D02*
X190267731Y-96099238D01*
X190867732Y-96956380D02*
X190839160Y-97004000D01*
X190839160Y-97004000D02*
X190753446Y-97051619D01*
X190753446Y-97051619D02*
X190696303Y-97051619D01*
X190696303Y-97051619D02*
X190610589Y-97004000D01*
X190610589Y-97004000D02*
X190553446Y-96908761D01*
X190553446Y-96908761D02*
X190524875Y-96813523D01*
X190524875Y-96813523D02*
X190496303Y-96623047D01*
X190496303Y-96623047D02*
X190496303Y-96480190D01*
X190496303Y-96480190D02*
X190524875Y-96289714D01*
X190524875Y-96289714D02*
X190553446Y-96194476D01*
X190553446Y-96194476D02*
X190610589Y-96099238D01*
X190610589Y-96099238D02*
X190696303Y-96051619D01*
X190696303Y-96051619D02*
X190753446Y-96051619D01*
X190753446Y-96051619D02*
X190839160Y-96099238D01*
X190839160Y-96099238D02*
X190867732Y-96146857D01*
X191410589Y-97051619D02*
X191124875Y-97051619D01*
X191124875Y-97051619D02*
X191124875Y-96051619D01*
X190226503Y-103874819D02*
X190626503Y-104874819D01*
X190626503Y-103874819D02*
X190226503Y-104874819D01*
X191197932Y-104779580D02*
X191169360Y-104827200D01*
X191169360Y-104827200D02*
X191083646Y-104874819D01*
X191083646Y-104874819D02*
X191026503Y-104874819D01*
X191026503Y-104874819D02*
X190940789Y-104827200D01*
X190940789Y-104827200D02*
X190883646Y-104731961D01*
X190883646Y-104731961D02*
X190855075Y-104636723D01*
X190855075Y-104636723D02*
X190826503Y-104446247D01*
X190826503Y-104446247D02*
X190826503Y-104303390D01*
X190826503Y-104303390D02*
X190855075Y-104112914D01*
X190855075Y-104112914D02*
X190883646Y-104017676D01*
X190883646Y-104017676D02*
X190940789Y-103922438D01*
X190940789Y-103922438D02*
X191026503Y-103874819D01*
X191026503Y-103874819D02*
X191083646Y-103874819D01*
X191083646Y-103874819D02*
X191169360Y-103922438D01*
X191169360Y-103922438D02*
X191197932Y-103970057D01*
X191740789Y-104874819D02*
X191455075Y-104874819D01*
X191455075Y-104874819D02*
X191455075Y-103874819D01*
X190283646Y-109827819D02*
X190283646Y-108827819D01*
X190569360Y-109827819D02*
X190569360Y-108827819D01*
X190569360Y-108827819D02*
X190912217Y-109827819D01*
X190912217Y-109827819D02*
X190912217Y-108827819D01*
X191112216Y-108827819D02*
X191455074Y-108827819D01*
X191283645Y-109827819D02*
X191283645Y-108827819D01*
D13*
X164625000Y-89140000D02*
X164125000Y-89140000D01*
X164625000Y-88640000D01*
X164625000Y-89140000D01*
G36*
X164625000Y-89140000D02*
G01*
X164125000Y-89140000D01*
X164625000Y-88640000D01*
X164625000Y-89140000D01*
G37*
X182870000Y-107995000D02*
X181870000Y-107995000D01*
X182870000Y-107215000D02*
X182870000Y-107995000D01*
X182870000Y-82255000D02*
X182870000Y-88670000D01*
X164630000Y-107995000D02*
X165630000Y-107995000D01*
X164630000Y-107215000D02*
X164630000Y-107995000D01*
X164630000Y-82255000D02*
X182870000Y-82255000D01*
X164630000Y-82255000D02*
X164630000Y-88415000D01*
X174180000Y-115485000D02*
X177780000Y-115485000D01*
X174141522Y-115473478D02*
G75*
G02*
X175980000Y-111034999I1838478J1838478D01*
G01*
X175980000Y-111035000D02*
G75*
G02*
X177818478Y-115473478I0J-2600000D01*
G01*
X166435436Y-112900000D02*
X166889564Y-112900000D01*
X166435436Y-114370000D02*
X166889564Y-114370000D01*
D12*
X124350000Y-67635000D02*
X149350000Y-67635000D01*
X124350000Y-67635000D02*
X149350000Y-67635000D01*
X124350000Y-117635000D02*
X124350000Y-67635000D01*
X124350000Y-117635000D02*
X124350000Y-67635000D01*
X149350000Y-67635000D02*
X149350000Y-117635000D01*
X149350000Y-67635000D02*
X149350000Y-117635000D01*
X149350000Y-117635000D02*
X124350000Y-117635000D01*
X149350000Y-117635000D02*
X124350000Y-117635000D01*
X124350000Y-67635000D02*
X149350000Y-67635000D01*
X149350000Y-117635000D01*
X124350000Y-117635000D01*
X124350000Y-67635000D01*
X186250000Y-90135000D02*
X200250000Y-90135000D01*
X186250000Y-111135000D02*
X186250000Y-90135000D01*
X200250000Y-90135000D02*
X200250000Y-111135000D01*
X200250000Y-111135000D02*
X186250000Y-111135000D01*
%LPC*%
G36*
X134771256Y-114793754D02*
G01*
X134934257Y-114861271D01*
X135080954Y-114959291D01*
X135205709Y-115084046D01*
X135303729Y-115230743D01*
X135371246Y-115393744D01*
X135405666Y-115566785D01*
X135405666Y-115743215D01*
X135371246Y-115916256D01*
X135303729Y-116079257D01*
X135205709Y-116225954D01*
X135080954Y-116350709D01*
X134934257Y-116448729D01*
X134771256Y-116516246D01*
X134598215Y-116550666D01*
X134421785Y-116550666D01*
X134248744Y-116516246D01*
X134085743Y-116448729D01*
X133939046Y-116350709D01*
X133814291Y-116225954D01*
X133716271Y-116079257D01*
X133648754Y-115916256D01*
X133614334Y-115743215D01*
X133614334Y-115566785D01*
X133648754Y-115393744D01*
X133716271Y-115230743D01*
X133814291Y-115084046D01*
X133939046Y-114959291D01*
X134085743Y-114861271D01*
X134248744Y-114793754D01*
X134421785Y-114759334D01*
X134598215Y-114759334D01*
X134771256Y-114793754D01*
G37*
G36*
X137311256Y-114793754D02*
G01*
X137474257Y-114861271D01*
X137620954Y-114959291D01*
X137745709Y-115084046D01*
X137843729Y-115230743D01*
X137911246Y-115393744D01*
X137945666Y-115566785D01*
X137945666Y-115743215D01*
X137911246Y-115916256D01*
X137843729Y-116079257D01*
X137745709Y-116225954D01*
X137620954Y-116350709D01*
X137474257Y-116448729D01*
X137311256Y-116516246D01*
X137138215Y-116550666D01*
X136961785Y-116550666D01*
X136788744Y-116516246D01*
X136625743Y-116448729D01*
X136479046Y-116350709D01*
X136354291Y-116225954D01*
X136256271Y-116079257D01*
X136188754Y-115916256D01*
X136154334Y-115743215D01*
X136154334Y-115566785D01*
X136188754Y-115393744D01*
X136256271Y-115230743D01*
X136354291Y-115084046D01*
X136479046Y-114959291D01*
X136625743Y-114861271D01*
X136788744Y-114793754D01*
X136961785Y-114759334D01*
X137138215Y-114759334D01*
X137311256Y-114793754D01*
G37*
G36*
X139851256Y-114793754D02*
G01*
X140014257Y-114861271D01*
X140160954Y-114959291D01*
X140285709Y-115084046D01*
X140383729Y-115230743D01*
X140451246Y-115393744D01*
X140485666Y-115566785D01*
X140485666Y-115743215D01*
X140451246Y-115916256D01*
X140383729Y-116079257D01*
X140285709Y-116225954D01*
X140160954Y-116350709D01*
X140014257Y-116448729D01*
X139851256Y-116516246D01*
X139678215Y-116550666D01*
X139501785Y-116550666D01*
X139328744Y-116516246D01*
X139165743Y-116448729D01*
X139019046Y-116350709D01*
X138894291Y-116225954D01*
X138796271Y-116079257D01*
X138728754Y-115916256D01*
X138694334Y-115743215D01*
X138694334Y-115566785D01*
X138728754Y-115393744D01*
X138796271Y-115230743D01*
X138894291Y-115084046D01*
X139019046Y-114959291D01*
X139165743Y-114861271D01*
X139328744Y-114793754D01*
X139501785Y-114759334D01*
X139678215Y-114759334D01*
X139851256Y-114793754D01*
G37*
G36*
X142391256Y-114793754D02*
G01*
X142554257Y-114861271D01*
X142700954Y-114959291D01*
X142825709Y-115084046D01*
X142923729Y-115230743D01*
X142991246Y-115393744D01*
X143025666Y-115566785D01*
X143025666Y-115743215D01*
X142991246Y-115916256D01*
X142923729Y-116079257D01*
X142825709Y-116225954D01*
X142700954Y-116350709D01*
X142554257Y-116448729D01*
X142391256Y-116516246D01*
X142218215Y-116550666D01*
X142041785Y-116550666D01*
X141868744Y-116516246D01*
X141705743Y-116448729D01*
X141559046Y-116350709D01*
X141434291Y-116225954D01*
X141336271Y-116079257D01*
X141268754Y-115916256D01*
X141234334Y-115743215D01*
X141234334Y-115566785D01*
X141268754Y-115393744D01*
X141336271Y-115230743D01*
X141434291Y-115084046D01*
X141559046Y-114959291D01*
X141705743Y-114861271D01*
X141868744Y-114793754D01*
X142041785Y-114759334D01*
X142218215Y-114759334D01*
X142391256Y-114793754D01*
G37*
G36*
X175235000Y-114385000D02*
G01*
X174185000Y-114385000D01*
X174185000Y-112885000D01*
X175235000Y-112885000D01*
X175235000Y-114385000D01*
G37*
G36*
X176180909Y-112924963D02*
G01*
X176299600Y-112993489D01*
X176396511Y-113090400D01*
X176465037Y-113209091D01*
X176500509Y-113341474D01*
X176505000Y-113410000D01*
X176505000Y-113860000D01*
X176500509Y-113928526D01*
X176465037Y-114060909D01*
X176396511Y-114179600D01*
X176299600Y-114276511D01*
X176180909Y-114345037D01*
X176048526Y-114380509D01*
X175911474Y-114380509D01*
X175779091Y-114345037D01*
X175660400Y-114276511D01*
X175563489Y-114179600D01*
X175494963Y-114060909D01*
X175459491Y-113928526D01*
X175455000Y-113860000D01*
X175455000Y-113410000D01*
X175459491Y-113341474D01*
X175494963Y-113209091D01*
X175563489Y-113090400D01*
X175660400Y-112993489D01*
X175779091Y-112924963D01*
X175911474Y-112889491D01*
X176048526Y-112889491D01*
X176180909Y-112924963D01*
G37*
G36*
X177450909Y-112924963D02*
G01*
X177569600Y-112993489D01*
X177666511Y-113090400D01*
X177735037Y-113209091D01*
X177770509Y-113341474D01*
X177775000Y-113410000D01*
X177775000Y-113860000D01*
X177770509Y-113928526D01*
X177735037Y-114060909D01*
X177666511Y-114179600D01*
X177569600Y-114276511D01*
X177450909Y-114345037D01*
X177318526Y-114380509D01*
X177181474Y-114380509D01*
X177049091Y-114345037D01*
X176930400Y-114276511D01*
X176833489Y-114179600D01*
X176764963Y-114060909D01*
X176729491Y-113928526D01*
X176725000Y-113860000D01*
X176725000Y-113410000D01*
X176729491Y-113341474D01*
X176764963Y-113209091D01*
X176833489Y-113090400D01*
X176930400Y-112993489D01*
X177049091Y-112924963D01*
X177181474Y-112889491D01*
X177318526Y-112889491D01*
X177450909Y-112924963D01*
G37*
G36*
X166017350Y-112935964D02*
G01*
X166067540Y-112941787D01*
X166084689Y-112949359D01*
X166108171Y-112954030D01*
X166133310Y-112970827D01*
X166153196Y-112979608D01*
X166166777Y-112993189D01*
X166189277Y-113008223D01*
X166204310Y-113030722D01*
X166217891Y-113044303D01*
X166226670Y-113064186D01*
X166243470Y-113089329D01*
X166248141Y-113112812D01*
X166255712Y-113129959D01*
X166261533Y-113180139D01*
X166262500Y-113185000D01*
X166262500Y-114085000D01*
X166261532Y-114089863D01*
X166255712Y-114140040D01*
X166248141Y-114157185D01*
X166243470Y-114180671D01*
X166226669Y-114205815D01*
X166217891Y-114225696D01*
X166204312Y-114239274D01*
X166189277Y-114261777D01*
X166166774Y-114276812D01*
X166153196Y-114290391D01*
X166133315Y-114299169D01*
X166108171Y-114315970D01*
X166084685Y-114320641D01*
X166067540Y-114328212D01*
X166017361Y-114334032D01*
X166012500Y-114335000D01*
X165487500Y-114335000D01*
X165482638Y-114334032D01*
X165432459Y-114328212D01*
X165415312Y-114320641D01*
X165391829Y-114315970D01*
X165366686Y-114299170D01*
X165346803Y-114290391D01*
X165333222Y-114276810D01*
X165310723Y-114261777D01*
X165295689Y-114239277D01*
X165282108Y-114225696D01*
X165273327Y-114205810D01*
X165256530Y-114180671D01*
X165251859Y-114157189D01*
X165244287Y-114140040D01*
X165238464Y-114089849D01*
X165237500Y-114085000D01*
X165237500Y-113185000D01*
X165238464Y-113180150D01*
X165244287Y-113129959D01*
X165251859Y-113112808D01*
X165256530Y-113089329D01*
X165273326Y-113064191D01*
X165282108Y-113044303D01*
X165295691Y-113030719D01*
X165310723Y-113008223D01*
X165333219Y-112993191D01*
X165346803Y-112979608D01*
X165366691Y-112970826D01*
X165391829Y-112954030D01*
X165415308Y-112949359D01*
X165432459Y-112941787D01*
X165482651Y-112935964D01*
X165487500Y-112935000D01*
X166012500Y-112935000D01*
X166017350Y-112935964D01*
G37*
G36*
X167842350Y-112935964D02*
G01*
X167892540Y-112941787D01*
X167909689Y-112949359D01*
X167933171Y-112954030D01*
X167958310Y-112970827D01*
X167978196Y-112979608D01*
X167991777Y-112993189D01*
X168014277Y-113008223D01*
X168029310Y-113030722D01*
X168042891Y-113044303D01*
X168051670Y-113064186D01*
X168068470Y-113089329D01*
X168073141Y-113112812D01*
X168080712Y-113129959D01*
X168086533Y-113180139D01*
X168087500Y-113185000D01*
X168087500Y-114085000D01*
X168086532Y-114089863D01*
X168080712Y-114140040D01*
X168073141Y-114157185D01*
X168068470Y-114180671D01*
X168051669Y-114205815D01*
X168042891Y-114225696D01*
X168029312Y-114239274D01*
X168014277Y-114261777D01*
X167991774Y-114276812D01*
X167978196Y-114290391D01*
X167958315Y-114299169D01*
X167933171Y-114315970D01*
X167909685Y-114320641D01*
X167892540Y-114328212D01*
X167842361Y-114334032D01*
X167837500Y-114335000D01*
X167312500Y-114335000D01*
X167307638Y-114334032D01*
X167257459Y-114328212D01*
X167240312Y-114320641D01*
X167216829Y-114315970D01*
X167191686Y-114299170D01*
X167171803Y-114290391D01*
X167158222Y-114276810D01*
X167135723Y-114261777D01*
X167120689Y-114239277D01*
X167107108Y-114225696D01*
X167098327Y-114205810D01*
X167081530Y-114180671D01*
X167076859Y-114157189D01*
X167069287Y-114140040D01*
X167063464Y-114089849D01*
X167062500Y-114085000D01*
X167062500Y-113185000D01*
X167063464Y-113180150D01*
X167069287Y-113129959D01*
X167076859Y-113112808D01*
X167081530Y-113089329D01*
X167098326Y-113064191D01*
X167107108Y-113044303D01*
X167120691Y-113030719D01*
X167135723Y-113008223D01*
X167158219Y-112993191D01*
X167171803Y-112979608D01*
X167191691Y-112970826D01*
X167216829Y-112954030D01*
X167240308Y-112949359D01*
X167257459Y-112941787D01*
X167307651Y-112935964D01*
X167312500Y-112935000D01*
X167837500Y-112935000D01*
X167842350Y-112935964D01*
G37*
G36*
X188431256Y-108433754D02*
G01*
X188594257Y-108501271D01*
X188740954Y-108599291D01*
X188865709Y-108724046D01*
X188963729Y-108870743D01*
X189031246Y-109033744D01*
X189065666Y-109206785D01*
X189065666Y-109383215D01*
X189031246Y-109556256D01*
X188963729Y-109719257D01*
X188865709Y-109865954D01*
X188740954Y-109990709D01*
X188594257Y-110088729D01*
X188431256Y-110156246D01*
X188258215Y-110190666D01*
X188081785Y-110190666D01*
X187908744Y-110156246D01*
X187745743Y-110088729D01*
X187599046Y-109990709D01*
X187474291Y-109865954D01*
X187376271Y-109719257D01*
X187308754Y-109556256D01*
X187274334Y-109383215D01*
X187274334Y-109206785D01*
X187308754Y-109033744D01*
X187376271Y-108870743D01*
X187474291Y-108724046D01*
X187599046Y-108599291D01*
X187745743Y-108501271D01*
X187908744Y-108433754D01*
X188081785Y-108399334D01*
X188258215Y-108399334D01*
X188431256Y-108433754D01*
G37*
G36*
X168490000Y-108375000D02*
G01*
X167590000Y-108375000D01*
X167590000Y-106875000D01*
X168490000Y-106875000D01*
X168490000Y-108375000D01*
G37*
G36*
X169760000Y-108375000D02*
G01*
X168860000Y-108375000D01*
X168860000Y-106875000D01*
X169760000Y-106875000D01*
X169760000Y-108375000D01*
G37*
G36*
X171030000Y-108375000D02*
G01*
X170130000Y-108375000D01*
X170130000Y-106875000D01*
X171030000Y-106875000D01*
X171030000Y-108375000D01*
G37*
G36*
X172300000Y-108375000D02*
G01*
X171400000Y-108375000D01*
X171400000Y-106875000D01*
X172300000Y-106875000D01*
X172300000Y-108375000D01*
G37*
G36*
X173570000Y-108375000D02*
G01*
X172670000Y-108375000D01*
X172670000Y-106875000D01*
X173570000Y-106875000D01*
X173570000Y-108375000D01*
G37*
G36*
X174840000Y-108375000D02*
G01*
X173940000Y-108375000D01*
X173940000Y-106875000D01*
X174840000Y-106875000D01*
X174840000Y-108375000D01*
G37*
G36*
X176110000Y-108375000D02*
G01*
X175210000Y-108375000D01*
X175210000Y-106875000D01*
X176110000Y-106875000D01*
X176110000Y-108375000D01*
G37*
G36*
X177380000Y-108375000D02*
G01*
X176480000Y-108375000D01*
X176480000Y-106875000D01*
X177380000Y-106875000D01*
X177380000Y-108375000D01*
G37*
G36*
X178650000Y-108375000D02*
G01*
X177750000Y-108375000D01*
X177750000Y-106875000D01*
X178650000Y-106875000D01*
X178650000Y-108375000D01*
G37*
G36*
X179920000Y-108375000D02*
G01*
X179020000Y-108375000D01*
X179020000Y-106875000D01*
X179920000Y-106875000D01*
X179920000Y-108375000D01*
G37*
G36*
X188431256Y-105893754D02*
G01*
X188594257Y-105961271D01*
X188740954Y-106059291D01*
X188865709Y-106184046D01*
X188963729Y-106330743D01*
X189031246Y-106493744D01*
X189065666Y-106666785D01*
X189065666Y-106843215D01*
X189031246Y-107016256D01*
X188963729Y-107179257D01*
X188865709Y-107325954D01*
X188740954Y-107450709D01*
X188594257Y-107548729D01*
X188431256Y-107616246D01*
X188258215Y-107650666D01*
X188081785Y-107650666D01*
X187908744Y-107616246D01*
X187745743Y-107548729D01*
X187599046Y-107450709D01*
X187474291Y-107325954D01*
X187376271Y-107179257D01*
X187308754Y-107016256D01*
X187274334Y-106843215D01*
X187274334Y-106666785D01*
X187308754Y-106493744D01*
X187376271Y-106330743D01*
X187474291Y-106184046D01*
X187599046Y-106059291D01*
X187745743Y-105961271D01*
X187908744Y-105893754D01*
X188081785Y-105859334D01*
X188258215Y-105859334D01*
X188431256Y-105893754D01*
G37*
G36*
X165750000Y-106825000D02*
G01*
X164250000Y-106825000D01*
X164250000Y-105925000D01*
X165750000Y-105925000D01*
X165750000Y-106825000D01*
G37*
G36*
X183250000Y-106825000D02*
G01*
X181750000Y-106825000D01*
X181750000Y-105925000D01*
X183250000Y-105925000D01*
X183250000Y-106825000D01*
G37*
G36*
X165750000Y-105555000D02*
G01*
X164250000Y-105555000D01*
X164250000Y-104655000D01*
X165750000Y-104655000D01*
X165750000Y-105555000D01*
G37*
G36*
X183250000Y-105555000D02*
G01*
X181750000Y-105555000D01*
X181750000Y-104655000D01*
X183250000Y-104655000D01*
X183250000Y-105555000D01*
G37*
G36*
X188431256Y-103353754D02*
G01*
X188594257Y-103421271D01*
X188740954Y-103519291D01*
X188865709Y-103644046D01*
X188963729Y-103790743D01*
X189031246Y-103953744D01*
X189065666Y-104126785D01*
X189065666Y-104303215D01*
X189031246Y-104476256D01*
X188963729Y-104639257D01*
X188865709Y-104785954D01*
X188740954Y-104910709D01*
X188594257Y-105008729D01*
X188431256Y-105076246D01*
X188258215Y-105110666D01*
X188081785Y-105110666D01*
X187908744Y-105076246D01*
X187745743Y-105008729D01*
X187599046Y-104910709D01*
X187474291Y-104785954D01*
X187376271Y-104639257D01*
X187308754Y-104476256D01*
X187274334Y-104303215D01*
X187274334Y-104126785D01*
X187308754Y-103953744D01*
X187376271Y-103790743D01*
X187474291Y-103644046D01*
X187599046Y-103519291D01*
X187745743Y-103421271D01*
X187908744Y-103353754D01*
X188081785Y-103319334D01*
X188258215Y-103319334D01*
X188431256Y-103353754D01*
G37*
G36*
X165750000Y-104285000D02*
G01*
X164250000Y-104285000D01*
X164250000Y-103385000D01*
X165750000Y-103385000D01*
X165750000Y-104285000D01*
G37*
G36*
X183250000Y-104285000D02*
G01*
X181750000Y-104285000D01*
X181750000Y-103385000D01*
X183250000Y-103385000D01*
X183250000Y-104285000D01*
G37*
G36*
X165750000Y-103015000D02*
G01*
X164250000Y-103015000D01*
X164250000Y-102115000D01*
X165750000Y-102115000D01*
X165750000Y-103015000D01*
G37*
G36*
X183250000Y-103015000D02*
G01*
X181750000Y-103015000D01*
X181750000Y-102115000D01*
X183250000Y-102115000D01*
X183250000Y-103015000D01*
G37*
G36*
X188431256Y-100813754D02*
G01*
X188594257Y-100881271D01*
X188740954Y-100979291D01*
X188865709Y-101104046D01*
X188963729Y-101250743D01*
X189031246Y-101413744D01*
X189065666Y-101586785D01*
X189065666Y-101763215D01*
X189031246Y-101936256D01*
X188963729Y-102099257D01*
X188865709Y-102245954D01*
X188740954Y-102370709D01*
X188594257Y-102468729D01*
X188431256Y-102536246D01*
X188258215Y-102570666D01*
X188081785Y-102570666D01*
X187908744Y-102536246D01*
X187745743Y-102468729D01*
X187599046Y-102370709D01*
X187474291Y-102245954D01*
X187376271Y-102099257D01*
X187308754Y-101936256D01*
X187274334Y-101763215D01*
X187274334Y-101586785D01*
X187308754Y-101413744D01*
X187376271Y-101250743D01*
X187474291Y-101104046D01*
X187599046Y-100979291D01*
X187745743Y-100881271D01*
X187908744Y-100813754D01*
X188081785Y-100779334D01*
X188258215Y-100779334D01*
X188431256Y-100813754D01*
G37*
G36*
X165750000Y-101745000D02*
G01*
X164250000Y-101745000D01*
X164250000Y-100845000D01*
X165750000Y-100845000D01*
X165750000Y-101745000D01*
G37*
G36*
X183250000Y-101745000D02*
G01*
X181750000Y-101745000D01*
X181750000Y-100845000D01*
X183250000Y-100845000D01*
X183250000Y-101745000D01*
G37*
G36*
X165750000Y-100475000D02*
G01*
X164250000Y-100475000D01*
X164250000Y-99575000D01*
X165750000Y-99575000D01*
X165750000Y-100475000D01*
G37*
G36*
X183250000Y-100475000D02*
G01*
X181750000Y-100475000D01*
X181750000Y-99575000D01*
X183250000Y-99575000D01*
X183250000Y-100475000D01*
G37*
G36*
X188431256Y-98273754D02*
G01*
X188594257Y-98341271D01*
X188740954Y-98439291D01*
X188865709Y-98564046D01*
X188963729Y-98710743D01*
X189031246Y-98873744D01*
X189065666Y-99046785D01*
X189065666Y-99223215D01*
X189031246Y-99396256D01*
X188963729Y-99559257D01*
X188865709Y-99705954D01*
X188740954Y-99830709D01*
X188594257Y-99928729D01*
X188431256Y-99996246D01*
X188258215Y-100030666D01*
X188081785Y-100030666D01*
X187908744Y-99996246D01*
X187745743Y-99928729D01*
X187599046Y-99830709D01*
X187474291Y-99705954D01*
X187376271Y-99559257D01*
X187308754Y-99396256D01*
X187274334Y-99223215D01*
X187274334Y-99046785D01*
X187308754Y-98873744D01*
X187376271Y-98710743D01*
X187474291Y-98564046D01*
X187599046Y-98439291D01*
X187745743Y-98341271D01*
X187908744Y-98273754D01*
X188081785Y-98239334D01*
X188258215Y-98239334D01*
X188431256Y-98273754D01*
G37*
G36*
X175170000Y-99305000D02*
G01*
X170970000Y-99305000D01*
X170970000Y-95105000D01*
X175170000Y-95105000D01*
X175170000Y-99305000D01*
G37*
G36*
X165750000Y-99205000D02*
G01*
X164250000Y-99205000D01*
X164250000Y-98305000D01*
X165750000Y-98305000D01*
X165750000Y-99205000D01*
G37*
G36*
X183250000Y-99205000D02*
G01*
X181750000Y-99205000D01*
X181750000Y-98305000D01*
X183250000Y-98305000D01*
X183250000Y-99205000D01*
G37*
G36*
X165750000Y-97935000D02*
G01*
X164250000Y-97935000D01*
X164250000Y-97035000D01*
X165750000Y-97035000D01*
X165750000Y-97935000D01*
G37*
G36*
X183250000Y-97935000D02*
G01*
X181750000Y-97935000D01*
X181750000Y-97035000D01*
X183250000Y-97035000D01*
X183250000Y-97935000D01*
G37*
G36*
X188431256Y-95733754D02*
G01*
X188594257Y-95801271D01*
X188740954Y-95899291D01*
X188865709Y-96024046D01*
X188963729Y-96170743D01*
X189031246Y-96333744D01*
X189065666Y-96506785D01*
X189065666Y-96683215D01*
X189031246Y-96856256D01*
X188963729Y-97019257D01*
X188865709Y-97165954D01*
X188740954Y-97290709D01*
X188594257Y-97388729D01*
X188431256Y-97456246D01*
X188258215Y-97490666D01*
X188081785Y-97490666D01*
X187908744Y-97456246D01*
X187745743Y-97388729D01*
X187599046Y-97290709D01*
X187474291Y-97165954D01*
X187376271Y-97019257D01*
X187308754Y-96856256D01*
X187274334Y-96683215D01*
X187274334Y-96506785D01*
X187308754Y-96333744D01*
X187376271Y-96170743D01*
X187474291Y-96024046D01*
X187599046Y-95899291D01*
X187745743Y-95801271D01*
X187908744Y-95733754D01*
X188081785Y-95699334D01*
X188258215Y-95699334D01*
X188431256Y-95733754D01*
G37*
G36*
X165750000Y-96665000D02*
G01*
X164250000Y-96665000D01*
X164250000Y-95765000D01*
X165750000Y-95765000D01*
X165750000Y-96665000D01*
G37*
G36*
X183250000Y-96665000D02*
G01*
X181750000Y-96665000D01*
X181750000Y-95765000D01*
X183250000Y-95765000D01*
X183250000Y-96665000D01*
G37*
G36*
X165750000Y-95395000D02*
G01*
X164250000Y-95395000D01*
X164250000Y-94495000D01*
X165750000Y-94495000D01*
X165750000Y-95395000D01*
G37*
G36*
X183250000Y-95395000D02*
G01*
X181750000Y-95395000D01*
X181750000Y-94495000D01*
X183250000Y-94495000D01*
X183250000Y-95395000D01*
G37*
G36*
X188431256Y-93193754D02*
G01*
X188594257Y-93261271D01*
X188740954Y-93359291D01*
X188865709Y-93484046D01*
X188963729Y-93630743D01*
X189031246Y-93793744D01*
X189065666Y-93966785D01*
X189065666Y-94143215D01*
X189031246Y-94316256D01*
X188963729Y-94479257D01*
X188865709Y-94625954D01*
X188740954Y-94750709D01*
X188594257Y-94848729D01*
X188431256Y-94916246D01*
X188258215Y-94950666D01*
X188081785Y-94950666D01*
X187908744Y-94916246D01*
X187745743Y-94848729D01*
X187599046Y-94750709D01*
X187474291Y-94625954D01*
X187376271Y-94479257D01*
X187308754Y-94316256D01*
X187274334Y-94143215D01*
X187274334Y-93966785D01*
X187308754Y-93793744D01*
X187376271Y-93630743D01*
X187474291Y-93484046D01*
X187599046Y-93359291D01*
X187745743Y-93261271D01*
X187908744Y-93193754D01*
X188081785Y-93159334D01*
X188258215Y-93159334D01*
X188431256Y-93193754D01*
G37*
G36*
X165750000Y-94125000D02*
G01*
X164250000Y-94125000D01*
X164250000Y-93225000D01*
X165750000Y-93225000D01*
X165750000Y-94125000D01*
G37*
G36*
X183250000Y-94125000D02*
G01*
X181750000Y-94125000D01*
X181750000Y-93225000D01*
X183250000Y-93225000D01*
X183250000Y-94125000D01*
G37*
G36*
X165750000Y-92855000D02*
G01*
X164250000Y-92855000D01*
X164250000Y-91955000D01*
X165750000Y-91955000D01*
X165750000Y-92855000D01*
G37*
G36*
X183250000Y-92855000D02*
G01*
X181750000Y-92855000D01*
X181750000Y-91955000D01*
X183250000Y-91955000D01*
X183250000Y-92855000D01*
G37*
G36*
X188431256Y-90653754D02*
G01*
X188594257Y-90721271D01*
X188740954Y-90819291D01*
X188865709Y-90944046D01*
X188963729Y-91090743D01*
X189031246Y-91253744D01*
X189065666Y-91426785D01*
X189065666Y-91603215D01*
X189031246Y-91776256D01*
X188963729Y-91939257D01*
X188865709Y-92085954D01*
X188740954Y-92210709D01*
X188594257Y-92308729D01*
X188431256Y-92376246D01*
X188258215Y-92410666D01*
X188081785Y-92410666D01*
X187908744Y-92376246D01*
X187745743Y-92308729D01*
X187599046Y-92210709D01*
X187474291Y-92085954D01*
X187376271Y-91939257D01*
X187308754Y-91776256D01*
X187274334Y-91603215D01*
X187274334Y-91426785D01*
X187308754Y-91253744D01*
X187376271Y-91090743D01*
X187474291Y-90944046D01*
X187599046Y-90819291D01*
X187745743Y-90721271D01*
X187908744Y-90653754D01*
X188081785Y-90619334D01*
X188258215Y-90619334D01*
X188431256Y-90653754D01*
G37*
G36*
X165750000Y-91585000D02*
G01*
X164250000Y-91585000D01*
X164250000Y-90685000D01*
X165750000Y-90685000D01*
X165750000Y-91585000D01*
G37*
G36*
X183250000Y-91585000D02*
G01*
X181750000Y-91585000D01*
X181750000Y-90685000D01*
X183250000Y-90685000D01*
X183250000Y-91585000D01*
G37*
G36*
X165750000Y-90315000D02*
G01*
X164250000Y-90315000D01*
X164250000Y-89415000D01*
X165750000Y-89415000D01*
X165750000Y-90315000D01*
G37*
G36*
X183250000Y-90315000D02*
G01*
X181750000Y-90315000D01*
X181750000Y-89415000D01*
X183250000Y-89415000D01*
X183250000Y-90315000D01*
G37*
%LPD*%
M02*
