%TF.GenerationSoftware,KiCad,Pcbnew,9.0.6*%
%TF.CreationDate,2025-12-16T20:05:36+05:30*%
%TF.ProjectId,rumination,72756d69-6e61-4746-996f-6e2e6b696361,rev?*%
%TF.SameCoordinates,Original*%
%TF.FileFunction,Drillmap*%
%TF.FilePolarity,Positive*%
%FSLAX45Y45*%
G04 Gerber Fmt 4.5, Leading zero omitted, Abs format (unit mm)*
G04 Created by KiCad (PCBNEW 9.0.6) date 2025-12-16 20:05:36*
%MOMM*%
%LPD*%
G01*
G04 APERTURE LIST*
%ADD10C,0.038100*%
%ADD11C,0.200000*%
%ADD12C,0.100000*%
G04 APERTURE END LIST*
D10*
X20500000Y-6500000D02*
X12000000Y-6500000D01*
X12000000Y-6500000D02*
X12000000Y-12000000D01*
X12000000Y-12000000D02*
X20500000Y-12000000D01*
X20500000Y-12000000D02*
X20500000Y-6500000D01*
D11*
D12*
X17144500Y-9634250D02*
X17164500Y-9654250D01*
X17164500Y-9634250D02*
X17144500Y-9654250D01*
X17144500Y-9786750D02*
X17164500Y-9806750D01*
X17164500Y-9786750D02*
X17144500Y-9806750D01*
X17220750Y-9558000D02*
X17240750Y-9578000D01*
X17240750Y-9558000D02*
X17220750Y-9578000D01*
X17220750Y-9710500D02*
X17240750Y-9730500D01*
X17240750Y-9710500D02*
X17220750Y-9730500D01*
X17220750Y-9863000D02*
X17240750Y-9883000D01*
X17240750Y-9863000D02*
X17220750Y-9883000D01*
X17297000Y-9634250D02*
X17317000Y-9654250D01*
X17317000Y-9634250D02*
X17297000Y-9654250D01*
X17297000Y-9786750D02*
X17317000Y-9806750D01*
X17317000Y-9786750D02*
X17297000Y-9806750D01*
X17373250Y-9558000D02*
X17393250Y-9578000D01*
X17393250Y-9558000D02*
X17373250Y-9578000D01*
X17373250Y-9710500D02*
X17393250Y-9730500D01*
X17393250Y-9710500D02*
X17373250Y-9730500D01*
X17373250Y-9863000D02*
X17393250Y-9883000D01*
X17393250Y-9863000D02*
X17373250Y-9883000D01*
X17449500Y-9634250D02*
X17469500Y-9654250D01*
X17469500Y-9634250D02*
X17449500Y-9654250D01*
X17449500Y-9786750D02*
X17469500Y-9806750D01*
X17469500Y-9786750D02*
X17449500Y-9806750D01*
X16215000Y-11600000D02*
G75*
G02*
X16185000Y-11600000I-15000J0D01*
G01*
X16185000Y-11600000D02*
G75*
G02*
X16215000Y-11600000I15000J0D01*
G01*
X16415000Y-11426200D02*
G75*
G02*
X16385000Y-11426200I-15000J0D01*
G01*
X16385000Y-11426200D02*
G75*
G02*
X16415000Y-11426200I15000J0D01*
G01*
X16715000Y-9000000D02*
G75*
G02*
X16685000Y-9000000I-15000J0D01*
G01*
X16685000Y-9000000D02*
G75*
G02*
X16715000Y-9000000I15000J0D01*
G01*
X18415000Y-9582300D02*
G75*
G02*
X18385000Y-9582300I-15000J0D01*
G01*
X18385000Y-9582300D02*
G75*
G02*
X18415000Y-9582300I15000J0D01*
G01*
X18415000Y-9800000D02*
G75*
G02*
X18385000Y-9800000I-15000J0D01*
G01*
X18385000Y-9800000D02*
G75*
G02*
X18415000Y-9800000I15000J0D01*
G01*
X18514505Y-9582300D02*
G75*
G02*
X18484505Y-9582300I-15000J0D01*
G01*
X18484505Y-9582300D02*
G75*
G02*
X18514505Y-9582300I15000J0D01*
G01*
X17471000Y-11326000D02*
X17471000Y-11401000D01*
X17433500Y-11363500D02*
X17508500Y-11363500D01*
X17598000Y-11326000D02*
X17598000Y-11401000D01*
X17560500Y-11363500D02*
X17635500Y-11363500D01*
X17725000Y-11326000D02*
X17725000Y-11401000D01*
X17687500Y-11363500D02*
X17762500Y-11363500D01*
X18845285Y-9179785D02*
X18845285Y-9123216D01*
X18788716Y-9123216D01*
X18788716Y-9179785D01*
X18845285Y-9179785D01*
X18845285Y-9433785D02*
X18845285Y-9377216D01*
X18788716Y-9377216D01*
X18788716Y-9433785D01*
X18845285Y-9433785D01*
X18845285Y-9687785D02*
X18845285Y-9631216D01*
X18788716Y-9631216D01*
X18788716Y-9687785D01*
X18845285Y-9687785D01*
X18845285Y-9941785D02*
X18845285Y-9885216D01*
X18788716Y-9885216D01*
X18788716Y-9941785D01*
X18845285Y-9941785D01*
X18845285Y-10195785D02*
X18845285Y-10139216D01*
X18788716Y-10139216D01*
X18788716Y-10195785D01*
X18845285Y-10195785D01*
X18845285Y-10449785D02*
X18845285Y-10393216D01*
X18788716Y-10393216D01*
X18788716Y-10449785D01*
X18845285Y-10449785D01*
X18845285Y-10703785D02*
X18845285Y-10647216D01*
X18788716Y-10647216D01*
X18788716Y-10703785D01*
X18845285Y-10703785D01*
X18845285Y-10957785D02*
X18845285Y-10901216D01*
X18788716Y-10901216D01*
X18788716Y-10957785D01*
X18845285Y-10957785D01*
X13451000Y-11610500D02*
X13496000Y-11565500D01*
X13451000Y-11520500D01*
X13406000Y-11565500D01*
X13451000Y-11610500D01*
X13705000Y-11610500D02*
X13750000Y-11565500D01*
X13705000Y-11520500D01*
X13660000Y-11565500D01*
X13705000Y-11610500D01*
X13959000Y-11610500D02*
X14004000Y-11565500D01*
X13959000Y-11520500D01*
X13914000Y-11565500D01*
X13959000Y-11610500D01*
X14213000Y-11610500D02*
X14258000Y-11565500D01*
X14213000Y-11520500D01*
X14168000Y-11565500D01*
X14213000Y-11610500D01*
D11*
X12258872Y-12313389D02*
X12258872Y-12113389D01*
X12258872Y-12113389D02*
X12306491Y-12113389D01*
X12306491Y-12113389D02*
X12335062Y-12122913D01*
X12335062Y-12122913D02*
X12354110Y-12141960D01*
X12354110Y-12141960D02*
X12363634Y-12161008D01*
X12363634Y-12161008D02*
X12373157Y-12199103D01*
X12373157Y-12199103D02*
X12373157Y-12227674D01*
X12373157Y-12227674D02*
X12363634Y-12265770D01*
X12363634Y-12265770D02*
X12354110Y-12284817D01*
X12354110Y-12284817D02*
X12335062Y-12303865D01*
X12335062Y-12303865D02*
X12306491Y-12313389D01*
X12306491Y-12313389D02*
X12258872Y-12313389D01*
X12458872Y-12313389D02*
X12458872Y-12180055D01*
X12458872Y-12218151D02*
X12468396Y-12199103D01*
X12468396Y-12199103D02*
X12477919Y-12189579D01*
X12477919Y-12189579D02*
X12496967Y-12180055D01*
X12496967Y-12180055D02*
X12516015Y-12180055D01*
X12582681Y-12313389D02*
X12582681Y-12180055D01*
X12582681Y-12113389D02*
X12573157Y-12122913D01*
X12573157Y-12122913D02*
X12582681Y-12132436D01*
X12582681Y-12132436D02*
X12592205Y-12122913D01*
X12592205Y-12122913D02*
X12582681Y-12113389D01*
X12582681Y-12113389D02*
X12582681Y-12132436D01*
X12706491Y-12313389D02*
X12687443Y-12303865D01*
X12687443Y-12303865D02*
X12677919Y-12284817D01*
X12677919Y-12284817D02*
X12677919Y-12113389D01*
X12811253Y-12313389D02*
X12792205Y-12303865D01*
X12792205Y-12303865D02*
X12782681Y-12284817D01*
X12782681Y-12284817D02*
X12782681Y-12113389D01*
X13039824Y-12313389D02*
X13039824Y-12113389D01*
X13039824Y-12113389D02*
X13106491Y-12256246D01*
X13106491Y-12256246D02*
X13173157Y-12113389D01*
X13173157Y-12113389D02*
X13173157Y-12313389D01*
X13354110Y-12313389D02*
X13354110Y-12208627D01*
X13354110Y-12208627D02*
X13344586Y-12189579D01*
X13344586Y-12189579D02*
X13325538Y-12180055D01*
X13325538Y-12180055D02*
X13287443Y-12180055D01*
X13287443Y-12180055D02*
X13268396Y-12189579D01*
X13354110Y-12303865D02*
X13335062Y-12313389D01*
X13335062Y-12313389D02*
X13287443Y-12313389D01*
X13287443Y-12313389D02*
X13268396Y-12303865D01*
X13268396Y-12303865D02*
X13258872Y-12284817D01*
X13258872Y-12284817D02*
X13258872Y-12265770D01*
X13258872Y-12265770D02*
X13268396Y-12246722D01*
X13268396Y-12246722D02*
X13287443Y-12237198D01*
X13287443Y-12237198D02*
X13335062Y-12237198D01*
X13335062Y-12237198D02*
X13354110Y-12227674D01*
X13449348Y-12180055D02*
X13449348Y-12380055D01*
X13449348Y-12189579D02*
X13468396Y-12180055D01*
X13468396Y-12180055D02*
X13506491Y-12180055D01*
X13506491Y-12180055D02*
X13525538Y-12189579D01*
X13525538Y-12189579D02*
X13535062Y-12199103D01*
X13535062Y-12199103D02*
X13544586Y-12218151D01*
X13544586Y-12218151D02*
X13544586Y-12275293D01*
X13544586Y-12275293D02*
X13535062Y-12294341D01*
X13535062Y-12294341D02*
X13525538Y-12303865D01*
X13525538Y-12303865D02*
X13506491Y-12313389D01*
X13506491Y-12313389D02*
X13468396Y-12313389D01*
X13468396Y-12313389D02*
X13449348Y-12303865D01*
X13630300Y-12294341D02*
X13639824Y-12303865D01*
X13639824Y-12303865D02*
X13630300Y-12313389D01*
X13630300Y-12313389D02*
X13620777Y-12303865D01*
X13620777Y-12303865D02*
X13630300Y-12294341D01*
X13630300Y-12294341D02*
X13630300Y-12313389D01*
X13630300Y-12189579D02*
X13639824Y-12199103D01*
X13639824Y-12199103D02*
X13630300Y-12208627D01*
X13630300Y-12208627D02*
X13620777Y-12199103D01*
X13620777Y-12199103D02*
X13630300Y-12189579D01*
X13630300Y-12189579D02*
X13630300Y-12208627D01*
D12*
X11978095Y-12631905D02*
X11998095Y-12651905D01*
X11998095Y-12631905D02*
X11978095Y-12651905D01*
D11*
X12296967Y-12533389D02*
X12316015Y-12533389D01*
X12316015Y-12533389D02*
X12335062Y-12542913D01*
X12335062Y-12542913D02*
X12344586Y-12552436D01*
X12344586Y-12552436D02*
X12354110Y-12571484D01*
X12354110Y-12571484D02*
X12363634Y-12609579D01*
X12363634Y-12609579D02*
X12363634Y-12657198D01*
X12363634Y-12657198D02*
X12354110Y-12695293D01*
X12354110Y-12695293D02*
X12344586Y-12714341D01*
X12344586Y-12714341D02*
X12335062Y-12723865D01*
X12335062Y-12723865D02*
X12316015Y-12733389D01*
X12316015Y-12733389D02*
X12296967Y-12733389D01*
X12296967Y-12733389D02*
X12277919Y-12723865D01*
X12277919Y-12723865D02*
X12268396Y-12714341D01*
X12268396Y-12714341D02*
X12258872Y-12695293D01*
X12258872Y-12695293D02*
X12249348Y-12657198D01*
X12249348Y-12657198D02*
X12249348Y-12609579D01*
X12249348Y-12609579D02*
X12258872Y-12571484D01*
X12258872Y-12571484D02*
X12268396Y-12552436D01*
X12268396Y-12552436D02*
X12277919Y-12542913D01*
X12277919Y-12542913D02*
X12296967Y-12533389D01*
X12449348Y-12714341D02*
X12458872Y-12723865D01*
X12458872Y-12723865D02*
X12449348Y-12733389D01*
X12449348Y-12733389D02*
X12439824Y-12723865D01*
X12439824Y-12723865D02*
X12449348Y-12714341D01*
X12449348Y-12714341D02*
X12449348Y-12733389D01*
X12535062Y-12552436D02*
X12544586Y-12542913D01*
X12544586Y-12542913D02*
X12563634Y-12533389D01*
X12563634Y-12533389D02*
X12611253Y-12533389D01*
X12611253Y-12533389D02*
X12630300Y-12542913D01*
X12630300Y-12542913D02*
X12639824Y-12552436D01*
X12639824Y-12552436D02*
X12649348Y-12571484D01*
X12649348Y-12571484D02*
X12649348Y-12590532D01*
X12649348Y-12590532D02*
X12639824Y-12619103D01*
X12639824Y-12619103D02*
X12525538Y-12733389D01*
X12525538Y-12733389D02*
X12649348Y-12733389D01*
X12773157Y-12533389D02*
X12792205Y-12533389D01*
X12792205Y-12533389D02*
X12811253Y-12542913D01*
X12811253Y-12542913D02*
X12820777Y-12552436D01*
X12820777Y-12552436D02*
X12830300Y-12571484D01*
X12830300Y-12571484D02*
X12839824Y-12609579D01*
X12839824Y-12609579D02*
X12839824Y-12657198D01*
X12839824Y-12657198D02*
X12830300Y-12695293D01*
X12830300Y-12695293D02*
X12820777Y-12714341D01*
X12820777Y-12714341D02*
X12811253Y-12723865D01*
X12811253Y-12723865D02*
X12792205Y-12733389D01*
X12792205Y-12733389D02*
X12773157Y-12733389D01*
X12773157Y-12733389D02*
X12754110Y-12723865D01*
X12754110Y-12723865D02*
X12744586Y-12714341D01*
X12744586Y-12714341D02*
X12735062Y-12695293D01*
X12735062Y-12695293D02*
X12725538Y-12657198D01*
X12725538Y-12657198D02*
X12725538Y-12609579D01*
X12725538Y-12609579D02*
X12735062Y-12571484D01*
X12735062Y-12571484D02*
X12744586Y-12552436D01*
X12744586Y-12552436D02*
X12754110Y-12542913D01*
X12754110Y-12542913D02*
X12773157Y-12533389D01*
X12963634Y-12533389D02*
X12982681Y-12533389D01*
X12982681Y-12533389D02*
X13001729Y-12542913D01*
X13001729Y-12542913D02*
X13011253Y-12552436D01*
X13011253Y-12552436D02*
X13020777Y-12571484D01*
X13020777Y-12571484D02*
X13030300Y-12609579D01*
X13030300Y-12609579D02*
X13030300Y-12657198D01*
X13030300Y-12657198D02*
X13020777Y-12695293D01*
X13020777Y-12695293D02*
X13011253Y-12714341D01*
X13011253Y-12714341D02*
X13001729Y-12723865D01*
X13001729Y-12723865D02*
X12982681Y-12733389D01*
X12982681Y-12733389D02*
X12963634Y-12733389D01*
X12963634Y-12733389D02*
X12944586Y-12723865D01*
X12944586Y-12723865D02*
X12935062Y-12714341D01*
X12935062Y-12714341D02*
X12925538Y-12695293D01*
X12925538Y-12695293D02*
X12916015Y-12657198D01*
X12916015Y-12657198D02*
X12916015Y-12609579D01*
X12916015Y-12609579D02*
X12925538Y-12571484D01*
X12925538Y-12571484D02*
X12935062Y-12552436D01*
X12935062Y-12552436D02*
X12944586Y-12542913D01*
X12944586Y-12542913D02*
X12963634Y-12533389D01*
X13116015Y-12733389D02*
X13116015Y-12600055D01*
X13116015Y-12619103D02*
X13125538Y-12609579D01*
X13125538Y-12609579D02*
X13144586Y-12600055D01*
X13144586Y-12600055D02*
X13173158Y-12600055D01*
X13173158Y-12600055D02*
X13192205Y-12609579D01*
X13192205Y-12609579D02*
X13201729Y-12628627D01*
X13201729Y-12628627D02*
X13201729Y-12733389D01*
X13201729Y-12628627D02*
X13211253Y-12609579D01*
X13211253Y-12609579D02*
X13230300Y-12600055D01*
X13230300Y-12600055D02*
X13258872Y-12600055D01*
X13258872Y-12600055D02*
X13277919Y-12609579D01*
X13277919Y-12609579D02*
X13287443Y-12628627D01*
X13287443Y-12628627D02*
X13287443Y-12733389D01*
X13382681Y-12733389D02*
X13382681Y-12600055D01*
X13382681Y-12619103D02*
X13392205Y-12609579D01*
X13392205Y-12609579D02*
X13411253Y-12600055D01*
X13411253Y-12600055D02*
X13439824Y-12600055D01*
X13439824Y-12600055D02*
X13458872Y-12609579D01*
X13458872Y-12609579D02*
X13468396Y-12628627D01*
X13468396Y-12628627D02*
X13468396Y-12733389D01*
X13468396Y-12628627D02*
X13477919Y-12609579D01*
X13477919Y-12609579D02*
X13496967Y-12600055D01*
X13496967Y-12600055D02*
X13525538Y-12600055D01*
X13525538Y-12600055D02*
X13544586Y-12609579D01*
X13544586Y-12609579D02*
X13554110Y-12628627D01*
X13554110Y-12628627D02*
X13554110Y-12733389D01*
X13944586Y-12523865D02*
X13773158Y-12781008D01*
X14201729Y-12533389D02*
X14220777Y-12533389D01*
X14220777Y-12533389D02*
X14239824Y-12542913D01*
X14239824Y-12542913D02*
X14249348Y-12552436D01*
X14249348Y-12552436D02*
X14258872Y-12571484D01*
X14258872Y-12571484D02*
X14268396Y-12609579D01*
X14268396Y-12609579D02*
X14268396Y-12657198D01*
X14268396Y-12657198D02*
X14258872Y-12695293D01*
X14258872Y-12695293D02*
X14249348Y-12714341D01*
X14249348Y-12714341D02*
X14239824Y-12723865D01*
X14239824Y-12723865D02*
X14220777Y-12733389D01*
X14220777Y-12733389D02*
X14201729Y-12733389D01*
X14201729Y-12733389D02*
X14182681Y-12723865D01*
X14182681Y-12723865D02*
X14173158Y-12714341D01*
X14173158Y-12714341D02*
X14163634Y-12695293D01*
X14163634Y-12695293D02*
X14154110Y-12657198D01*
X14154110Y-12657198D02*
X14154110Y-12609579D01*
X14154110Y-12609579D02*
X14163634Y-12571484D01*
X14163634Y-12571484D02*
X14173158Y-12552436D01*
X14173158Y-12552436D02*
X14182681Y-12542913D01*
X14182681Y-12542913D02*
X14201729Y-12533389D01*
X14354110Y-12714341D02*
X14363634Y-12723865D01*
X14363634Y-12723865D02*
X14354110Y-12733389D01*
X14354110Y-12733389D02*
X14344586Y-12723865D01*
X14344586Y-12723865D02*
X14354110Y-12714341D01*
X14354110Y-12714341D02*
X14354110Y-12733389D01*
X14487443Y-12533389D02*
X14506491Y-12533389D01*
X14506491Y-12533389D02*
X14525539Y-12542913D01*
X14525539Y-12542913D02*
X14535062Y-12552436D01*
X14535062Y-12552436D02*
X14544586Y-12571484D01*
X14544586Y-12571484D02*
X14554110Y-12609579D01*
X14554110Y-12609579D02*
X14554110Y-12657198D01*
X14554110Y-12657198D02*
X14544586Y-12695293D01*
X14544586Y-12695293D02*
X14535062Y-12714341D01*
X14535062Y-12714341D02*
X14525539Y-12723865D01*
X14525539Y-12723865D02*
X14506491Y-12733389D01*
X14506491Y-12733389D02*
X14487443Y-12733389D01*
X14487443Y-12733389D02*
X14468396Y-12723865D01*
X14468396Y-12723865D02*
X14458872Y-12714341D01*
X14458872Y-12714341D02*
X14449348Y-12695293D01*
X14449348Y-12695293D02*
X14439824Y-12657198D01*
X14439824Y-12657198D02*
X14439824Y-12609579D01*
X14439824Y-12609579D02*
X14449348Y-12571484D01*
X14449348Y-12571484D02*
X14458872Y-12552436D01*
X14458872Y-12552436D02*
X14468396Y-12542913D01*
X14468396Y-12542913D02*
X14487443Y-12533389D01*
X14677920Y-12533389D02*
X14696967Y-12533389D01*
X14696967Y-12533389D02*
X14716015Y-12542913D01*
X14716015Y-12542913D02*
X14725539Y-12552436D01*
X14725539Y-12552436D02*
X14735062Y-12571484D01*
X14735062Y-12571484D02*
X14744586Y-12609579D01*
X14744586Y-12609579D02*
X14744586Y-12657198D01*
X14744586Y-12657198D02*
X14735062Y-12695293D01*
X14735062Y-12695293D02*
X14725539Y-12714341D01*
X14725539Y-12714341D02*
X14716015Y-12723865D01*
X14716015Y-12723865D02*
X14696967Y-12733389D01*
X14696967Y-12733389D02*
X14677920Y-12733389D01*
X14677920Y-12733389D02*
X14658872Y-12723865D01*
X14658872Y-12723865D02*
X14649348Y-12714341D01*
X14649348Y-12714341D02*
X14639824Y-12695293D01*
X14639824Y-12695293D02*
X14630301Y-12657198D01*
X14630301Y-12657198D02*
X14630301Y-12609579D01*
X14630301Y-12609579D02*
X14639824Y-12571484D01*
X14639824Y-12571484D02*
X14649348Y-12552436D01*
X14649348Y-12552436D02*
X14658872Y-12542913D01*
X14658872Y-12542913D02*
X14677920Y-12533389D01*
X14811253Y-12533389D02*
X14944586Y-12533389D01*
X14944586Y-12533389D02*
X14858872Y-12733389D01*
X15030301Y-12733389D02*
X15068396Y-12733389D01*
X15068396Y-12733389D02*
X15087443Y-12723865D01*
X15087443Y-12723865D02*
X15096967Y-12714341D01*
X15096967Y-12714341D02*
X15116015Y-12685770D01*
X15116015Y-12685770D02*
X15125539Y-12647674D01*
X15125539Y-12647674D02*
X15125539Y-12571484D01*
X15125539Y-12571484D02*
X15116015Y-12552436D01*
X15116015Y-12552436D02*
X15106491Y-12542913D01*
X15106491Y-12542913D02*
X15087443Y-12533389D01*
X15087443Y-12533389D02*
X15049348Y-12533389D01*
X15049348Y-12533389D02*
X15030301Y-12542913D01*
X15030301Y-12542913D02*
X15020777Y-12552436D01*
X15020777Y-12552436D02*
X15011253Y-12571484D01*
X15011253Y-12571484D02*
X15011253Y-12619103D01*
X15011253Y-12619103D02*
X15020777Y-12638151D01*
X15020777Y-12638151D02*
X15030301Y-12647674D01*
X15030301Y-12647674D02*
X15049348Y-12657198D01*
X15049348Y-12657198D02*
X15087443Y-12657198D01*
X15087443Y-12657198D02*
X15106491Y-12647674D01*
X15106491Y-12647674D02*
X15116015Y-12638151D01*
X15116015Y-12638151D02*
X15125539Y-12619103D01*
X15201729Y-12533389D02*
X15201729Y-12571484D01*
X15277920Y-12533389D02*
X15277920Y-12571484D01*
X15573158Y-12809579D02*
X15563634Y-12800055D01*
X15563634Y-12800055D02*
X15544586Y-12771484D01*
X15544586Y-12771484D02*
X15535063Y-12752436D01*
X15535063Y-12752436D02*
X15525539Y-12723865D01*
X15525539Y-12723865D02*
X15516015Y-12676246D01*
X15516015Y-12676246D02*
X15516015Y-12638151D01*
X15516015Y-12638151D02*
X15525539Y-12590532D01*
X15525539Y-12590532D02*
X15535063Y-12561960D01*
X15535063Y-12561960D02*
X15544586Y-12542913D01*
X15544586Y-12542913D02*
X15563634Y-12514341D01*
X15563634Y-12514341D02*
X15573158Y-12504817D01*
X15754110Y-12733389D02*
X15639824Y-12733389D01*
X15696967Y-12733389D02*
X15696967Y-12533389D01*
X15696967Y-12533389D02*
X15677920Y-12561960D01*
X15677920Y-12561960D02*
X15658872Y-12581008D01*
X15658872Y-12581008D02*
X15639824Y-12590532D01*
X15830301Y-12552436D02*
X15839824Y-12542913D01*
X15839824Y-12542913D02*
X15858872Y-12533389D01*
X15858872Y-12533389D02*
X15906491Y-12533389D01*
X15906491Y-12533389D02*
X15925539Y-12542913D01*
X15925539Y-12542913D02*
X15935063Y-12552436D01*
X15935063Y-12552436D02*
X15944586Y-12571484D01*
X15944586Y-12571484D02*
X15944586Y-12590532D01*
X15944586Y-12590532D02*
X15935063Y-12619103D01*
X15935063Y-12619103D02*
X15820777Y-12733389D01*
X15820777Y-12733389D02*
X15944586Y-12733389D01*
X16182682Y-12733389D02*
X16182682Y-12533389D01*
X16268396Y-12733389D02*
X16268396Y-12628627D01*
X16268396Y-12628627D02*
X16258872Y-12609579D01*
X16258872Y-12609579D02*
X16239825Y-12600055D01*
X16239825Y-12600055D02*
X16211253Y-12600055D01*
X16211253Y-12600055D02*
X16192205Y-12609579D01*
X16192205Y-12609579D02*
X16182682Y-12619103D01*
X16392205Y-12733389D02*
X16373158Y-12723865D01*
X16373158Y-12723865D02*
X16363634Y-12714341D01*
X16363634Y-12714341D02*
X16354110Y-12695293D01*
X16354110Y-12695293D02*
X16354110Y-12638151D01*
X16354110Y-12638151D02*
X16363634Y-12619103D01*
X16363634Y-12619103D02*
X16373158Y-12609579D01*
X16373158Y-12609579D02*
X16392205Y-12600055D01*
X16392205Y-12600055D02*
X16420777Y-12600055D01*
X16420777Y-12600055D02*
X16439825Y-12609579D01*
X16439825Y-12609579D02*
X16449348Y-12619103D01*
X16449348Y-12619103D02*
X16458872Y-12638151D01*
X16458872Y-12638151D02*
X16458872Y-12695293D01*
X16458872Y-12695293D02*
X16449348Y-12714341D01*
X16449348Y-12714341D02*
X16439825Y-12723865D01*
X16439825Y-12723865D02*
X16420777Y-12733389D01*
X16420777Y-12733389D02*
X16392205Y-12733389D01*
X16573158Y-12733389D02*
X16554110Y-12723865D01*
X16554110Y-12723865D02*
X16544586Y-12704817D01*
X16544586Y-12704817D02*
X16544586Y-12533389D01*
X16725539Y-12723865D02*
X16706491Y-12733389D01*
X16706491Y-12733389D02*
X16668396Y-12733389D01*
X16668396Y-12733389D02*
X16649348Y-12723865D01*
X16649348Y-12723865D02*
X16639825Y-12704817D01*
X16639825Y-12704817D02*
X16639825Y-12628627D01*
X16639825Y-12628627D02*
X16649348Y-12609579D01*
X16649348Y-12609579D02*
X16668396Y-12600055D01*
X16668396Y-12600055D02*
X16706491Y-12600055D01*
X16706491Y-12600055D02*
X16725539Y-12609579D01*
X16725539Y-12609579D02*
X16735063Y-12628627D01*
X16735063Y-12628627D02*
X16735063Y-12647674D01*
X16735063Y-12647674D02*
X16639825Y-12666722D01*
X16811253Y-12723865D02*
X16830301Y-12733389D01*
X16830301Y-12733389D02*
X16868396Y-12733389D01*
X16868396Y-12733389D02*
X16887444Y-12723865D01*
X16887444Y-12723865D02*
X16896968Y-12704817D01*
X16896968Y-12704817D02*
X16896968Y-12695293D01*
X16896968Y-12695293D02*
X16887444Y-12676246D01*
X16887444Y-12676246D02*
X16868396Y-12666722D01*
X16868396Y-12666722D02*
X16839825Y-12666722D01*
X16839825Y-12666722D02*
X16820777Y-12657198D01*
X16820777Y-12657198D02*
X16811253Y-12638151D01*
X16811253Y-12638151D02*
X16811253Y-12628627D01*
X16811253Y-12628627D02*
X16820777Y-12609579D01*
X16820777Y-12609579D02*
X16839825Y-12600055D01*
X16839825Y-12600055D02*
X16868396Y-12600055D01*
X16868396Y-12600055D02*
X16887444Y-12609579D01*
X16963634Y-12809579D02*
X16973158Y-12800055D01*
X16973158Y-12800055D02*
X16992206Y-12771484D01*
X16992206Y-12771484D02*
X17001729Y-12752436D01*
X17001729Y-12752436D02*
X17011253Y-12723865D01*
X17011253Y-12723865D02*
X17020777Y-12676246D01*
X17020777Y-12676246D02*
X17020777Y-12638151D01*
X17020777Y-12638151D02*
X17011253Y-12590532D01*
X17011253Y-12590532D02*
X17001729Y-12561960D01*
X17001729Y-12561960D02*
X16992206Y-12542913D01*
X16992206Y-12542913D02*
X16973158Y-12514341D01*
X16973158Y-12514341D02*
X16963634Y-12504817D01*
D12*
X11998095Y-12905905D02*
G75*
G02*
X11968095Y-12905905I-15000J0D01*
G01*
X11968095Y-12905905D02*
G75*
G02*
X11998095Y-12905905I15000J0D01*
G01*
D11*
X12296967Y-12797389D02*
X12316015Y-12797389D01*
X12316015Y-12797389D02*
X12335062Y-12806913D01*
X12335062Y-12806913D02*
X12344586Y-12816436D01*
X12344586Y-12816436D02*
X12354110Y-12835484D01*
X12354110Y-12835484D02*
X12363634Y-12873579D01*
X12363634Y-12873579D02*
X12363634Y-12921198D01*
X12363634Y-12921198D02*
X12354110Y-12959293D01*
X12354110Y-12959293D02*
X12344586Y-12978341D01*
X12344586Y-12978341D02*
X12335062Y-12987865D01*
X12335062Y-12987865D02*
X12316015Y-12997389D01*
X12316015Y-12997389D02*
X12296967Y-12997389D01*
X12296967Y-12997389D02*
X12277919Y-12987865D01*
X12277919Y-12987865D02*
X12268396Y-12978341D01*
X12268396Y-12978341D02*
X12258872Y-12959293D01*
X12258872Y-12959293D02*
X12249348Y-12921198D01*
X12249348Y-12921198D02*
X12249348Y-12873579D01*
X12249348Y-12873579D02*
X12258872Y-12835484D01*
X12258872Y-12835484D02*
X12268396Y-12816436D01*
X12268396Y-12816436D02*
X12277919Y-12806913D01*
X12277919Y-12806913D02*
X12296967Y-12797389D01*
X12449348Y-12978341D02*
X12458872Y-12987865D01*
X12458872Y-12987865D02*
X12449348Y-12997389D01*
X12449348Y-12997389D02*
X12439824Y-12987865D01*
X12439824Y-12987865D02*
X12449348Y-12978341D01*
X12449348Y-12978341D02*
X12449348Y-12997389D01*
X12525538Y-12797389D02*
X12649348Y-12797389D01*
X12649348Y-12797389D02*
X12582681Y-12873579D01*
X12582681Y-12873579D02*
X12611253Y-12873579D01*
X12611253Y-12873579D02*
X12630300Y-12883103D01*
X12630300Y-12883103D02*
X12639824Y-12892627D01*
X12639824Y-12892627D02*
X12649348Y-12911674D01*
X12649348Y-12911674D02*
X12649348Y-12959293D01*
X12649348Y-12959293D02*
X12639824Y-12978341D01*
X12639824Y-12978341D02*
X12630300Y-12987865D01*
X12630300Y-12987865D02*
X12611253Y-12997389D01*
X12611253Y-12997389D02*
X12554110Y-12997389D01*
X12554110Y-12997389D02*
X12535062Y-12987865D01*
X12535062Y-12987865D02*
X12525538Y-12978341D01*
X12773157Y-12797389D02*
X12792205Y-12797389D01*
X12792205Y-12797389D02*
X12811253Y-12806913D01*
X12811253Y-12806913D02*
X12820777Y-12816436D01*
X12820777Y-12816436D02*
X12830300Y-12835484D01*
X12830300Y-12835484D02*
X12839824Y-12873579D01*
X12839824Y-12873579D02*
X12839824Y-12921198D01*
X12839824Y-12921198D02*
X12830300Y-12959293D01*
X12830300Y-12959293D02*
X12820777Y-12978341D01*
X12820777Y-12978341D02*
X12811253Y-12987865D01*
X12811253Y-12987865D02*
X12792205Y-12997389D01*
X12792205Y-12997389D02*
X12773157Y-12997389D01*
X12773157Y-12997389D02*
X12754110Y-12987865D01*
X12754110Y-12987865D02*
X12744586Y-12978341D01*
X12744586Y-12978341D02*
X12735062Y-12959293D01*
X12735062Y-12959293D02*
X12725538Y-12921198D01*
X12725538Y-12921198D02*
X12725538Y-12873579D01*
X12725538Y-12873579D02*
X12735062Y-12835484D01*
X12735062Y-12835484D02*
X12744586Y-12816436D01*
X12744586Y-12816436D02*
X12754110Y-12806913D01*
X12754110Y-12806913D02*
X12773157Y-12797389D01*
X12963634Y-12797389D02*
X12982681Y-12797389D01*
X12982681Y-12797389D02*
X13001729Y-12806913D01*
X13001729Y-12806913D02*
X13011253Y-12816436D01*
X13011253Y-12816436D02*
X13020777Y-12835484D01*
X13020777Y-12835484D02*
X13030300Y-12873579D01*
X13030300Y-12873579D02*
X13030300Y-12921198D01*
X13030300Y-12921198D02*
X13020777Y-12959293D01*
X13020777Y-12959293D02*
X13011253Y-12978341D01*
X13011253Y-12978341D02*
X13001729Y-12987865D01*
X13001729Y-12987865D02*
X12982681Y-12997389D01*
X12982681Y-12997389D02*
X12963634Y-12997389D01*
X12963634Y-12997389D02*
X12944586Y-12987865D01*
X12944586Y-12987865D02*
X12935062Y-12978341D01*
X12935062Y-12978341D02*
X12925538Y-12959293D01*
X12925538Y-12959293D02*
X12916015Y-12921198D01*
X12916015Y-12921198D02*
X12916015Y-12873579D01*
X12916015Y-12873579D02*
X12925538Y-12835484D01*
X12925538Y-12835484D02*
X12935062Y-12816436D01*
X12935062Y-12816436D02*
X12944586Y-12806913D01*
X12944586Y-12806913D02*
X12963634Y-12797389D01*
X13116015Y-12997389D02*
X13116015Y-12864055D01*
X13116015Y-12883103D02*
X13125538Y-12873579D01*
X13125538Y-12873579D02*
X13144586Y-12864055D01*
X13144586Y-12864055D02*
X13173158Y-12864055D01*
X13173158Y-12864055D02*
X13192205Y-12873579D01*
X13192205Y-12873579D02*
X13201729Y-12892627D01*
X13201729Y-12892627D02*
X13201729Y-12997389D01*
X13201729Y-12892627D02*
X13211253Y-12873579D01*
X13211253Y-12873579D02*
X13230300Y-12864055D01*
X13230300Y-12864055D02*
X13258872Y-12864055D01*
X13258872Y-12864055D02*
X13277919Y-12873579D01*
X13277919Y-12873579D02*
X13287443Y-12892627D01*
X13287443Y-12892627D02*
X13287443Y-12997389D01*
X13382681Y-12997389D02*
X13382681Y-12864055D01*
X13382681Y-12883103D02*
X13392205Y-12873579D01*
X13392205Y-12873579D02*
X13411253Y-12864055D01*
X13411253Y-12864055D02*
X13439824Y-12864055D01*
X13439824Y-12864055D02*
X13458872Y-12873579D01*
X13458872Y-12873579D02*
X13468396Y-12892627D01*
X13468396Y-12892627D02*
X13468396Y-12997389D01*
X13468396Y-12892627D02*
X13477919Y-12873579D01*
X13477919Y-12873579D02*
X13496967Y-12864055D01*
X13496967Y-12864055D02*
X13525538Y-12864055D01*
X13525538Y-12864055D02*
X13544586Y-12873579D01*
X13544586Y-12873579D02*
X13554110Y-12892627D01*
X13554110Y-12892627D02*
X13554110Y-12997389D01*
X13944586Y-12787865D02*
X13773158Y-13045008D01*
X14201729Y-12797389D02*
X14220777Y-12797389D01*
X14220777Y-12797389D02*
X14239824Y-12806913D01*
X14239824Y-12806913D02*
X14249348Y-12816436D01*
X14249348Y-12816436D02*
X14258872Y-12835484D01*
X14258872Y-12835484D02*
X14268396Y-12873579D01*
X14268396Y-12873579D02*
X14268396Y-12921198D01*
X14268396Y-12921198D02*
X14258872Y-12959293D01*
X14258872Y-12959293D02*
X14249348Y-12978341D01*
X14249348Y-12978341D02*
X14239824Y-12987865D01*
X14239824Y-12987865D02*
X14220777Y-12997389D01*
X14220777Y-12997389D02*
X14201729Y-12997389D01*
X14201729Y-12997389D02*
X14182681Y-12987865D01*
X14182681Y-12987865D02*
X14173158Y-12978341D01*
X14173158Y-12978341D02*
X14163634Y-12959293D01*
X14163634Y-12959293D02*
X14154110Y-12921198D01*
X14154110Y-12921198D02*
X14154110Y-12873579D01*
X14154110Y-12873579D02*
X14163634Y-12835484D01*
X14163634Y-12835484D02*
X14173158Y-12816436D01*
X14173158Y-12816436D02*
X14182681Y-12806913D01*
X14182681Y-12806913D02*
X14201729Y-12797389D01*
X14354110Y-12978341D02*
X14363634Y-12987865D01*
X14363634Y-12987865D02*
X14354110Y-12997389D01*
X14354110Y-12997389D02*
X14344586Y-12987865D01*
X14344586Y-12987865D02*
X14354110Y-12978341D01*
X14354110Y-12978341D02*
X14354110Y-12997389D01*
X14487443Y-12797389D02*
X14506491Y-12797389D01*
X14506491Y-12797389D02*
X14525539Y-12806913D01*
X14525539Y-12806913D02*
X14535062Y-12816436D01*
X14535062Y-12816436D02*
X14544586Y-12835484D01*
X14544586Y-12835484D02*
X14554110Y-12873579D01*
X14554110Y-12873579D02*
X14554110Y-12921198D01*
X14554110Y-12921198D02*
X14544586Y-12959293D01*
X14544586Y-12959293D02*
X14535062Y-12978341D01*
X14535062Y-12978341D02*
X14525539Y-12987865D01*
X14525539Y-12987865D02*
X14506491Y-12997389D01*
X14506491Y-12997389D02*
X14487443Y-12997389D01*
X14487443Y-12997389D02*
X14468396Y-12987865D01*
X14468396Y-12987865D02*
X14458872Y-12978341D01*
X14458872Y-12978341D02*
X14449348Y-12959293D01*
X14449348Y-12959293D02*
X14439824Y-12921198D01*
X14439824Y-12921198D02*
X14439824Y-12873579D01*
X14439824Y-12873579D02*
X14449348Y-12835484D01*
X14449348Y-12835484D02*
X14458872Y-12816436D01*
X14458872Y-12816436D02*
X14468396Y-12806913D01*
X14468396Y-12806913D02*
X14487443Y-12797389D01*
X14744586Y-12997389D02*
X14630301Y-12997389D01*
X14687443Y-12997389D02*
X14687443Y-12797389D01*
X14687443Y-12797389D02*
X14668396Y-12825960D01*
X14668396Y-12825960D02*
X14649348Y-12845008D01*
X14649348Y-12845008D02*
X14630301Y-12854532D01*
X14935062Y-12997389D02*
X14820777Y-12997389D01*
X14877920Y-12997389D02*
X14877920Y-12797389D01*
X14877920Y-12797389D02*
X14858872Y-12825960D01*
X14858872Y-12825960D02*
X14839824Y-12845008D01*
X14839824Y-12845008D02*
X14820777Y-12854532D01*
X15049348Y-12883103D02*
X15030301Y-12873579D01*
X15030301Y-12873579D02*
X15020777Y-12864055D01*
X15020777Y-12864055D02*
X15011253Y-12845008D01*
X15011253Y-12845008D02*
X15011253Y-12835484D01*
X15011253Y-12835484D02*
X15020777Y-12816436D01*
X15020777Y-12816436D02*
X15030301Y-12806913D01*
X15030301Y-12806913D02*
X15049348Y-12797389D01*
X15049348Y-12797389D02*
X15087443Y-12797389D01*
X15087443Y-12797389D02*
X15106491Y-12806913D01*
X15106491Y-12806913D02*
X15116015Y-12816436D01*
X15116015Y-12816436D02*
X15125539Y-12835484D01*
X15125539Y-12835484D02*
X15125539Y-12845008D01*
X15125539Y-12845008D02*
X15116015Y-12864055D01*
X15116015Y-12864055D02*
X15106491Y-12873579D01*
X15106491Y-12873579D02*
X15087443Y-12883103D01*
X15087443Y-12883103D02*
X15049348Y-12883103D01*
X15049348Y-12883103D02*
X15030301Y-12892627D01*
X15030301Y-12892627D02*
X15020777Y-12902151D01*
X15020777Y-12902151D02*
X15011253Y-12921198D01*
X15011253Y-12921198D02*
X15011253Y-12959293D01*
X15011253Y-12959293D02*
X15020777Y-12978341D01*
X15020777Y-12978341D02*
X15030301Y-12987865D01*
X15030301Y-12987865D02*
X15049348Y-12997389D01*
X15049348Y-12997389D02*
X15087443Y-12997389D01*
X15087443Y-12997389D02*
X15106491Y-12987865D01*
X15106491Y-12987865D02*
X15116015Y-12978341D01*
X15116015Y-12978341D02*
X15125539Y-12959293D01*
X15125539Y-12959293D02*
X15125539Y-12921198D01*
X15125539Y-12921198D02*
X15116015Y-12902151D01*
X15116015Y-12902151D02*
X15106491Y-12892627D01*
X15106491Y-12892627D02*
X15087443Y-12883103D01*
X15201729Y-12797389D02*
X15201729Y-12835484D01*
X15277920Y-12797389D02*
X15277920Y-12835484D01*
X15573158Y-13073579D02*
X15563634Y-13064055D01*
X15563634Y-13064055D02*
X15544586Y-13035484D01*
X15544586Y-13035484D02*
X15535063Y-13016436D01*
X15535063Y-13016436D02*
X15525539Y-12987865D01*
X15525539Y-12987865D02*
X15516015Y-12940246D01*
X15516015Y-12940246D02*
X15516015Y-12902151D01*
X15516015Y-12902151D02*
X15525539Y-12854532D01*
X15525539Y-12854532D02*
X15535063Y-12825960D01*
X15535063Y-12825960D02*
X15544586Y-12806913D01*
X15544586Y-12806913D02*
X15563634Y-12778341D01*
X15563634Y-12778341D02*
X15573158Y-12768817D01*
X15735063Y-12797389D02*
X15696967Y-12797389D01*
X15696967Y-12797389D02*
X15677920Y-12806913D01*
X15677920Y-12806913D02*
X15668396Y-12816436D01*
X15668396Y-12816436D02*
X15649348Y-12845008D01*
X15649348Y-12845008D02*
X15639824Y-12883103D01*
X15639824Y-12883103D02*
X15639824Y-12959293D01*
X15639824Y-12959293D02*
X15649348Y-12978341D01*
X15649348Y-12978341D02*
X15658872Y-12987865D01*
X15658872Y-12987865D02*
X15677920Y-12997389D01*
X15677920Y-12997389D02*
X15716015Y-12997389D01*
X15716015Y-12997389D02*
X15735063Y-12987865D01*
X15735063Y-12987865D02*
X15744586Y-12978341D01*
X15744586Y-12978341D02*
X15754110Y-12959293D01*
X15754110Y-12959293D02*
X15754110Y-12911674D01*
X15754110Y-12911674D02*
X15744586Y-12892627D01*
X15744586Y-12892627D02*
X15735063Y-12883103D01*
X15735063Y-12883103D02*
X15716015Y-12873579D01*
X15716015Y-12873579D02*
X15677920Y-12873579D01*
X15677920Y-12873579D02*
X15658872Y-12883103D01*
X15658872Y-12883103D02*
X15649348Y-12892627D01*
X15649348Y-12892627D02*
X15639824Y-12911674D01*
X15992205Y-12997389D02*
X15992205Y-12797389D01*
X16077920Y-12997389D02*
X16077920Y-12892627D01*
X16077920Y-12892627D02*
X16068396Y-12873579D01*
X16068396Y-12873579D02*
X16049348Y-12864055D01*
X16049348Y-12864055D02*
X16020777Y-12864055D01*
X16020777Y-12864055D02*
X16001729Y-12873579D01*
X16001729Y-12873579D02*
X15992205Y-12883103D01*
X16201729Y-12997389D02*
X16182682Y-12987865D01*
X16182682Y-12987865D02*
X16173158Y-12978341D01*
X16173158Y-12978341D02*
X16163634Y-12959293D01*
X16163634Y-12959293D02*
X16163634Y-12902151D01*
X16163634Y-12902151D02*
X16173158Y-12883103D01*
X16173158Y-12883103D02*
X16182682Y-12873579D01*
X16182682Y-12873579D02*
X16201729Y-12864055D01*
X16201729Y-12864055D02*
X16230301Y-12864055D01*
X16230301Y-12864055D02*
X16249348Y-12873579D01*
X16249348Y-12873579D02*
X16258872Y-12883103D01*
X16258872Y-12883103D02*
X16268396Y-12902151D01*
X16268396Y-12902151D02*
X16268396Y-12959293D01*
X16268396Y-12959293D02*
X16258872Y-12978341D01*
X16258872Y-12978341D02*
X16249348Y-12987865D01*
X16249348Y-12987865D02*
X16230301Y-12997389D01*
X16230301Y-12997389D02*
X16201729Y-12997389D01*
X16382682Y-12997389D02*
X16363634Y-12987865D01*
X16363634Y-12987865D02*
X16354110Y-12968817D01*
X16354110Y-12968817D02*
X16354110Y-12797389D01*
X16535063Y-12987865D02*
X16516015Y-12997389D01*
X16516015Y-12997389D02*
X16477920Y-12997389D01*
X16477920Y-12997389D02*
X16458872Y-12987865D01*
X16458872Y-12987865D02*
X16449348Y-12968817D01*
X16449348Y-12968817D02*
X16449348Y-12892627D01*
X16449348Y-12892627D02*
X16458872Y-12873579D01*
X16458872Y-12873579D02*
X16477920Y-12864055D01*
X16477920Y-12864055D02*
X16516015Y-12864055D01*
X16516015Y-12864055D02*
X16535063Y-12873579D01*
X16535063Y-12873579D02*
X16544586Y-12892627D01*
X16544586Y-12892627D02*
X16544586Y-12911674D01*
X16544586Y-12911674D02*
X16449348Y-12930722D01*
X16620777Y-12987865D02*
X16639825Y-12997389D01*
X16639825Y-12997389D02*
X16677920Y-12997389D01*
X16677920Y-12997389D02*
X16696967Y-12987865D01*
X16696967Y-12987865D02*
X16706491Y-12968817D01*
X16706491Y-12968817D02*
X16706491Y-12959293D01*
X16706491Y-12959293D02*
X16696967Y-12940246D01*
X16696967Y-12940246D02*
X16677920Y-12930722D01*
X16677920Y-12930722D02*
X16649348Y-12930722D01*
X16649348Y-12930722D02*
X16630301Y-12921198D01*
X16630301Y-12921198D02*
X16620777Y-12902151D01*
X16620777Y-12902151D02*
X16620777Y-12892627D01*
X16620777Y-12892627D02*
X16630301Y-12873579D01*
X16630301Y-12873579D02*
X16649348Y-12864055D01*
X16649348Y-12864055D02*
X16677920Y-12864055D01*
X16677920Y-12864055D02*
X16696967Y-12873579D01*
X16773158Y-13073579D02*
X16782682Y-13064055D01*
X16782682Y-13064055D02*
X16801729Y-13035484D01*
X16801729Y-13035484D02*
X16811253Y-13016436D01*
X16811253Y-13016436D02*
X16820777Y-12987865D01*
X16820777Y-12987865D02*
X16830301Y-12940246D01*
X16830301Y-12940246D02*
X16830301Y-12902151D01*
X16830301Y-12902151D02*
X16820777Y-12854532D01*
X16820777Y-12854532D02*
X16811253Y-12825960D01*
X16811253Y-12825960D02*
X16801729Y-12806913D01*
X16801729Y-12806913D02*
X16782682Y-12778341D01*
X16782682Y-12778341D02*
X16773158Y-12768817D01*
D12*
X11960595Y-13132405D02*
X11960595Y-13207405D01*
X11923095Y-13169905D02*
X11998095Y-13169905D01*
D11*
X12296967Y-13061389D02*
X12316015Y-13061389D01*
X12316015Y-13061389D02*
X12335062Y-13070913D01*
X12335062Y-13070913D02*
X12344586Y-13080436D01*
X12344586Y-13080436D02*
X12354110Y-13099484D01*
X12354110Y-13099484D02*
X12363634Y-13137579D01*
X12363634Y-13137579D02*
X12363634Y-13185198D01*
X12363634Y-13185198D02*
X12354110Y-13223293D01*
X12354110Y-13223293D02*
X12344586Y-13242341D01*
X12344586Y-13242341D02*
X12335062Y-13251865D01*
X12335062Y-13251865D02*
X12316015Y-13261389D01*
X12316015Y-13261389D02*
X12296967Y-13261389D01*
X12296967Y-13261389D02*
X12277919Y-13251865D01*
X12277919Y-13251865D02*
X12268396Y-13242341D01*
X12268396Y-13242341D02*
X12258872Y-13223293D01*
X12258872Y-13223293D02*
X12249348Y-13185198D01*
X12249348Y-13185198D02*
X12249348Y-13137579D01*
X12249348Y-13137579D02*
X12258872Y-13099484D01*
X12258872Y-13099484D02*
X12268396Y-13080436D01*
X12268396Y-13080436D02*
X12277919Y-13070913D01*
X12277919Y-13070913D02*
X12296967Y-13061389D01*
X12449348Y-13242341D02*
X12458872Y-13251865D01*
X12458872Y-13251865D02*
X12449348Y-13261389D01*
X12449348Y-13261389D02*
X12439824Y-13251865D01*
X12439824Y-13251865D02*
X12449348Y-13242341D01*
X12449348Y-13242341D02*
X12449348Y-13261389D01*
X12525538Y-13061389D02*
X12658872Y-13061389D01*
X12658872Y-13061389D02*
X12573157Y-13261389D01*
X12830300Y-13061389D02*
X12735062Y-13061389D01*
X12735062Y-13061389D02*
X12725538Y-13156627D01*
X12725538Y-13156627D02*
X12735062Y-13147103D01*
X12735062Y-13147103D02*
X12754110Y-13137579D01*
X12754110Y-13137579D02*
X12801729Y-13137579D01*
X12801729Y-13137579D02*
X12820777Y-13147103D01*
X12820777Y-13147103D02*
X12830300Y-13156627D01*
X12830300Y-13156627D02*
X12839824Y-13175674D01*
X12839824Y-13175674D02*
X12839824Y-13223293D01*
X12839824Y-13223293D02*
X12830300Y-13242341D01*
X12830300Y-13242341D02*
X12820777Y-13251865D01*
X12820777Y-13251865D02*
X12801729Y-13261389D01*
X12801729Y-13261389D02*
X12754110Y-13261389D01*
X12754110Y-13261389D02*
X12735062Y-13251865D01*
X12735062Y-13251865D02*
X12725538Y-13242341D01*
X12963634Y-13061389D02*
X12982681Y-13061389D01*
X12982681Y-13061389D02*
X13001729Y-13070913D01*
X13001729Y-13070913D02*
X13011253Y-13080436D01*
X13011253Y-13080436D02*
X13020777Y-13099484D01*
X13020777Y-13099484D02*
X13030300Y-13137579D01*
X13030300Y-13137579D02*
X13030300Y-13185198D01*
X13030300Y-13185198D02*
X13020777Y-13223293D01*
X13020777Y-13223293D02*
X13011253Y-13242341D01*
X13011253Y-13242341D02*
X13001729Y-13251865D01*
X13001729Y-13251865D02*
X12982681Y-13261389D01*
X12982681Y-13261389D02*
X12963634Y-13261389D01*
X12963634Y-13261389D02*
X12944586Y-13251865D01*
X12944586Y-13251865D02*
X12935062Y-13242341D01*
X12935062Y-13242341D02*
X12925538Y-13223293D01*
X12925538Y-13223293D02*
X12916015Y-13185198D01*
X12916015Y-13185198D02*
X12916015Y-13137579D01*
X12916015Y-13137579D02*
X12925538Y-13099484D01*
X12925538Y-13099484D02*
X12935062Y-13080436D01*
X12935062Y-13080436D02*
X12944586Y-13070913D01*
X12944586Y-13070913D02*
X12963634Y-13061389D01*
X13116015Y-13261389D02*
X13116015Y-13128055D01*
X13116015Y-13147103D02*
X13125538Y-13137579D01*
X13125538Y-13137579D02*
X13144586Y-13128055D01*
X13144586Y-13128055D02*
X13173158Y-13128055D01*
X13173158Y-13128055D02*
X13192205Y-13137579D01*
X13192205Y-13137579D02*
X13201729Y-13156627D01*
X13201729Y-13156627D02*
X13201729Y-13261389D01*
X13201729Y-13156627D02*
X13211253Y-13137579D01*
X13211253Y-13137579D02*
X13230300Y-13128055D01*
X13230300Y-13128055D02*
X13258872Y-13128055D01*
X13258872Y-13128055D02*
X13277919Y-13137579D01*
X13277919Y-13137579D02*
X13287443Y-13156627D01*
X13287443Y-13156627D02*
X13287443Y-13261389D01*
X13382681Y-13261389D02*
X13382681Y-13128055D01*
X13382681Y-13147103D02*
X13392205Y-13137579D01*
X13392205Y-13137579D02*
X13411253Y-13128055D01*
X13411253Y-13128055D02*
X13439824Y-13128055D01*
X13439824Y-13128055D02*
X13458872Y-13137579D01*
X13458872Y-13137579D02*
X13468396Y-13156627D01*
X13468396Y-13156627D02*
X13468396Y-13261389D01*
X13468396Y-13156627D02*
X13477919Y-13137579D01*
X13477919Y-13137579D02*
X13496967Y-13128055D01*
X13496967Y-13128055D02*
X13525538Y-13128055D01*
X13525538Y-13128055D02*
X13544586Y-13137579D01*
X13544586Y-13137579D02*
X13554110Y-13156627D01*
X13554110Y-13156627D02*
X13554110Y-13261389D01*
X13944586Y-13051865D02*
X13773158Y-13309008D01*
X14201729Y-13061389D02*
X14220777Y-13061389D01*
X14220777Y-13061389D02*
X14239824Y-13070913D01*
X14239824Y-13070913D02*
X14249348Y-13080436D01*
X14249348Y-13080436D02*
X14258872Y-13099484D01*
X14258872Y-13099484D02*
X14268396Y-13137579D01*
X14268396Y-13137579D02*
X14268396Y-13185198D01*
X14268396Y-13185198D02*
X14258872Y-13223293D01*
X14258872Y-13223293D02*
X14249348Y-13242341D01*
X14249348Y-13242341D02*
X14239824Y-13251865D01*
X14239824Y-13251865D02*
X14220777Y-13261389D01*
X14220777Y-13261389D02*
X14201729Y-13261389D01*
X14201729Y-13261389D02*
X14182681Y-13251865D01*
X14182681Y-13251865D02*
X14173158Y-13242341D01*
X14173158Y-13242341D02*
X14163634Y-13223293D01*
X14163634Y-13223293D02*
X14154110Y-13185198D01*
X14154110Y-13185198D02*
X14154110Y-13137579D01*
X14154110Y-13137579D02*
X14163634Y-13099484D01*
X14163634Y-13099484D02*
X14173158Y-13080436D01*
X14173158Y-13080436D02*
X14182681Y-13070913D01*
X14182681Y-13070913D02*
X14201729Y-13061389D01*
X14354110Y-13242341D02*
X14363634Y-13251865D01*
X14363634Y-13251865D02*
X14354110Y-13261389D01*
X14354110Y-13261389D02*
X14344586Y-13251865D01*
X14344586Y-13251865D02*
X14354110Y-13242341D01*
X14354110Y-13242341D02*
X14354110Y-13261389D01*
X14487443Y-13061389D02*
X14506491Y-13061389D01*
X14506491Y-13061389D02*
X14525539Y-13070913D01*
X14525539Y-13070913D02*
X14535062Y-13080436D01*
X14535062Y-13080436D02*
X14544586Y-13099484D01*
X14544586Y-13099484D02*
X14554110Y-13137579D01*
X14554110Y-13137579D02*
X14554110Y-13185198D01*
X14554110Y-13185198D02*
X14544586Y-13223293D01*
X14544586Y-13223293D02*
X14535062Y-13242341D01*
X14535062Y-13242341D02*
X14525539Y-13251865D01*
X14525539Y-13251865D02*
X14506491Y-13261389D01*
X14506491Y-13261389D02*
X14487443Y-13261389D01*
X14487443Y-13261389D02*
X14468396Y-13251865D01*
X14468396Y-13251865D02*
X14458872Y-13242341D01*
X14458872Y-13242341D02*
X14449348Y-13223293D01*
X14449348Y-13223293D02*
X14439824Y-13185198D01*
X14439824Y-13185198D02*
X14439824Y-13137579D01*
X14439824Y-13137579D02*
X14449348Y-13099484D01*
X14449348Y-13099484D02*
X14458872Y-13080436D01*
X14458872Y-13080436D02*
X14468396Y-13070913D01*
X14468396Y-13070913D02*
X14487443Y-13061389D01*
X14630301Y-13080436D02*
X14639824Y-13070913D01*
X14639824Y-13070913D02*
X14658872Y-13061389D01*
X14658872Y-13061389D02*
X14706491Y-13061389D01*
X14706491Y-13061389D02*
X14725539Y-13070913D01*
X14725539Y-13070913D02*
X14735062Y-13080436D01*
X14735062Y-13080436D02*
X14744586Y-13099484D01*
X14744586Y-13099484D02*
X14744586Y-13118532D01*
X14744586Y-13118532D02*
X14735062Y-13147103D01*
X14735062Y-13147103D02*
X14620777Y-13261389D01*
X14620777Y-13261389D02*
X14744586Y-13261389D01*
X14839824Y-13261389D02*
X14877920Y-13261389D01*
X14877920Y-13261389D02*
X14896967Y-13251865D01*
X14896967Y-13251865D02*
X14906491Y-13242341D01*
X14906491Y-13242341D02*
X14925539Y-13213770D01*
X14925539Y-13213770D02*
X14935062Y-13175674D01*
X14935062Y-13175674D02*
X14935062Y-13099484D01*
X14935062Y-13099484D02*
X14925539Y-13080436D01*
X14925539Y-13080436D02*
X14916015Y-13070913D01*
X14916015Y-13070913D02*
X14896967Y-13061389D01*
X14896967Y-13061389D02*
X14858872Y-13061389D01*
X14858872Y-13061389D02*
X14839824Y-13070913D01*
X14839824Y-13070913D02*
X14830301Y-13080436D01*
X14830301Y-13080436D02*
X14820777Y-13099484D01*
X14820777Y-13099484D02*
X14820777Y-13147103D01*
X14820777Y-13147103D02*
X14830301Y-13166151D01*
X14830301Y-13166151D02*
X14839824Y-13175674D01*
X14839824Y-13175674D02*
X14858872Y-13185198D01*
X14858872Y-13185198D02*
X14896967Y-13185198D01*
X14896967Y-13185198D02*
X14916015Y-13175674D01*
X14916015Y-13175674D02*
X14925539Y-13166151D01*
X14925539Y-13166151D02*
X14935062Y-13147103D01*
X15116015Y-13061389D02*
X15020777Y-13061389D01*
X15020777Y-13061389D02*
X15011253Y-13156627D01*
X15011253Y-13156627D02*
X15020777Y-13147103D01*
X15020777Y-13147103D02*
X15039824Y-13137579D01*
X15039824Y-13137579D02*
X15087443Y-13137579D01*
X15087443Y-13137579D02*
X15106491Y-13147103D01*
X15106491Y-13147103D02*
X15116015Y-13156627D01*
X15116015Y-13156627D02*
X15125539Y-13175674D01*
X15125539Y-13175674D02*
X15125539Y-13223293D01*
X15125539Y-13223293D02*
X15116015Y-13242341D01*
X15116015Y-13242341D02*
X15106491Y-13251865D01*
X15106491Y-13251865D02*
X15087443Y-13261389D01*
X15087443Y-13261389D02*
X15039824Y-13261389D01*
X15039824Y-13261389D02*
X15020777Y-13251865D01*
X15020777Y-13251865D02*
X15011253Y-13242341D01*
X15201729Y-13061389D02*
X15201729Y-13099484D01*
X15277920Y-13061389D02*
X15277920Y-13099484D01*
X15573158Y-13337579D02*
X15563634Y-13328055D01*
X15563634Y-13328055D02*
X15544586Y-13299484D01*
X15544586Y-13299484D02*
X15535063Y-13280436D01*
X15535063Y-13280436D02*
X15525539Y-13251865D01*
X15525539Y-13251865D02*
X15516015Y-13204246D01*
X15516015Y-13204246D02*
X15516015Y-13166151D01*
X15516015Y-13166151D02*
X15525539Y-13118532D01*
X15525539Y-13118532D02*
X15535063Y-13089960D01*
X15535063Y-13089960D02*
X15544586Y-13070913D01*
X15544586Y-13070913D02*
X15563634Y-13042341D01*
X15563634Y-13042341D02*
X15573158Y-13032817D01*
X15630301Y-13061389D02*
X15754110Y-13061389D01*
X15754110Y-13061389D02*
X15687443Y-13137579D01*
X15687443Y-13137579D02*
X15716015Y-13137579D01*
X15716015Y-13137579D02*
X15735063Y-13147103D01*
X15735063Y-13147103D02*
X15744586Y-13156627D01*
X15744586Y-13156627D02*
X15754110Y-13175674D01*
X15754110Y-13175674D02*
X15754110Y-13223293D01*
X15754110Y-13223293D02*
X15744586Y-13242341D01*
X15744586Y-13242341D02*
X15735063Y-13251865D01*
X15735063Y-13251865D02*
X15716015Y-13261389D01*
X15716015Y-13261389D02*
X15658872Y-13261389D01*
X15658872Y-13261389D02*
X15639824Y-13251865D01*
X15639824Y-13251865D02*
X15630301Y-13242341D01*
X15992205Y-13261389D02*
X15992205Y-13061389D01*
X16077920Y-13261389D02*
X16077920Y-13156627D01*
X16077920Y-13156627D02*
X16068396Y-13137579D01*
X16068396Y-13137579D02*
X16049348Y-13128055D01*
X16049348Y-13128055D02*
X16020777Y-13128055D01*
X16020777Y-13128055D02*
X16001729Y-13137579D01*
X16001729Y-13137579D02*
X15992205Y-13147103D01*
X16201729Y-13261389D02*
X16182682Y-13251865D01*
X16182682Y-13251865D02*
X16173158Y-13242341D01*
X16173158Y-13242341D02*
X16163634Y-13223293D01*
X16163634Y-13223293D02*
X16163634Y-13166151D01*
X16163634Y-13166151D02*
X16173158Y-13147103D01*
X16173158Y-13147103D02*
X16182682Y-13137579D01*
X16182682Y-13137579D02*
X16201729Y-13128055D01*
X16201729Y-13128055D02*
X16230301Y-13128055D01*
X16230301Y-13128055D02*
X16249348Y-13137579D01*
X16249348Y-13137579D02*
X16258872Y-13147103D01*
X16258872Y-13147103D02*
X16268396Y-13166151D01*
X16268396Y-13166151D02*
X16268396Y-13223293D01*
X16268396Y-13223293D02*
X16258872Y-13242341D01*
X16258872Y-13242341D02*
X16249348Y-13251865D01*
X16249348Y-13251865D02*
X16230301Y-13261389D01*
X16230301Y-13261389D02*
X16201729Y-13261389D01*
X16382682Y-13261389D02*
X16363634Y-13251865D01*
X16363634Y-13251865D02*
X16354110Y-13232817D01*
X16354110Y-13232817D02*
X16354110Y-13061389D01*
X16535063Y-13251865D02*
X16516015Y-13261389D01*
X16516015Y-13261389D02*
X16477920Y-13261389D01*
X16477920Y-13261389D02*
X16458872Y-13251865D01*
X16458872Y-13251865D02*
X16449348Y-13232817D01*
X16449348Y-13232817D02*
X16449348Y-13156627D01*
X16449348Y-13156627D02*
X16458872Y-13137579D01*
X16458872Y-13137579D02*
X16477920Y-13128055D01*
X16477920Y-13128055D02*
X16516015Y-13128055D01*
X16516015Y-13128055D02*
X16535063Y-13137579D01*
X16535063Y-13137579D02*
X16544586Y-13156627D01*
X16544586Y-13156627D02*
X16544586Y-13175674D01*
X16544586Y-13175674D02*
X16449348Y-13194722D01*
X16620777Y-13251865D02*
X16639825Y-13261389D01*
X16639825Y-13261389D02*
X16677920Y-13261389D01*
X16677920Y-13261389D02*
X16696967Y-13251865D01*
X16696967Y-13251865D02*
X16706491Y-13232817D01*
X16706491Y-13232817D02*
X16706491Y-13223293D01*
X16706491Y-13223293D02*
X16696967Y-13204246D01*
X16696967Y-13204246D02*
X16677920Y-13194722D01*
X16677920Y-13194722D02*
X16649348Y-13194722D01*
X16649348Y-13194722D02*
X16630301Y-13185198D01*
X16630301Y-13185198D02*
X16620777Y-13166151D01*
X16620777Y-13166151D02*
X16620777Y-13156627D01*
X16620777Y-13156627D02*
X16630301Y-13137579D01*
X16630301Y-13137579D02*
X16649348Y-13128055D01*
X16649348Y-13128055D02*
X16677920Y-13128055D01*
X16677920Y-13128055D02*
X16696967Y-13137579D01*
X16773158Y-13337579D02*
X16782682Y-13328055D01*
X16782682Y-13328055D02*
X16801729Y-13299484D01*
X16801729Y-13299484D02*
X16811253Y-13280436D01*
X16811253Y-13280436D02*
X16820777Y-13251865D01*
X16820777Y-13251865D02*
X16830301Y-13204246D01*
X16830301Y-13204246D02*
X16830301Y-13166151D01*
X16830301Y-13166151D02*
X16820777Y-13118532D01*
X16820777Y-13118532D02*
X16811253Y-13089960D01*
X16811253Y-13089960D02*
X16801729Y-13070913D01*
X16801729Y-13070913D02*
X16782682Y-13042341D01*
X16782682Y-13042341D02*
X16773158Y-13032817D01*
D12*
X11986379Y-13462189D02*
X11986379Y-13405620D01*
X11929810Y-13405620D01*
X11929810Y-13462189D01*
X11986379Y-13462189D01*
D11*
X12296967Y-13325389D02*
X12316015Y-13325389D01*
X12316015Y-13325389D02*
X12335062Y-13334913D01*
X12335062Y-13334913D02*
X12344586Y-13344436D01*
X12344586Y-13344436D02*
X12354110Y-13363484D01*
X12354110Y-13363484D02*
X12363634Y-13401579D01*
X12363634Y-13401579D02*
X12363634Y-13449198D01*
X12363634Y-13449198D02*
X12354110Y-13487293D01*
X12354110Y-13487293D02*
X12344586Y-13506341D01*
X12344586Y-13506341D02*
X12335062Y-13515865D01*
X12335062Y-13515865D02*
X12316015Y-13525389D01*
X12316015Y-13525389D02*
X12296967Y-13525389D01*
X12296967Y-13525389D02*
X12277919Y-13515865D01*
X12277919Y-13515865D02*
X12268396Y-13506341D01*
X12268396Y-13506341D02*
X12258872Y-13487293D01*
X12258872Y-13487293D02*
X12249348Y-13449198D01*
X12249348Y-13449198D02*
X12249348Y-13401579D01*
X12249348Y-13401579D02*
X12258872Y-13363484D01*
X12258872Y-13363484D02*
X12268396Y-13344436D01*
X12268396Y-13344436D02*
X12277919Y-13334913D01*
X12277919Y-13334913D02*
X12296967Y-13325389D01*
X12449348Y-13506341D02*
X12458872Y-13515865D01*
X12458872Y-13515865D02*
X12449348Y-13525389D01*
X12449348Y-13525389D02*
X12439824Y-13515865D01*
X12439824Y-13515865D02*
X12449348Y-13506341D01*
X12449348Y-13506341D02*
X12449348Y-13525389D01*
X12573157Y-13411103D02*
X12554110Y-13401579D01*
X12554110Y-13401579D02*
X12544586Y-13392055D01*
X12544586Y-13392055D02*
X12535062Y-13373008D01*
X12535062Y-13373008D02*
X12535062Y-13363484D01*
X12535062Y-13363484D02*
X12544586Y-13344436D01*
X12544586Y-13344436D02*
X12554110Y-13334913D01*
X12554110Y-13334913D02*
X12573157Y-13325389D01*
X12573157Y-13325389D02*
X12611253Y-13325389D01*
X12611253Y-13325389D02*
X12630300Y-13334913D01*
X12630300Y-13334913D02*
X12639824Y-13344436D01*
X12639824Y-13344436D02*
X12649348Y-13363484D01*
X12649348Y-13363484D02*
X12649348Y-13373008D01*
X12649348Y-13373008D02*
X12639824Y-13392055D01*
X12639824Y-13392055D02*
X12630300Y-13401579D01*
X12630300Y-13401579D02*
X12611253Y-13411103D01*
X12611253Y-13411103D02*
X12573157Y-13411103D01*
X12573157Y-13411103D02*
X12554110Y-13420627D01*
X12554110Y-13420627D02*
X12544586Y-13430151D01*
X12544586Y-13430151D02*
X12535062Y-13449198D01*
X12535062Y-13449198D02*
X12535062Y-13487293D01*
X12535062Y-13487293D02*
X12544586Y-13506341D01*
X12544586Y-13506341D02*
X12554110Y-13515865D01*
X12554110Y-13515865D02*
X12573157Y-13525389D01*
X12573157Y-13525389D02*
X12611253Y-13525389D01*
X12611253Y-13525389D02*
X12630300Y-13515865D01*
X12630300Y-13515865D02*
X12639824Y-13506341D01*
X12639824Y-13506341D02*
X12649348Y-13487293D01*
X12649348Y-13487293D02*
X12649348Y-13449198D01*
X12649348Y-13449198D02*
X12639824Y-13430151D01*
X12639824Y-13430151D02*
X12630300Y-13420627D01*
X12630300Y-13420627D02*
X12611253Y-13411103D01*
X12773157Y-13325389D02*
X12792205Y-13325389D01*
X12792205Y-13325389D02*
X12811253Y-13334913D01*
X12811253Y-13334913D02*
X12820777Y-13344436D01*
X12820777Y-13344436D02*
X12830300Y-13363484D01*
X12830300Y-13363484D02*
X12839824Y-13401579D01*
X12839824Y-13401579D02*
X12839824Y-13449198D01*
X12839824Y-13449198D02*
X12830300Y-13487293D01*
X12830300Y-13487293D02*
X12820777Y-13506341D01*
X12820777Y-13506341D02*
X12811253Y-13515865D01*
X12811253Y-13515865D02*
X12792205Y-13525389D01*
X12792205Y-13525389D02*
X12773157Y-13525389D01*
X12773157Y-13525389D02*
X12754110Y-13515865D01*
X12754110Y-13515865D02*
X12744586Y-13506341D01*
X12744586Y-13506341D02*
X12735062Y-13487293D01*
X12735062Y-13487293D02*
X12725538Y-13449198D01*
X12725538Y-13449198D02*
X12725538Y-13401579D01*
X12725538Y-13401579D02*
X12735062Y-13363484D01*
X12735062Y-13363484D02*
X12744586Y-13344436D01*
X12744586Y-13344436D02*
X12754110Y-13334913D01*
X12754110Y-13334913D02*
X12773157Y-13325389D01*
X12963634Y-13325389D02*
X12982681Y-13325389D01*
X12982681Y-13325389D02*
X13001729Y-13334913D01*
X13001729Y-13334913D02*
X13011253Y-13344436D01*
X13011253Y-13344436D02*
X13020777Y-13363484D01*
X13020777Y-13363484D02*
X13030300Y-13401579D01*
X13030300Y-13401579D02*
X13030300Y-13449198D01*
X13030300Y-13449198D02*
X13020777Y-13487293D01*
X13020777Y-13487293D02*
X13011253Y-13506341D01*
X13011253Y-13506341D02*
X13001729Y-13515865D01*
X13001729Y-13515865D02*
X12982681Y-13525389D01*
X12982681Y-13525389D02*
X12963634Y-13525389D01*
X12963634Y-13525389D02*
X12944586Y-13515865D01*
X12944586Y-13515865D02*
X12935062Y-13506341D01*
X12935062Y-13506341D02*
X12925538Y-13487293D01*
X12925538Y-13487293D02*
X12916015Y-13449198D01*
X12916015Y-13449198D02*
X12916015Y-13401579D01*
X12916015Y-13401579D02*
X12925538Y-13363484D01*
X12925538Y-13363484D02*
X12935062Y-13344436D01*
X12935062Y-13344436D02*
X12944586Y-13334913D01*
X12944586Y-13334913D02*
X12963634Y-13325389D01*
X13116015Y-13525389D02*
X13116015Y-13392055D01*
X13116015Y-13411103D02*
X13125538Y-13401579D01*
X13125538Y-13401579D02*
X13144586Y-13392055D01*
X13144586Y-13392055D02*
X13173158Y-13392055D01*
X13173158Y-13392055D02*
X13192205Y-13401579D01*
X13192205Y-13401579D02*
X13201729Y-13420627D01*
X13201729Y-13420627D02*
X13201729Y-13525389D01*
X13201729Y-13420627D02*
X13211253Y-13401579D01*
X13211253Y-13401579D02*
X13230300Y-13392055D01*
X13230300Y-13392055D02*
X13258872Y-13392055D01*
X13258872Y-13392055D02*
X13277919Y-13401579D01*
X13277919Y-13401579D02*
X13287443Y-13420627D01*
X13287443Y-13420627D02*
X13287443Y-13525389D01*
X13382681Y-13525389D02*
X13382681Y-13392055D01*
X13382681Y-13411103D02*
X13392205Y-13401579D01*
X13392205Y-13401579D02*
X13411253Y-13392055D01*
X13411253Y-13392055D02*
X13439824Y-13392055D01*
X13439824Y-13392055D02*
X13458872Y-13401579D01*
X13458872Y-13401579D02*
X13468396Y-13420627D01*
X13468396Y-13420627D02*
X13468396Y-13525389D01*
X13468396Y-13420627D02*
X13477919Y-13401579D01*
X13477919Y-13401579D02*
X13496967Y-13392055D01*
X13496967Y-13392055D02*
X13525538Y-13392055D01*
X13525538Y-13392055D02*
X13544586Y-13401579D01*
X13544586Y-13401579D02*
X13554110Y-13420627D01*
X13554110Y-13420627D02*
X13554110Y-13525389D01*
X13944586Y-13315865D02*
X13773158Y-13573008D01*
X14201729Y-13325389D02*
X14220777Y-13325389D01*
X14220777Y-13325389D02*
X14239824Y-13334913D01*
X14239824Y-13334913D02*
X14249348Y-13344436D01*
X14249348Y-13344436D02*
X14258872Y-13363484D01*
X14258872Y-13363484D02*
X14268396Y-13401579D01*
X14268396Y-13401579D02*
X14268396Y-13449198D01*
X14268396Y-13449198D02*
X14258872Y-13487293D01*
X14258872Y-13487293D02*
X14249348Y-13506341D01*
X14249348Y-13506341D02*
X14239824Y-13515865D01*
X14239824Y-13515865D02*
X14220777Y-13525389D01*
X14220777Y-13525389D02*
X14201729Y-13525389D01*
X14201729Y-13525389D02*
X14182681Y-13515865D01*
X14182681Y-13515865D02*
X14173158Y-13506341D01*
X14173158Y-13506341D02*
X14163634Y-13487293D01*
X14163634Y-13487293D02*
X14154110Y-13449198D01*
X14154110Y-13449198D02*
X14154110Y-13401579D01*
X14154110Y-13401579D02*
X14163634Y-13363484D01*
X14163634Y-13363484D02*
X14173158Y-13344436D01*
X14173158Y-13344436D02*
X14182681Y-13334913D01*
X14182681Y-13334913D02*
X14201729Y-13325389D01*
X14354110Y-13506341D02*
X14363634Y-13515865D01*
X14363634Y-13515865D02*
X14354110Y-13525389D01*
X14354110Y-13525389D02*
X14344586Y-13515865D01*
X14344586Y-13515865D02*
X14354110Y-13506341D01*
X14354110Y-13506341D02*
X14354110Y-13525389D01*
X14487443Y-13325389D02*
X14506491Y-13325389D01*
X14506491Y-13325389D02*
X14525539Y-13334913D01*
X14525539Y-13334913D02*
X14535062Y-13344436D01*
X14535062Y-13344436D02*
X14544586Y-13363484D01*
X14544586Y-13363484D02*
X14554110Y-13401579D01*
X14554110Y-13401579D02*
X14554110Y-13449198D01*
X14554110Y-13449198D02*
X14544586Y-13487293D01*
X14544586Y-13487293D02*
X14535062Y-13506341D01*
X14535062Y-13506341D02*
X14525539Y-13515865D01*
X14525539Y-13515865D02*
X14506491Y-13525389D01*
X14506491Y-13525389D02*
X14487443Y-13525389D01*
X14487443Y-13525389D02*
X14468396Y-13515865D01*
X14468396Y-13515865D02*
X14458872Y-13506341D01*
X14458872Y-13506341D02*
X14449348Y-13487293D01*
X14449348Y-13487293D02*
X14439824Y-13449198D01*
X14439824Y-13449198D02*
X14439824Y-13401579D01*
X14439824Y-13401579D02*
X14449348Y-13363484D01*
X14449348Y-13363484D02*
X14458872Y-13344436D01*
X14458872Y-13344436D02*
X14468396Y-13334913D01*
X14468396Y-13334913D02*
X14487443Y-13325389D01*
X14620777Y-13325389D02*
X14744586Y-13325389D01*
X14744586Y-13325389D02*
X14677920Y-13401579D01*
X14677920Y-13401579D02*
X14706491Y-13401579D01*
X14706491Y-13401579D02*
X14725539Y-13411103D01*
X14725539Y-13411103D02*
X14735062Y-13420627D01*
X14735062Y-13420627D02*
X14744586Y-13439674D01*
X14744586Y-13439674D02*
X14744586Y-13487293D01*
X14744586Y-13487293D02*
X14735062Y-13506341D01*
X14735062Y-13506341D02*
X14725539Y-13515865D01*
X14725539Y-13515865D02*
X14706491Y-13525389D01*
X14706491Y-13525389D02*
X14649348Y-13525389D01*
X14649348Y-13525389D02*
X14630301Y-13515865D01*
X14630301Y-13515865D02*
X14620777Y-13506341D01*
X14935062Y-13525389D02*
X14820777Y-13525389D01*
X14877920Y-13525389D02*
X14877920Y-13325389D01*
X14877920Y-13325389D02*
X14858872Y-13353960D01*
X14858872Y-13353960D02*
X14839824Y-13373008D01*
X14839824Y-13373008D02*
X14820777Y-13382532D01*
X15116015Y-13325389D02*
X15020777Y-13325389D01*
X15020777Y-13325389D02*
X15011253Y-13420627D01*
X15011253Y-13420627D02*
X15020777Y-13411103D01*
X15020777Y-13411103D02*
X15039824Y-13401579D01*
X15039824Y-13401579D02*
X15087443Y-13401579D01*
X15087443Y-13401579D02*
X15106491Y-13411103D01*
X15106491Y-13411103D02*
X15116015Y-13420627D01*
X15116015Y-13420627D02*
X15125539Y-13439674D01*
X15125539Y-13439674D02*
X15125539Y-13487293D01*
X15125539Y-13487293D02*
X15116015Y-13506341D01*
X15116015Y-13506341D02*
X15106491Y-13515865D01*
X15106491Y-13515865D02*
X15087443Y-13525389D01*
X15087443Y-13525389D02*
X15039824Y-13525389D01*
X15039824Y-13525389D02*
X15020777Y-13515865D01*
X15020777Y-13515865D02*
X15011253Y-13506341D01*
X15201729Y-13325389D02*
X15201729Y-13363484D01*
X15277920Y-13325389D02*
X15277920Y-13363484D01*
X15573158Y-13601579D02*
X15563634Y-13592055D01*
X15563634Y-13592055D02*
X15544586Y-13563484D01*
X15544586Y-13563484D02*
X15535063Y-13544436D01*
X15535063Y-13544436D02*
X15525539Y-13515865D01*
X15525539Y-13515865D02*
X15516015Y-13468246D01*
X15516015Y-13468246D02*
X15516015Y-13430151D01*
X15516015Y-13430151D02*
X15525539Y-13382532D01*
X15525539Y-13382532D02*
X15535063Y-13353960D01*
X15535063Y-13353960D02*
X15544586Y-13334913D01*
X15544586Y-13334913D02*
X15563634Y-13306341D01*
X15563634Y-13306341D02*
X15573158Y-13296817D01*
X15677920Y-13411103D02*
X15658872Y-13401579D01*
X15658872Y-13401579D02*
X15649348Y-13392055D01*
X15649348Y-13392055D02*
X15639824Y-13373008D01*
X15639824Y-13373008D02*
X15639824Y-13363484D01*
X15639824Y-13363484D02*
X15649348Y-13344436D01*
X15649348Y-13344436D02*
X15658872Y-13334913D01*
X15658872Y-13334913D02*
X15677920Y-13325389D01*
X15677920Y-13325389D02*
X15716015Y-13325389D01*
X15716015Y-13325389D02*
X15735063Y-13334913D01*
X15735063Y-13334913D02*
X15744586Y-13344436D01*
X15744586Y-13344436D02*
X15754110Y-13363484D01*
X15754110Y-13363484D02*
X15754110Y-13373008D01*
X15754110Y-13373008D02*
X15744586Y-13392055D01*
X15744586Y-13392055D02*
X15735063Y-13401579D01*
X15735063Y-13401579D02*
X15716015Y-13411103D01*
X15716015Y-13411103D02*
X15677920Y-13411103D01*
X15677920Y-13411103D02*
X15658872Y-13420627D01*
X15658872Y-13420627D02*
X15649348Y-13430151D01*
X15649348Y-13430151D02*
X15639824Y-13449198D01*
X15639824Y-13449198D02*
X15639824Y-13487293D01*
X15639824Y-13487293D02*
X15649348Y-13506341D01*
X15649348Y-13506341D02*
X15658872Y-13515865D01*
X15658872Y-13515865D02*
X15677920Y-13525389D01*
X15677920Y-13525389D02*
X15716015Y-13525389D01*
X15716015Y-13525389D02*
X15735063Y-13515865D01*
X15735063Y-13515865D02*
X15744586Y-13506341D01*
X15744586Y-13506341D02*
X15754110Y-13487293D01*
X15754110Y-13487293D02*
X15754110Y-13449198D01*
X15754110Y-13449198D02*
X15744586Y-13430151D01*
X15744586Y-13430151D02*
X15735063Y-13420627D01*
X15735063Y-13420627D02*
X15716015Y-13411103D01*
X15992205Y-13525389D02*
X15992205Y-13325389D01*
X16077920Y-13525389D02*
X16077920Y-13420627D01*
X16077920Y-13420627D02*
X16068396Y-13401579D01*
X16068396Y-13401579D02*
X16049348Y-13392055D01*
X16049348Y-13392055D02*
X16020777Y-13392055D01*
X16020777Y-13392055D02*
X16001729Y-13401579D01*
X16001729Y-13401579D02*
X15992205Y-13411103D01*
X16201729Y-13525389D02*
X16182682Y-13515865D01*
X16182682Y-13515865D02*
X16173158Y-13506341D01*
X16173158Y-13506341D02*
X16163634Y-13487293D01*
X16163634Y-13487293D02*
X16163634Y-13430151D01*
X16163634Y-13430151D02*
X16173158Y-13411103D01*
X16173158Y-13411103D02*
X16182682Y-13401579D01*
X16182682Y-13401579D02*
X16201729Y-13392055D01*
X16201729Y-13392055D02*
X16230301Y-13392055D01*
X16230301Y-13392055D02*
X16249348Y-13401579D01*
X16249348Y-13401579D02*
X16258872Y-13411103D01*
X16258872Y-13411103D02*
X16268396Y-13430151D01*
X16268396Y-13430151D02*
X16268396Y-13487293D01*
X16268396Y-13487293D02*
X16258872Y-13506341D01*
X16258872Y-13506341D02*
X16249348Y-13515865D01*
X16249348Y-13515865D02*
X16230301Y-13525389D01*
X16230301Y-13525389D02*
X16201729Y-13525389D01*
X16382682Y-13525389D02*
X16363634Y-13515865D01*
X16363634Y-13515865D02*
X16354110Y-13496817D01*
X16354110Y-13496817D02*
X16354110Y-13325389D01*
X16535063Y-13515865D02*
X16516015Y-13525389D01*
X16516015Y-13525389D02*
X16477920Y-13525389D01*
X16477920Y-13525389D02*
X16458872Y-13515865D01*
X16458872Y-13515865D02*
X16449348Y-13496817D01*
X16449348Y-13496817D02*
X16449348Y-13420627D01*
X16449348Y-13420627D02*
X16458872Y-13401579D01*
X16458872Y-13401579D02*
X16477920Y-13392055D01*
X16477920Y-13392055D02*
X16516015Y-13392055D01*
X16516015Y-13392055D02*
X16535063Y-13401579D01*
X16535063Y-13401579D02*
X16544586Y-13420627D01*
X16544586Y-13420627D02*
X16544586Y-13439674D01*
X16544586Y-13439674D02*
X16449348Y-13458722D01*
X16620777Y-13515865D02*
X16639825Y-13525389D01*
X16639825Y-13525389D02*
X16677920Y-13525389D01*
X16677920Y-13525389D02*
X16696967Y-13515865D01*
X16696967Y-13515865D02*
X16706491Y-13496817D01*
X16706491Y-13496817D02*
X16706491Y-13487293D01*
X16706491Y-13487293D02*
X16696967Y-13468246D01*
X16696967Y-13468246D02*
X16677920Y-13458722D01*
X16677920Y-13458722D02*
X16649348Y-13458722D01*
X16649348Y-13458722D02*
X16630301Y-13449198D01*
X16630301Y-13449198D02*
X16620777Y-13430151D01*
X16620777Y-13430151D02*
X16620777Y-13420627D01*
X16620777Y-13420627D02*
X16630301Y-13401579D01*
X16630301Y-13401579D02*
X16649348Y-13392055D01*
X16649348Y-13392055D02*
X16677920Y-13392055D01*
X16677920Y-13392055D02*
X16696967Y-13401579D01*
X16773158Y-13601579D02*
X16782682Y-13592055D01*
X16782682Y-13592055D02*
X16801729Y-13563484D01*
X16801729Y-13563484D02*
X16811253Y-13544436D01*
X16811253Y-13544436D02*
X16820777Y-13515865D01*
X16820777Y-13515865D02*
X16830301Y-13468246D01*
X16830301Y-13468246D02*
X16830301Y-13430151D01*
X16830301Y-13430151D02*
X16820777Y-13382532D01*
X16820777Y-13382532D02*
X16811253Y-13353960D01*
X16811253Y-13353960D02*
X16801729Y-13334913D01*
X16801729Y-13334913D02*
X16782682Y-13306341D01*
X16782682Y-13306341D02*
X16773158Y-13296817D01*
D12*
X11953095Y-13742905D02*
X11998095Y-13697905D01*
X11953095Y-13652905D01*
X11908095Y-13697905D01*
X11953095Y-13742905D01*
D11*
X12296967Y-13589389D02*
X12316015Y-13589389D01*
X12316015Y-13589389D02*
X12335062Y-13598913D01*
X12335062Y-13598913D02*
X12344586Y-13608436D01*
X12344586Y-13608436D02*
X12354110Y-13627484D01*
X12354110Y-13627484D02*
X12363634Y-13665579D01*
X12363634Y-13665579D02*
X12363634Y-13713198D01*
X12363634Y-13713198D02*
X12354110Y-13751293D01*
X12354110Y-13751293D02*
X12344586Y-13770341D01*
X12344586Y-13770341D02*
X12335062Y-13779865D01*
X12335062Y-13779865D02*
X12316015Y-13789389D01*
X12316015Y-13789389D02*
X12296967Y-13789389D01*
X12296967Y-13789389D02*
X12277919Y-13779865D01*
X12277919Y-13779865D02*
X12268396Y-13770341D01*
X12268396Y-13770341D02*
X12258872Y-13751293D01*
X12258872Y-13751293D02*
X12249348Y-13713198D01*
X12249348Y-13713198D02*
X12249348Y-13665579D01*
X12249348Y-13665579D02*
X12258872Y-13627484D01*
X12258872Y-13627484D02*
X12268396Y-13608436D01*
X12268396Y-13608436D02*
X12277919Y-13598913D01*
X12277919Y-13598913D02*
X12296967Y-13589389D01*
X12449348Y-13770341D02*
X12458872Y-13779865D01*
X12458872Y-13779865D02*
X12449348Y-13789389D01*
X12449348Y-13789389D02*
X12439824Y-13779865D01*
X12439824Y-13779865D02*
X12449348Y-13770341D01*
X12449348Y-13770341D02*
X12449348Y-13789389D01*
X12554110Y-13789389D02*
X12592205Y-13789389D01*
X12592205Y-13789389D02*
X12611253Y-13779865D01*
X12611253Y-13779865D02*
X12620777Y-13770341D01*
X12620777Y-13770341D02*
X12639824Y-13741770D01*
X12639824Y-13741770D02*
X12649348Y-13703674D01*
X12649348Y-13703674D02*
X12649348Y-13627484D01*
X12649348Y-13627484D02*
X12639824Y-13608436D01*
X12639824Y-13608436D02*
X12630300Y-13598913D01*
X12630300Y-13598913D02*
X12611253Y-13589389D01*
X12611253Y-13589389D02*
X12573157Y-13589389D01*
X12573157Y-13589389D02*
X12554110Y-13598913D01*
X12554110Y-13598913D02*
X12544586Y-13608436D01*
X12544586Y-13608436D02*
X12535062Y-13627484D01*
X12535062Y-13627484D02*
X12535062Y-13675103D01*
X12535062Y-13675103D02*
X12544586Y-13694151D01*
X12544586Y-13694151D02*
X12554110Y-13703674D01*
X12554110Y-13703674D02*
X12573157Y-13713198D01*
X12573157Y-13713198D02*
X12611253Y-13713198D01*
X12611253Y-13713198D02*
X12630300Y-13703674D01*
X12630300Y-13703674D02*
X12639824Y-13694151D01*
X12639824Y-13694151D02*
X12649348Y-13675103D01*
X12773157Y-13589389D02*
X12792205Y-13589389D01*
X12792205Y-13589389D02*
X12811253Y-13598913D01*
X12811253Y-13598913D02*
X12820777Y-13608436D01*
X12820777Y-13608436D02*
X12830300Y-13627484D01*
X12830300Y-13627484D02*
X12839824Y-13665579D01*
X12839824Y-13665579D02*
X12839824Y-13713198D01*
X12839824Y-13713198D02*
X12830300Y-13751293D01*
X12830300Y-13751293D02*
X12820777Y-13770341D01*
X12820777Y-13770341D02*
X12811253Y-13779865D01*
X12811253Y-13779865D02*
X12792205Y-13789389D01*
X12792205Y-13789389D02*
X12773157Y-13789389D01*
X12773157Y-13789389D02*
X12754110Y-13779865D01*
X12754110Y-13779865D02*
X12744586Y-13770341D01*
X12744586Y-13770341D02*
X12735062Y-13751293D01*
X12735062Y-13751293D02*
X12725538Y-13713198D01*
X12725538Y-13713198D02*
X12725538Y-13665579D01*
X12725538Y-13665579D02*
X12735062Y-13627484D01*
X12735062Y-13627484D02*
X12744586Y-13608436D01*
X12744586Y-13608436D02*
X12754110Y-13598913D01*
X12754110Y-13598913D02*
X12773157Y-13589389D01*
X12963634Y-13589389D02*
X12982681Y-13589389D01*
X12982681Y-13589389D02*
X13001729Y-13598913D01*
X13001729Y-13598913D02*
X13011253Y-13608436D01*
X13011253Y-13608436D02*
X13020777Y-13627484D01*
X13020777Y-13627484D02*
X13030300Y-13665579D01*
X13030300Y-13665579D02*
X13030300Y-13713198D01*
X13030300Y-13713198D02*
X13020777Y-13751293D01*
X13020777Y-13751293D02*
X13011253Y-13770341D01*
X13011253Y-13770341D02*
X13001729Y-13779865D01*
X13001729Y-13779865D02*
X12982681Y-13789389D01*
X12982681Y-13789389D02*
X12963634Y-13789389D01*
X12963634Y-13789389D02*
X12944586Y-13779865D01*
X12944586Y-13779865D02*
X12935062Y-13770341D01*
X12935062Y-13770341D02*
X12925538Y-13751293D01*
X12925538Y-13751293D02*
X12916015Y-13713198D01*
X12916015Y-13713198D02*
X12916015Y-13665579D01*
X12916015Y-13665579D02*
X12925538Y-13627484D01*
X12925538Y-13627484D02*
X12935062Y-13608436D01*
X12935062Y-13608436D02*
X12944586Y-13598913D01*
X12944586Y-13598913D02*
X12963634Y-13589389D01*
X13116015Y-13789389D02*
X13116015Y-13656055D01*
X13116015Y-13675103D02*
X13125538Y-13665579D01*
X13125538Y-13665579D02*
X13144586Y-13656055D01*
X13144586Y-13656055D02*
X13173158Y-13656055D01*
X13173158Y-13656055D02*
X13192205Y-13665579D01*
X13192205Y-13665579D02*
X13201729Y-13684627D01*
X13201729Y-13684627D02*
X13201729Y-13789389D01*
X13201729Y-13684627D02*
X13211253Y-13665579D01*
X13211253Y-13665579D02*
X13230300Y-13656055D01*
X13230300Y-13656055D02*
X13258872Y-13656055D01*
X13258872Y-13656055D02*
X13277919Y-13665579D01*
X13277919Y-13665579D02*
X13287443Y-13684627D01*
X13287443Y-13684627D02*
X13287443Y-13789389D01*
X13382681Y-13789389D02*
X13382681Y-13656055D01*
X13382681Y-13675103D02*
X13392205Y-13665579D01*
X13392205Y-13665579D02*
X13411253Y-13656055D01*
X13411253Y-13656055D02*
X13439824Y-13656055D01*
X13439824Y-13656055D02*
X13458872Y-13665579D01*
X13458872Y-13665579D02*
X13468396Y-13684627D01*
X13468396Y-13684627D02*
X13468396Y-13789389D01*
X13468396Y-13684627D02*
X13477919Y-13665579D01*
X13477919Y-13665579D02*
X13496967Y-13656055D01*
X13496967Y-13656055D02*
X13525538Y-13656055D01*
X13525538Y-13656055D02*
X13544586Y-13665579D01*
X13544586Y-13665579D02*
X13554110Y-13684627D01*
X13554110Y-13684627D02*
X13554110Y-13789389D01*
X13944586Y-13579865D02*
X13773158Y-13837008D01*
X14201729Y-13589389D02*
X14220777Y-13589389D01*
X14220777Y-13589389D02*
X14239824Y-13598913D01*
X14239824Y-13598913D02*
X14249348Y-13608436D01*
X14249348Y-13608436D02*
X14258872Y-13627484D01*
X14258872Y-13627484D02*
X14268396Y-13665579D01*
X14268396Y-13665579D02*
X14268396Y-13713198D01*
X14268396Y-13713198D02*
X14258872Y-13751293D01*
X14258872Y-13751293D02*
X14249348Y-13770341D01*
X14249348Y-13770341D02*
X14239824Y-13779865D01*
X14239824Y-13779865D02*
X14220777Y-13789389D01*
X14220777Y-13789389D02*
X14201729Y-13789389D01*
X14201729Y-13789389D02*
X14182681Y-13779865D01*
X14182681Y-13779865D02*
X14173158Y-13770341D01*
X14173158Y-13770341D02*
X14163634Y-13751293D01*
X14163634Y-13751293D02*
X14154110Y-13713198D01*
X14154110Y-13713198D02*
X14154110Y-13665579D01*
X14154110Y-13665579D02*
X14163634Y-13627484D01*
X14163634Y-13627484D02*
X14173158Y-13608436D01*
X14173158Y-13608436D02*
X14182681Y-13598913D01*
X14182681Y-13598913D02*
X14201729Y-13589389D01*
X14354110Y-13770341D02*
X14363634Y-13779865D01*
X14363634Y-13779865D02*
X14354110Y-13789389D01*
X14354110Y-13789389D02*
X14344586Y-13779865D01*
X14344586Y-13779865D02*
X14354110Y-13770341D01*
X14354110Y-13770341D02*
X14354110Y-13789389D01*
X14487443Y-13589389D02*
X14506491Y-13589389D01*
X14506491Y-13589389D02*
X14525539Y-13598913D01*
X14525539Y-13598913D02*
X14535062Y-13608436D01*
X14535062Y-13608436D02*
X14544586Y-13627484D01*
X14544586Y-13627484D02*
X14554110Y-13665579D01*
X14554110Y-13665579D02*
X14554110Y-13713198D01*
X14554110Y-13713198D02*
X14544586Y-13751293D01*
X14544586Y-13751293D02*
X14535062Y-13770341D01*
X14535062Y-13770341D02*
X14525539Y-13779865D01*
X14525539Y-13779865D02*
X14506491Y-13789389D01*
X14506491Y-13789389D02*
X14487443Y-13789389D01*
X14487443Y-13789389D02*
X14468396Y-13779865D01*
X14468396Y-13779865D02*
X14458872Y-13770341D01*
X14458872Y-13770341D02*
X14449348Y-13751293D01*
X14449348Y-13751293D02*
X14439824Y-13713198D01*
X14439824Y-13713198D02*
X14439824Y-13665579D01*
X14439824Y-13665579D02*
X14449348Y-13627484D01*
X14449348Y-13627484D02*
X14458872Y-13608436D01*
X14458872Y-13608436D02*
X14468396Y-13598913D01*
X14468396Y-13598913D02*
X14487443Y-13589389D01*
X14620777Y-13589389D02*
X14744586Y-13589389D01*
X14744586Y-13589389D02*
X14677920Y-13665579D01*
X14677920Y-13665579D02*
X14706491Y-13665579D01*
X14706491Y-13665579D02*
X14725539Y-13675103D01*
X14725539Y-13675103D02*
X14735062Y-13684627D01*
X14735062Y-13684627D02*
X14744586Y-13703674D01*
X14744586Y-13703674D02*
X14744586Y-13751293D01*
X14744586Y-13751293D02*
X14735062Y-13770341D01*
X14735062Y-13770341D02*
X14725539Y-13779865D01*
X14725539Y-13779865D02*
X14706491Y-13789389D01*
X14706491Y-13789389D02*
X14649348Y-13789389D01*
X14649348Y-13789389D02*
X14630301Y-13779865D01*
X14630301Y-13779865D02*
X14620777Y-13770341D01*
X14925539Y-13589389D02*
X14830301Y-13589389D01*
X14830301Y-13589389D02*
X14820777Y-13684627D01*
X14820777Y-13684627D02*
X14830301Y-13675103D01*
X14830301Y-13675103D02*
X14849348Y-13665579D01*
X14849348Y-13665579D02*
X14896967Y-13665579D01*
X14896967Y-13665579D02*
X14916015Y-13675103D01*
X14916015Y-13675103D02*
X14925539Y-13684627D01*
X14925539Y-13684627D02*
X14935062Y-13703674D01*
X14935062Y-13703674D02*
X14935062Y-13751293D01*
X14935062Y-13751293D02*
X14925539Y-13770341D01*
X14925539Y-13770341D02*
X14916015Y-13779865D01*
X14916015Y-13779865D02*
X14896967Y-13789389D01*
X14896967Y-13789389D02*
X14849348Y-13789389D01*
X14849348Y-13789389D02*
X14830301Y-13779865D01*
X14830301Y-13779865D02*
X14820777Y-13770341D01*
X15106491Y-13656055D02*
X15106491Y-13789389D01*
X15058872Y-13579865D02*
X15011253Y-13722722D01*
X15011253Y-13722722D02*
X15135062Y-13722722D01*
X15201729Y-13589389D02*
X15201729Y-13627484D01*
X15277920Y-13589389D02*
X15277920Y-13627484D01*
X15573158Y-13865579D02*
X15563634Y-13856055D01*
X15563634Y-13856055D02*
X15544586Y-13827484D01*
X15544586Y-13827484D02*
X15535063Y-13808436D01*
X15535063Y-13808436D02*
X15525539Y-13779865D01*
X15525539Y-13779865D02*
X15516015Y-13732246D01*
X15516015Y-13732246D02*
X15516015Y-13694151D01*
X15516015Y-13694151D02*
X15525539Y-13646532D01*
X15525539Y-13646532D02*
X15535063Y-13617960D01*
X15535063Y-13617960D02*
X15544586Y-13598913D01*
X15544586Y-13598913D02*
X15563634Y-13570341D01*
X15563634Y-13570341D02*
X15573158Y-13560817D01*
X15735063Y-13656055D02*
X15735063Y-13789389D01*
X15687443Y-13579865D02*
X15639824Y-13722722D01*
X15639824Y-13722722D02*
X15763634Y-13722722D01*
X15992205Y-13789389D02*
X15992205Y-13589389D01*
X16077920Y-13789389D02*
X16077920Y-13684627D01*
X16077920Y-13684627D02*
X16068396Y-13665579D01*
X16068396Y-13665579D02*
X16049348Y-13656055D01*
X16049348Y-13656055D02*
X16020777Y-13656055D01*
X16020777Y-13656055D02*
X16001729Y-13665579D01*
X16001729Y-13665579D02*
X15992205Y-13675103D01*
X16201729Y-13789389D02*
X16182682Y-13779865D01*
X16182682Y-13779865D02*
X16173158Y-13770341D01*
X16173158Y-13770341D02*
X16163634Y-13751293D01*
X16163634Y-13751293D02*
X16163634Y-13694151D01*
X16163634Y-13694151D02*
X16173158Y-13675103D01*
X16173158Y-13675103D02*
X16182682Y-13665579D01*
X16182682Y-13665579D02*
X16201729Y-13656055D01*
X16201729Y-13656055D02*
X16230301Y-13656055D01*
X16230301Y-13656055D02*
X16249348Y-13665579D01*
X16249348Y-13665579D02*
X16258872Y-13675103D01*
X16258872Y-13675103D02*
X16268396Y-13694151D01*
X16268396Y-13694151D02*
X16268396Y-13751293D01*
X16268396Y-13751293D02*
X16258872Y-13770341D01*
X16258872Y-13770341D02*
X16249348Y-13779865D01*
X16249348Y-13779865D02*
X16230301Y-13789389D01*
X16230301Y-13789389D02*
X16201729Y-13789389D01*
X16382682Y-13789389D02*
X16363634Y-13779865D01*
X16363634Y-13779865D02*
X16354110Y-13760817D01*
X16354110Y-13760817D02*
X16354110Y-13589389D01*
X16535063Y-13779865D02*
X16516015Y-13789389D01*
X16516015Y-13789389D02*
X16477920Y-13789389D01*
X16477920Y-13789389D02*
X16458872Y-13779865D01*
X16458872Y-13779865D02*
X16449348Y-13760817D01*
X16449348Y-13760817D02*
X16449348Y-13684627D01*
X16449348Y-13684627D02*
X16458872Y-13665579D01*
X16458872Y-13665579D02*
X16477920Y-13656055D01*
X16477920Y-13656055D02*
X16516015Y-13656055D01*
X16516015Y-13656055D02*
X16535063Y-13665579D01*
X16535063Y-13665579D02*
X16544586Y-13684627D01*
X16544586Y-13684627D02*
X16544586Y-13703674D01*
X16544586Y-13703674D02*
X16449348Y-13722722D01*
X16620777Y-13779865D02*
X16639825Y-13789389D01*
X16639825Y-13789389D02*
X16677920Y-13789389D01*
X16677920Y-13789389D02*
X16696967Y-13779865D01*
X16696967Y-13779865D02*
X16706491Y-13760817D01*
X16706491Y-13760817D02*
X16706491Y-13751293D01*
X16706491Y-13751293D02*
X16696967Y-13732246D01*
X16696967Y-13732246D02*
X16677920Y-13722722D01*
X16677920Y-13722722D02*
X16649348Y-13722722D01*
X16649348Y-13722722D02*
X16630301Y-13713198D01*
X16630301Y-13713198D02*
X16620777Y-13694151D01*
X16620777Y-13694151D02*
X16620777Y-13684627D01*
X16620777Y-13684627D02*
X16630301Y-13665579D01*
X16630301Y-13665579D02*
X16649348Y-13656055D01*
X16649348Y-13656055D02*
X16677920Y-13656055D01*
X16677920Y-13656055D02*
X16696967Y-13665579D01*
X16773158Y-13865579D02*
X16782682Y-13856055D01*
X16782682Y-13856055D02*
X16801729Y-13827484D01*
X16801729Y-13827484D02*
X16811253Y-13808436D01*
X16811253Y-13808436D02*
X16820777Y-13779865D01*
X16820777Y-13779865D02*
X16830301Y-13732246D01*
X16830301Y-13732246D02*
X16830301Y-13694151D01*
X16830301Y-13694151D02*
X16820777Y-13646532D01*
X16820777Y-13646532D02*
X16811253Y-13617960D01*
X16811253Y-13617960D02*
X16801729Y-13598913D01*
X16801729Y-13598913D02*
X16782682Y-13570341D01*
X16782682Y-13570341D02*
X16773158Y-13560817D01*
M02*
